blackwide.ufo
<glyph name="quotedbl" format="1">
  <advance width="590"/>
  <unicode hex="0022"/>
  <outline>
    <contour>
      <point x="270.1" y="658"/>
      <point x="109.5" y="658"/>
      <point x="270.1" y="658" type="curve"/>
      <point x="270.1" y="720.66604"/>
      <point x="270.1" y="783.33396"/>
      <point x="270.1" y="846" type="curve"/>
      <point x="109.5" y="846"/>
      <point x="270.1" y="846"/>
      <point x="109.5" y="846" type="curve"/>
      <point x="109.5" y="783.33396"/>
      <point x="109.5" y="720.66604"/>
      <point x="109.5" y="658" type="curve"/>
    </contour>
    <contour>
      <point x="508.9" y="658"/>
      <point x="355.6" y="658"/>
      <point x="508.9" y="658" type="curve"/>
      <point x="508.9" y="720.66604"/>
      <point x="508.9" y="783.33396"/>
      <point x="508.9" y="846" type="curve"/>
      <point x="355.6" y="846"/>
      <point x="508.9" y="846"/>
      <point x="355.6" y="846" type="curve"/>
      <point x="355.6" y="783.33396"/>
      <point x="355.6" y="720.66604"/>
      <point x="355.6" y="658" type="curve"/>
    </contour>
  </outline>
</glyph>
<glyph name="quotesingle" format="1">
  <advance width="207"/>
  <unicode hex="0027"/>
  <outline>
    <contour>
      <point x="186" y="658"/>
      <point x="26" y="658"/>
      <point x="186" y="658" type="curve"/>
      <point x="186" y="721"/>
      <point x="186" y="783"/>
      <point x="186" y="846" type="curve"/>
      <point x="26" y="846"/>
      <point x="186" y="846"/>
      <point x="26" y="846" type="curve"/>
      <point x="26" y="783"/>
      <point x="26" y="721"/>
      <point x="26" y="658" type="curve"/>
    </contour>
  </outline>
</glyph>
<glyph name="parenright" format="1">
  <advance width="557"/>
  <unicode hex="0029"/>
  <outline>
    <contour>
      <point x="152" y="-297"/>
      <point x="57" y="-222"/>
      <point x="152" y="-297" type="curve"/>
      <point x="376" y="-122"/>
      <point x="517" y="45"/>
      <point x="517" y="329" type="curve"/>
      <point x="517" y="606"/>
      <point x="383" y="773"/>
      <point x="157" y="936" type="curve"/>
      <point x="62" y="854"/>
      <point x="157" y="936"/>
      <point x="62" y="854" type="curve"/>
      <point x="252" y="711"/>
      <point x="359" y="560"/>
      <point x="359" y="324" type="curve"/>
      <point x="359" y="83"/>
      <point x="243" y="-68"/>
      <point x="57" y="-222" type="curve"/>
    </contour>
  </outline>
</glyph>
<glyph name="comma" format="1">
  <advance width="355"/>
  <unicode hex="002C"/>
  <outline>
    <contour>
      <point x="184" y="-99"/>
      <point x="23" y="-99"/>
      <point x="184" y="-99" type="curve"/>
      <point x="344" y="82"/>
      <point x="183" y="-99"/>
      <point x="345" y="82" type="curve"/>
      <point x="140" y="82"/>
      <point x="345" y="82"/>
      <point x="140" y="82" type="curve"/>
      <point x="24" y="-98"/>
      <point x="140" y="82"/>
      <point x="23" y="-99" type="curve"/>
    </contour>
  </outline>
</glyph>
<glyph name="hyphen" format="1">
  <advance width="472"/>
  <unicode hex="002D"/>
  <outline>
    <contour>
      <point x="118.3" y="220.032364672"/>
      <point x="118.3" y="348.512364672"/>
      <point x="118.3" y="220.032364672" type="curve"/>
      <point x="244.398739" y="220.032364672"/>
      <point x="370.501261" y="220.032364672"/>
      <point x="496.6" y="220.032364672" type="curve"/>
      <point x="496.6" y="348.512364672"/>
      <point x="496.6" y="220.032364672"/>
      <point x="496.6" y="348.512364672" type="curve"/>
      <point x="370.501261" y="348.512364672"/>
      <point x="244.398739" y="348.512364672"/>
      <point x="118.3" y="348.512364672" type="curve"/>
    </contour>
  </outline>
</glyph>
<glyph name="slash" format="1">
  <advance width="800"/>
  <unicode hex="002F"/>
  <outline>
    <contour>
      <point x="222" y="-9"/>
      <point x="61" y="-9"/>
      <point x="222" y="-9" type="curve"/>
      <point x="406" y="253"/>
      <point x="591" y="515"/>
      <point x="776" y="777" type="curve"/>
      <point x="615" y="777"/>
      <point x="776" y="777"/>
      <point x="615" y="777" type="curve"/>
      <point x="430" y="515"/>
      <point x="246" y="253"/>
      <point x="61" y="-9" type="curve"/>
    </contour>
  </outline>
</glyph>
<glyph name="zero" format="1">
  <advance width="909"/>
  <unicode hex="0030"/>
  <outline>
    <contour>
      <point x="186" y="360"/>
      <point x="32" y="360"/>
      <point x="186" y="360" type="curve"/>
      <point x="186" y="518"/>
      <point x="290" y="605"/>
      <point x="453" y="605" type="curve"/>
      <point x="619" y="605"/>
      <point x="730" y="522"/>
      <point x="730" y="363" type="curve"/>
      <point x="730" y="205"/>
      <point x="627" y="117"/>
      <point x="466" y="117" type="curve"/>
      <point x="298" y="117"/>
      <point x="186" y="200"/>
      <point x="186" y="360" type="curve"/>
      <point x="32" y="360"/>
      <point x="186" y="360"/>
      <point x="32" y="360" type="curve"/>
      <point x="32" y="119"/>
      <point x="205" y="-5"/>
      <point x="459" y="-5" type="curve"/>
      <point x="713" y="-5"/>
      <point x="884" y="120"/>
      <point x="884" y="363" type="curve"/>
      <point x="884" y="602"/>
      <point x="717" y="727"/>
      <point x="468" y="727" type="curve"/>
      <point x="209" y="727"/>
      <point x="32" y="604"/>
      <point x="32" y="360" type="curve"/>
    </contour>
  </outline>
</glyph>
<glyph name="two" format="1">
  <advance width="738"/>
  <unicode hex="0032"/>
  <outline>
    <contour>
      <point x="694" y="117"/>
      <point x="571" y="117"/>
      <point x="694" y="117" type="curve"/>
      <point x="694" y="237"/>
      <point x="694" y="117"/>
      <point x="694" y="237" type="curve"/>
      <point x="571" y="237"/>
      <point x="694" y="237"/>
      <point x="571" y="237" type="curve"/>
      <point x="571" y="117"/>
      <point x="571" y="237"/>
      <point x="571" y="117" type="curve"/>
    </contour>
    <contour>
      <point x="52" y="0"/>
      <point x="52" y="117"/>
      <point x="52" y="0" type="curve"/>
      <point x="308" y="0"/>
      <point x="511" y="0"/>
      <point x="694" y="0" type="curve"/>
      <point x="694" y="117"/>
      <point x="694" y="0"/>
      <point x="694" y="117" type="curve"/>
      <point x="487" y="117"/>
      <point x="259" y="117"/>
      <point x="52" y="117" type="curve"/>
    </contour>
    <contour>
      <point x="173" y="506"/>
      <point x="60" y="576"/>
      <point x="173" y="506" type="curve"/>
      <point x="237" y="572"/>
      <point x="293" y="605"/>
      <point x="377" y="605" type="curve"/>
      <point x="465" y="605"/>
      <point x="534" y="582"/>
      <point x="534" y="501" type="curve"/>
      <point x="534" y="403"/>
      <point x="438" y="353"/>
      <point x="337" y="293" type="curve"/>
      <point x="242" y="234"/>
      <point x="147" y="176"/>
      <point x="52" y="117" type="curve"/>
      <point x="52" y="0"/>
      <point x="52" y="117"/>
      <point x="52" y="0" type="curve"/>
      <point x="237" y="67"/>
      <point x="334" y="134"/>
      <point x="439" y="200" type="curve"/>
      <point x="577" y="281"/>
      <point x="682" y="349"/>
      <point x="682" y="507" type="curve"/>
      <point x="682" y="667"/>
      <point x="558" y="727"/>
      <point x="384" y="727" type="curve"/>
      <point x="246" y="727"/>
      <point x="138" y="684"/>
      <point x="60" y="576" type="curve"/>
    </contour>
  </outline>
</glyph>
<glyph name="three" format="1">
  <advance width="711"/>
  <unicode hex="0033"/>
  <outline>
    <contour>
      <point x="49" y="61"/>
      <point x="137" y="159"/>
      <point x="48.5" y="60.7227920228" type="curve"/>
      <point x="118" y="21"/>
      <point x="212.909142601" y="-5"/>
      <point x="315.5" y="-5" type="curve"/>
      <point x="516.78575941" y="-5"/>
      <point x="674" y="37.6607761303"/>
      <point x="674" y="220.378974359" type="curve"/>
      <point x="674" y="389.132268542"/>
      <point x="511.169732477" y="430.89954416"/>
      <point x="300.3" y="430.89954416" type="curve"/>
      <point x="300.3" y="331.61954416"/>
      <point x="300.3" y="430.89954416"/>
      <point x="300.3" y="331.61954416" type="curve"/>
      <point x="406.376772855" y="331.61954416"/>
      <point x="520.7" y="316.636915179"/>
      <point x="520.7" y="214.538974359" type="curve"/>
      <point x="520.7" y="120.410989852"/>
      <point x="418.973862617" y="116.8"/>
      <point x="322.8" y="116.8" type="curve"/>
      <point x="275" y="117"/>
      <point x="212" y="128"/>
      <point x="137" y="159" type="curve"/>
    </contour>
    <contour>
      <point x="153.8" y="557.102393162"/>
      <point x="51.6" y="633.022393162"/>
      <point x="153.8" y="557.102393162" type="curve"/>
      <point x="189" y="578"/>
      <point x="253" y="605"/>
      <point x="316" y="605" type="curve"/>
      <point x="405" y="605"/>
      <point x="477.8" y="599.981982951"/>
      <point x="477.8" y="521.44951567" type="curve"/>
      <point x="477.8" y="441.272007628"/>
      <point x="387.745919516" y="430.89954416"/>
      <point x="300.3" y="430.89954416" type="curve"/>
      <point x="300.3" y="331.61954416"/>
      <point x="300.3" y="430.89954416"/>
      <point x="300.3" y="331.61954416" type="curve"/>
      <point x="478.268133977" y="331.61954416"/>
      <point x="631.1" y="372.001134195"/>
      <point x="631.1" y="527.28951567" type="curve"/>
      <point x="631.1" y="680.740409385"/>
      <point x="497.349801789" y="727"/>
      <point x="327.1" y="727" type="curve"/>
      <point x="216.860698108" y="727"/>
      <point x="114.318783865" y="689.252028827"/>
      <point x="51.6" y="633.022393162" type="curve"/>
    </contour>
  </outline>
</glyph>
<glyph name="nine" format="1">
  <advance width="772"/>
  <unicode hex="0039"/>
  <outline>
    <contour>
      <point x="615" y="499"/>
      <point x="692" y="458"/>
      <point x="615.4" y="498.825641026" type="curve"/>
      <point x="563.926437838" y="416.54198031"/>
      <point x="494.303591167" y="390.853048433"/>
      <point x="396" y="390.853048433" type="curve"/>
      <point x="297.220012628" y="390.853048433"/>
      <point x="218.1" y="414.401661278"/>
      <point x="218.1" y="500.564159544" type="curve"/>
      <point x="218.1" y="578.245119457"/>
      <point x="291.702360108" y="595.146837607"/>
      <point x="380.5" y="595.146837607" type="curve"/>
      <point x="498.72427819" y="595.146837607"/>
      <point x="592.2" y="564.96639536"/>
      <point x="592.2" y="461.101937322" type="curve"/>
      <point x="592.2" y="211.371854067"/>
      <point x="364.372959694" y="156.331589705"/>
      <point x="98.5" y="99.7525925926" type="curve"/>
      <point x="127.7" y="-5.36740740741"/>
      <point x="98.5" y="99.7525925926"/>
      <point x="127.7" y="-5.36740740741" type="curve"/>
      <point x="458" y="44"/>
      <point x="745.5" y="149.006250101"/>
      <point x="745.5" y="466.941937322" type="curve"/>
      <point x="745.5" y="654.425853146"/>
      <point x="592.63632219" y="734.466837607"/>
      <point x="387.8" y="734.466837607" type="curve"/>
      <point x="199.199907101" y="734.466837607"/>
      <point x="57.5" y="664.888618073"/>
      <point x="57.5" y="494.724159544" type="curve"/>
      <point x="57.5" y="329.544114222"/>
      <point x="198.133380596" y="268.213048433"/>
      <point x="381.4" y="268.213048433" type="curve"/>
      <point x="535.379516217" y="268.213048433"/>
      <point x="628" y="324"/>
      <point x="692" y="458" type="curve"/>
    </contour>
  </outline>
</glyph>
<glyph name="colon" format="1">
  <advance width="240"/>
  <unicode hex="003A"/>
  <outline>
    <contour>
      <point x="215" y="375"/>
      <point x="26" y="375"/>
      <point x="215" y="375" type="curve"/>
      <point x="215" y="427"/>
      <point x="174" y="451"/>
      <point x="119" y="451" type="curve"/>
      <point x="64" y="451"/>
      <point x="26" y="424"/>
      <point x="26" y="375" type="curve"/>
      <point x="215" y="375"/>
      <point x="26" y="375"/>
      <point x="215" y="375" type="curve"/>
      <point x="215" y="322"/>
      <point x="174" y="300"/>
      <point x="118" y="300" type="curve"/>
      <point x="63" y="300"/>
      <point x="26" y="325"/>
      <point x="26" y="375" type="curve"/>
    </contour>
    <contour>
      <point x="215" y="65"/>
      <point x="26" y="65"/>
      <point x="215" y="65" type="curve"/>
      <point x="215" y="117"/>
      <point x="174" y="141"/>
      <point x="119" y="141" type="curve"/>
      <point x="64" y="141"/>
      <point x="26" y="114"/>
      <point x="26" y="65" type="curve"/>
      <point x="215" y="65"/>
      <point x="26" y="65"/>
      <point x="215" y="65" type="curve"/>
      <point x="215" y="12"/>
      <point x="174" y="-10"/>
      <point x="118" y="-10" type="curve"/>
      <point x="63" y="-10"/>
      <point x="26" y="15"/>
      <point x="26" y="65" type="curve"/>
    </contour>
  </outline>
</glyph>
<glyph name="less" format="1">
  <advance width="895"/>
  <unicode hex="003C"/>
  <outline>
    <contour>
      <point x="841.1" y="634.24"/>
      <point x="841.1" y="505.76"/>
      <point x="841.1" y="634.24" type="curve"/>
      <point x="577.202639" y="544.2409"/>
      <point x="313.297361" y="454.2391"/>
      <point x="49.4" y="364.24" type="curve"/>
      <point x="49.4" y="235.76"/>
      <point x="49.4" y="364.24"/>
      <point x="49.4" y="235.76" type="curve"/>
      <point x="313.297361" y="325.7591"/>
      <point x="577.202639" y="415.7609"/>
      <point x="841.1" y="505.76" type="curve"/>
    </contour>
    <contour>
      <point x="854.1" y="100.24"/>
      <point x="854.1" y="-28.24"/>
      <point x="854.1" y="100.24" type="curve"/>
      <point x="585.869349" y="188.23912"/>
      <point x="317.630651" y="276.24088"/>
      <point x="49.4" y="364.24" type="curve"/>
      <point x="49.4" y="235.76"/>
      <point x="49.4" y="364.24"/>
      <point x="49.4" y="235.76" type="curve"/>
      <point x="317.630651" y="147.76088"/>
      <point x="585.869349" y="59.75912"/>
      <point x="854.1" y="-28.24" type="curve"/>
    </contour>
  </outline>
</glyph>
<glyph name="equal" format="1">
  <advance width="913"/>
  <unicode hex="003D"/>
  <outline>
    <contour>
      <point x="49.4" y="156.18"/>
      <point x="49.4" y="278.82"/>
      <point x="49.4" y="156.18" type="curve"/>
      <point x="321.963941" y="156.18"/>
      <point x="594.536059" y="156.18"/>
      <point x="867.1" y="156.18" type="curve"/>
      <point x="867.1" y="278.82"/>
      <point x="867.1" y="156.18"/>
      <point x="867.1" y="278.82" type="curve"/>
      <point x="594.536059" y="278.82"/>
      <point x="321.963941" y="278.82"/>
      <point x="49.4" y="278.82" type="curve"/>
    </contour>
    <contour>
      <point x="49.4" y="378.18"/>
      <point x="49.4" y="500.82"/>
      <point x="49.4" y="378.18" type="curve"/>
      <point x="321.963941" y="378.18"/>
      <point x="594.536059" y="378.18"/>
      <point x="867.1" y="378.18" type="curve"/>
      <point x="867.1" y="500.82"/>
      <point x="867.1" y="378.18"/>
      <point x="867.1" y="500.82" type="curve"/>
      <point x="594.536059" y="500.82"/>
      <point x="321.963941" y="500.82"/>
      <point x="49.4" y="500.82" type="curve"/>
    </contour>
  </outline>
</glyph>
<glyph name="greater" format="1">
  <advance width="910"/>
  <unicode hex="003E"/>
  <outline>
    <contour>
      <point x="61.1" y="-28.24"/>
      <point x="61.1" y="100.24"/>
      <point x="61.1" y="-28.24" type="curve"/>
      <point x="324.997361" y="61.7591"/>
      <point x="588.902639" y="151.7609"/>
      <point x="852.8" y="241.76" type="curve"/>
      <point x="852.8" y="370.24"/>
      <point x="852.8" y="241.76"/>
      <point x="852.8" y="370.24" type="curve"/>
      <point x="588.902639" y="280.2409"/>
      <point x="324.997361" y="190.2391"/>
      <point x="61.1" y="100.24" type="curve"/>
    </contour>
    <contour>
      <point x="48.1" y="505.76"/>
      <point x="48.1" y="634.24"/>
      <point x="48.1" y="505.76" type="curve"/>
      <point x="316.330651" y="417.76088"/>
      <point x="584.569349" y="329.75912"/>
      <point x="852.8" y="241.76" type="curve"/>
      <point x="852.8" y="370.24"/>
      <point x="852.8" y="241.76"/>
      <point x="852.8" y="370.24" type="curve"/>
      <point x="584.569349" y="458.23912"/>
      <point x="316.330651" y="546.24088"/>
      <point x="48.1" y="634.24" type="curve"/>
    </contour>
  </outline>
</glyph>
<glyph name="question" format="1">
  <advance width="531"/>
  <unicode hex="003F"/>
  <outline>
    <contour>
      <point x="93" y="384"/>
      <point x="253" y="384"/>
      <point x="93" y="384" type="curve"/>
      <point x="93" y="347"/>
      <point x="92.6" y="258.33296"/>
      <point x="92.6" y="221" type="curve"/>
      <point x="253.2" y="221.0"/>
      <point x="92.6" y="221"/>
      <point x="253.2" y="221.0" type="curve"/>
      <point x="253.2" y="258.33296"/>
      <point x="253" y="347"/>
      <point x="253" y="384" type="curve"/>
    </contour>
    <contour>
      <point x="102" y="625"/>
      <point x="51" y="741"/>
      <point x="102" y="625" type="curve"/>
      <point x="128" y="632"/>
      <point x="147" y="636"/>
      <point x="175" y="636" type="curve"/>
      <point x="269" y="636"/>
      <point x="346" y="604"/>
      <point x="346" y="519" type="curve"/>
      <point x="346" y="426"/>
      <point x="261" y="384"/>
      <point x="158" y="384" type="curve"/>
      <point x="158" y="261"/>
      <point x="158" y="384"/>
      <point x="158" y="261" type="curve"/>
      <point x="346" y="261"/>
      <point x="499" y="346"/>
      <point x="499" y="519" type="curve"/>
      <point x="499" y="677"/>
      <point x="360" y="757"/>
      <point x="190" y="757" type="curve"/>
      <point x="139" y="757"/>
      <point x="100" y="754"/>
      <point x="51" y="741" type="curve"/>
    </contour>
    <contour>
      <point x="268.085" y="17"/>
      <point x="79.015" y="17.0"/>
      <point x="268.085" y="17" type="curve"/>
      <point x="268.085" y="69.5634788836"/>
      <point x="229.435687856" y="93.128"/>
      <point x="172.9" y="93.128" type="curve"/>
      <point x="119.771389086" y="93.128"/>
      <point x="79.015" y="65.6935055905"/>
      <point x="79.015" y="17.0" type="curve"/>
      <point x="268.085" y="17.0"/>
      <point x="79.015" y="17.0"/>
      <point x="268.085" y="17.0" type="curve"/>
      <point x="268.085" y="-37.0864537571"/>
      <point x="230.233599745" y="-58.128"/>
      <point x="172.9" y="-58.128" type="curve"/>
      <point x="118.937079986" y="-58.128"/>
      <point x="79.015" y="-33.1793250764"/>
      <point x="79.015" y="17.0" type="curve"/>
    </contour>
  </outline>
</glyph>
<glyph name="at" format="1">
  <advance width="1109"/>
  <unicode hex="0040"/>
  <outline>
    <contour>
      <point x="763" y="7"/>
      <point x="815" y="-91"/>
      <point x="763" y="7" type="curve"/>
      <point x="694" y="-14"/>
      <point x="644.947617389" y="-23.7236467236"/>
      <point x="577.6" y="-23.7236467236" type="curve"/>
      <point x="369.441628348" y="-23.7236467236"/>
      <point x="209.9" y="31.8769002763"/>
      <point x="209.9" y="215.206324786" type="curve"/>
      <point x="209.9" y="392.577810551"/>
      <point x="368.267467834" y="442.261538462"/>
      <point x="570.3" y="442.261538462" type="curve"/>
      <point x="760.708341895" y="442.261538462"/>
      <point x="905.5" y="384.106189187"/>
      <point x="905.5" y="214.538974359" type="curve"/>
      <point x="906" y="170"/>
      <point x="902" y="133"/>
      <point x="864" y="133" type="curve"/>
      <point x="820" y="133"/>
      <point x="804.9" y="170.286957067"/>
      <point x="804.9" y="219.516866097" type="curve"/>
      <point x="804.9" y="352.351422776"/>
      <point x="703.082597735" y="415.089458689"/>
      <point x="559.8" y="415.089458689" type="curve"/>
      <point x="400.992747689" y="415.089458689"/>
      <point x="286.7" y="358.066786865"/>
      <point x="286.7" y="215.401082621" type="curve"/>
      <point x="286.7" y="74.6753729332"/>
      <point x="391.123924401" y="9.48319088319"/>
      <point x="540.9" y="9.48319088319" type="curve"/>
      <point x="670.313554776" y="9.48319088319"/>
      <point x="752.494235667" y="72.9933862415"/>
      <point x="781.7" y="198.451054131" type="curve"/>
      <point x="679.5" y="221.811054131"/>
      <point x="781.7" y="198.451054131"/>
      <point x="679.5" y="221.811054131" type="curve"/>
      <point x="659.157348763" y="161.213425888"/>
      <point x="625.338598527" y="126.283190883"/>
      <point x="562.8" y="126.283190883" type="curve"/>
      <point x="490.87585858" y="126.283190883"/>
      <point x="440" y="155.057673546"/>
      <point x="440" y="221.241082621" type="curve"/>
      <point x="440" y="276.520993361"/>
      <point x="484.694257018" y="298.289458689"/>
      <point x="545.2" y="298.289458689" type="curve"/>
      <point x="610.959609029" y="298.289458689"/>
      <point x="658.9" y="273.580293687"/>
      <point x="658.9" y="213.676866097" type="curve"/>
      <point x="658.9" y="94.262080991"/>
      <point x="730.216565192" y="22.3174358974"/>
      <point x="850.7" y="22.3174358974" type="curve"/>
      <point x="979.610327176" y="22.3174358974"/>
      <point x="1058.8" y="93.5596039936"/>
      <point x="1058.8" y="220.378974359" type="curve"/>
      <point x="1058.8" y="468.888135171"/>
      <point x="853" y="564"/>
      <point x="578" y="564" type="curve"/>
      <point x="281" y="564"/>
      <point x="56.6" y="474.046506418"/>
      <point x="56.6" y="209.366324786" type="curve"/>
      <point x="56.6" y="-51.2888896441"/>
      <point x="277.491067056" y="-140.523646724"/>
      <point x="570.3" y="-140.523646724" type="curve"/>
      <point x="668.132196872" y="-140.523646724"/>
      <point x="751" y="-119"/>
      <point x="815" y="-91" type="curve"/>
    </contour>
  </outline>
</glyph>
<glyph name="A" format="1">
  <advance width="1122"/>
  <unicode hex="0041"/>
  <outline>
    <contour>
      <point x="204" y="117"/>
      <point x="204" y="0"/>
      <point x="204" y="117" type="curve"/>
      <point x="10" y="117"/>
      <point x="204" y="117"/>
      <point x="10" y="117" type="curve"/>
      <point x="10" y="0"/>
      <point x="10" y="117"/>
      <point x="10" y="0" type="curve"/>
      <point x="75" y="0"/>
      <point x="140" y="0"/>
      <point x="204" y="0" type="curve"/>
    </contour>
    <contour>
      <point x="204" y="0"/>
      <point x="204" y="117"/>
      <point x="204" y="0" type="curve"/>
      <point x="281" y="0"/>
      <point x="204" y="0"/>
      <point x="435" y="0" type="curve"/>
      <point x="435" y="117"/>
      <point x="435" y="0"/>
      <point x="435" y="117" type="curve"/>
      <point x="204" y="117"/>
      <point x="435" y="117"/>
      <point x="204" y="117" type="curve"/>
    </contour>
    <contour>
      <point x="915" y="0"/>
      <point x="915" y="117"/>
      <point x="915" y="0" type="curve"/>
      <point x="980" y="0"/>
      <point x="1045" y="0"/>
      <point x="1109" y="0" type="curve"/>
      <point x="1109" y="117"/>
      <point x="1109" y="0"/>
      <point x="1109" y="117" type="curve"/>
      <point x="915" y="117"/>
      <point x="1109" y="117"/>
      <point x="915" y="117" type="curve"/>
    </contour>
    <contour>
      <point x="915" y="117"/>
      <point x="915" y="0"/>
      <point x="915" y="117" type="curve"/>
      <point x="685" y="117"/>
      <point x="915" y="117"/>
      <point x="685" y="117" type="curve"/>
      <point x="685" y="0"/>
      <point x="685" y="117"/>
      <point x="685" y="0" type="curve"/>
      <point x="762" y="0"/>
      <point x="839" y="0"/>
      <point x="915" y="0" type="curve"/>
    </contour>
    <contour>
      <point x="777" y="327"/>
      <point x="828" y="204"/>
      <point x="777" y="327" type="curve"/>
      <point x="641" y="327"/>
      <point x="505" y="327"/>
      <point x="369" y="327" type="curve"/>
      <point x="303" y="204"/>
      <point x="369" y="327"/>
      <point x="303" y="204" type="curve"/>
      <point x="478" y="204"/>
      <point x="653" y="204"/>
      <point x="828" y="204" type="curve"/>
    </contour>
    <contour>
      <point x="1014" y="0"/>
      <point x="846" y="0"/>
      <point x="1014" y="0" type="curve"/>
      <point x="897" y="242"/>
      <point x="772" y="480"/>
      <point x="654" y="722" type="curve"/>
      <point x="508" y="722"/>
      <point x="654" y="722"/>
      <point x="508" y="722" type="curve"/>
      <point x="623" y="483"/>
      <point x="731" y="239"/>
      <point x="846" y="0" type="curve"/>
    </contour>
    <contour>
      <point x="276" y="0"/>
      <point x="101" y="0"/>
      <point x="276" y="0" type="curve"/>
      <point x="405" y="239"/>
      <point x="523" y="483"/>
      <point x="652" y="722" type="curve"/>
      <point x="506" y="722"/>
      <point x="652" y="722"/>
      <point x="506" y="722" type="curve"/>
      <point x="374" y="480"/>
      <point x="233" y="242"/>
      <point x="101" y="0" type="curve"/>
    </contour>
  </outline>
</glyph>
<glyph name="B" format="1">
  <advance width="855"/>
  <unicode hex="0042"/>
  <outline>
    <contour>
      <point x="226" y="722"/>
      <point x="226" y="605"/>
      <point x="226" y="722" type="curve"/>
      <point x="161" y="722"/>
      <point x="97" y="722"/>
      <point x="32" y="722" type="curve"/>
      <point x="32" y="605"/>
      <point x="32" y="722"/>
      <point x="32" y="605" type="curve"/>
      <point x="226" y="605"/>
      <point x="32" y="605"/>
      <point x="226" y="605" type="curve"/>
    </contour>
    <contour>
      <point x="225" y="117"/>
      <point x="225" y="0"/>
      <point x="225" y="117" type="curve"/>
      <point x="31" y="117"/>
      <point x="225" y="117"/>
      <point x="31" y="117" type="curve"/>
      <point x="31" y="0"/>
      <point x="31" y="117"/>
      <point x="31" y="0" type="curve"/>
      <point x="95" y="0"/>
      <point x="160" y="0"/>
      <point x="225" y="0" type="curve"/>
    </contour>
    <contour>
      <point x="212" y="605"/>
      <point x="212" y="722"/>
      <point x="212" y="605" type="curve"/>
      <point x="305" y="605"/>
      <point x="399" y="605"/>
      <point x="493" y="605" type="curve"/>
      <point x="553" y="605"/>
      <point x="603" y="585"/>
      <point x="603" y="528" type="curve"/>
      <point x="603" y="471"/>
      <point x="535" y="462"/>
      <point x="471" y="462" type="curve"/>
      <point x="385" y="462"/>
      <point x="298" y="462"/>
      <point x="212" y="462" type="curve"/>
      <point x="212" y="345"/>
      <point x="212" y="462"/>
      <point x="212" y="345" type="curve"/>
      <point x="271" y="345"/>
      <point x="331" y="345"/>
      <point x="391" y="345" type="curve"/>
      <point x="526" y="345"/>
      <point x="764" y="367"/>
      <point x="764" y="528" type="curve"/>
      <point x="764" y="668"/>
      <point x="647" y="722"/>
      <point x="493" y="722" type="curve"/>
      <point x="399" y="722"/>
      <point x="305" y="722"/>
      <point x="212" y="722" type="curve"/>
    </contour>
    <contour>
      <point x="311" y="0"/>
      <point x="143" y="0"/>
      <point x="311" y="0" type="curve"/>
      <point x="311" y="241"/>
      <point x="311" y="481"/>
      <point x="311" y="722" type="curve"/>
      <point x="143" y="722"/>
      <point x="311" y="722"/>
      <point x="143" y="722" type="curve"/>
      <point x="143" y="481"/>
      <point x="143" y="241"/>
      <point x="143" y="0" type="curve"/>
    </contour>
    <contour>
      <point x="212" y="345"/>
      <point x="212" y="462"/>
      <point x="212" y="345" type="curve"/>
      <point x="298" y="345"/>
      <point x="385" y="345"/>
      <point x="471" y="345" type="curve"/>
      <point x="574" y="345"/>
      <point x="664" y="320"/>
      <point x="664" y="226" type="curve"/>
      <point x="664" y="140"/>
      <point x="588" y="117"/>
      <point x="490" y="117" type="curve"/>
      <point x="397" y="117"/>
      <point x="304" y="117"/>
      <point x="212" y="117" type="curve"/>
      <point x="212" y="0"/>
      <point x="212" y="117"/>
      <point x="212" y="0" type="curve"/>
      <point x="304" y="0"/>
      <point x="397" y="0"/>
      <point x="490" y="0" type="curve"/>
      <point x="682" y="0"/>
      <point x="825" y="57"/>
      <point x="825" y="226" type="curve"/>
      <point x="825" y="429"/>
      <point x="561" y="462"/>
      <point x="391" y="462" type="curve"/>
      <point x="331" y="462"/>
      <point x="271" y="462"/>
      <point x="212" y="462" type="curve"/>
    </contour>
  </outline>
</glyph>
<glyph name="F" format="1">
  <advance width="738"/>
  <unicode hex="0046"/>
  <outline>
    <contour>
      <point x="170.3" y="0"/>
      <point x="170.3" y="116.8"/>
      <point x="170.3" y="0" type="curve"/>
      <point x="234.932687" y="0"/>
      <point x="170.3" y="0"/>
      <point x="364.2" y="0" type="curve"/>
      <point x="364.2" y="116.8"/>
      <point x="364.2" y="0"/>
      <point x="364.2" y="116.8" type="curve"/>
      <point x="170.3" y="116.8"/>
      <point x="364.2" y="116.8"/>
      <point x="170.3" y="116.8" type="curve"/>
    </contour>
    <contour>
      <point x="170.3" y="722"/>
      <point x="170.3" y="605.2"/>
      <point x="170.3" y="722" type="curve"/>
      <point x="105.667313" y="722"/>
      <point x="41.032687" y="722"/>
      <point x="-23.6" y="722" type="curve"/>
      <point x="-23.6" y="605.2"/>
      <point x="-23.6" y="722"/>
      <point x="-23.6" y="605.2" type="curve"/>
      <point x="170.3" y="605.2"/>
      <point x="-23.6" y="605.2"/>
      <point x="170.3" y="605.2" type="curve"/>
    </contour>
    <contour>
      <point x="170.3" y="116.8"/>
      <point x="170.3" y="0"/>
      <point x="170.3" y="116.8" type="curve"/>
      <point x="-23.6" y="116.8"/>
      <point x="170.3" y="116.8"/>
      <point x="-23.6" y="116.8" type="curve"/>
      <point x="-23.6" y="0"/>
      <point x="-23.6" y="116.8"/>
      <point x="-23.6" y="0" type="curve"/>
      <point x="41.032687" y="-7.91495991648e-15"/>
      <point x="105.667313" y="7.91495991648e-15"/>
      <point x="170.3" y="0" type="curve"/>
    </contour>
    <contour>
      <point x="566.36" y="663.6"/>
      <point x="689" y="663.6"/>
      <point x="566.36" y="663.6" type="curve"/>
      <point x="566.36" y="543.6"/>
      <point x="566.36" y="663.6"/>
      <point x="566.36" y="543.6" type="curve"/>
      <point x="689" y="543.6"/>
      <point x="566.36" y="543.6"/>
      <point x="689" y="543.6" type="curve"/>
      <point x="689" y="663.6"/>
      <point x="689" y="543.6"/>
      <point x="689" y="663.6" type="curve"/>
    </contour>
    <contour>
      <point x="176" y="314"/>
      <point x="176" y="431"/>
      <point x="176" y="314" type="curve"/>
      <point x="315" y="314"/>
      <point x="455" y="314"/>
      <point x="594" y="314" type="curve"/>
      <point x="594" y="431"/>
      <point x="594" y="314"/>
      <point x="594" y="431" type="curve"/>
      <point x="455" y="431"/>
      <point x="315" y="431"/>
      <point x="176" y="431" type="curve"/>
    </contour>
    <contour>
      <point x="250.6" y="0"/>
      <point x="90.0" y="7.86687121695e-15"/>
      <point x="250.6" y="0" type="curve"/>
      <point x="250.6" y="0"/>
      <point x="250.6" y="722"/>
      <point x="250.6" y="722" type="curve"/>
      <point x="90.0" y="722"/>
      <point x="250.6" y="722"/>
      <point x="90.0" y="722" type="curve"/>
      <point x="90" y="481.33574"/>
      <point x="90.0" y="240.66426"/>
      <point x="90.0" y="7.86687121695e-15" type="curve"/>
    </contour>
    <contour>
      <point x="156" y="605.2"/>
      <point x="156" y="722"/>
      <point x="156" y="605.2" type="curve"/>
      <point x="333.66489" y="605.2"/>
      <point x="511.33511" y="605.2"/>
      <point x="689" y="605.2" type="curve"/>
      <point x="689" y="722"/>
      <point x="689" y="605.2"/>
      <point x="689" y="722" type="curve"/>
      <point x="511.33511" y="722"/>
      <point x="333.66489" y="722"/>
      <point x="156" y="722" type="curve"/>
    </contour>
  </outline>
</glyph>
<glyph name="G" format="1">
  <advance width="964"/>
  <unicode hex="0047"/>
  <outline>
    <contour>
      <point x="799" y="646"/>
      <point x="921" y="646"/>
      <point x="799" y="646" type="curve"/>
      <point x="799" y="526"/>
      <point x="799" y="606"/>
      <point x="799" y="486" type="curve"/>
      <point x="921" y="486"/>
      <point x="799" y="486"/>
      <point x="921" y="486" type="curve"/>
      <point x="921" y="606"/>
      <point x="921" y="526"/>
      <point x="921" y="646" type="curve"/>
    </contour>
    <contour>
      <point x="900" y="374"/>
      <point x="900" y="257"/>
      <point x="900" y="374" type="curve"/>
      <point x="805" y="374"/>
      <point x="709" y="374"/>
      <point x="614" y="374" type="curve"/>
      <point x="614" y="257"/>
      <point x="614" y="374"/>
      <point x="614" y="257" type="curve"/>
      <point x="709" y="257"/>
      <point x="805" y="257"/>
      <point x="900" y="257" type="curve"/>
    </contour>
    <contour>
      <point x="944" y="79"/>
      <point x="798" y="79"/>
      <point x="944" y="79" type="curve"/>
      <point x="944" y="177"/>
      <point x="944" y="275"/>
      <point x="944" y="374" type="curve"/>
      <point x="798" y="374"/>
      <point x="944" y="374"/>
      <point x="798" y="374" type="curve"/>
      <point x="798" y="275"/>
      <point x="798" y="177"/>
      <point x="798" y="79" type="curve"/>
    </contour>
    <contour>
      <point x="921" y="646"/>
      <point x="841" y="546"/>
      <point x="921" y="646" type="curve"/>
      <point x="788" y="704"/>
      <point x="674" y="727"/>
      <point x="530" y="727" type="curve"/>
      <point x="245" y="727"/>
      <point x="37" y="621"/>
      <point x="37" y="359" type="curve"/>
      <point x="37" y="94"/>
      <point x="253" y="-5"/>
      <point x="544" y="-5" type="curve"/>
      <point x="699" y="-5"/>
      <point x="799" y="23"/>
      <point x="944" y="79" type="curve"/>
      <point x="863" y="166"/>
      <point x="944" y="79"/>
      <point x="863" y="166" type="curve"/>
      <point x="750" y="123"/>
      <point x="665" y="117"/>
      <point x="544" y="117" type="curve"/>
      <point x="344" y="117"/>
      <point x="198" y="188"/>
      <point x="198" y="371" type="curve"/>
      <point x="198" y="542"/>
      <point x="340" y="605"/>
      <point x="530" y="605" type="curve"/>
      <point x="644" y="605"/>
      <point x="735" y="592"/>
      <point x="841" y="546" type="curve"/>
    </contour>
  </outline>
</glyph>
<glyph name="H" format="1">
  <advance width="1069"/>
  <unicode hex="0048"/>
  <outline>
    <contour>
      <point x="863" y="605"/>
      <point x="863" y="722"/>
      <point x="863" y="605" type="curve"/>
      <point x="1057" y="605"/>
      <point x="863" y="605"/>
      <point x="1057" y="605" type="curve"/>
      <point x="1057" y="722"/>
      <point x="1057" y="605"/>
      <point x="1057" y="722" type="curve"/>
      <point x="992" y="722"/>
      <point x="928" y="722"/>
      <point x="863" y="722" type="curve"/>
    </contour>
    <contour>
      <point x="863" y="0"/>
      <point x="863" y="117"/>
      <point x="863" y="0" type="curve"/>
      <point x="928" y="0"/>
      <point x="992" y="0"/>
      <point x="1057" y="0" type="curve"/>
      <point x="1057" y="117"/>
      <point x="1057" y="0"/>
      <point x="1057" y="117" type="curve"/>
      <point x="863" y="117"/>
      <point x="1057" y="117"/>
      <point x="863" y="117" type="curve"/>
    </contour>
    <contour>
      <point x="863" y="117"/>
      <point x="863" y="0"/>
      <point x="863" y="117" type="curve"/>
      <point x="669" y="117"/>
      <point x="863" y="117"/>
      <point x="669" y="117" type="curve"/>
      <point x="669" y="0"/>
      <point x="669" y="117"/>
      <point x="669" y="0" type="curve"/>
      <point x="734" y="0"/>
      <point x="798" y="0"/>
      <point x="863" y="0" type="curve"/>
    </contour>
    <contour>
      <point x="863" y="722"/>
      <point x="863" y="605"/>
      <point x="863" y="722" type="curve"/>
      <point x="798" y="722"/>
      <point x="734" y="722"/>
      <point x="669" y="722" type="curve"/>
      <point x="669" y="605"/>
      <point x="669" y="722"/>
      <point x="669" y="605" type="curve"/>
      <point x="863" y="605"/>
      <point x="669" y="605"/>
      <point x="863" y="605" type="curve"/>
    </contour>
    <contour>
      <point x="205" y="605"/>
      <point x="205" y="722"/>
      <point x="205" y="605" type="curve"/>
      <point x="399" y="605"/>
      <point x="205" y="605"/>
      <point x="399" y="605" type="curve"/>
      <point x="399" y="722"/>
      <point x="399" y="605"/>
      <point x="399" y="722" type="curve"/>
      <point x="335" y="722"/>
      <point x="270" y="722"/>
      <point x="205" y="722" type="curve"/>
    </contour>
    <contour>
      <point x="205" y="722"/>
      <point x="205" y="605"/>
      <point x="205" y="722" type="curve"/>
      <point x="141" y="722"/>
      <point x="76" y="722"/>
      <point x="11" y="722" type="curve"/>
      <point x="11" y="605"/>
      <point x="11" y="722"/>
      <point x="11" y="605" type="curve"/>
      <point x="205" y="605"/>
      <point x="11" y="605"/>
      <point x="205" y="605" type="curve"/>
    </contour>
    <contour>
      <point x="205" y="0"/>
      <point x="205" y="117"/>
      <point x="205" y="0" type="curve"/>
      <point x="270" y="0"/>
      <point x="205" y="0"/>
      <point x="399" y="0" type="curve"/>
      <point x="399" y="117"/>
      <point x="399" y="0"/>
      <point x="399" y="117" type="curve"/>
      <point x="205" y="117"/>
      <point x="399" y="117"/>
      <point x="205" y="117" type="curve"/>
    </contour>
    <contour>
      <point x="205" y="117"/>
      <point x="205" y="0"/>
      <point x="205" y="117" type="curve"/>
      <point x="11" y="117"/>
      <point x="205" y="117"/>
      <point x="11" y="117" type="curve"/>
      <point x="11" y="0"/>
      <point x="11" y="117"/>
      <point x="11" y="0" type="curve"/>
      <point x="76" y="0"/>
      <point x="141" y="0"/>
      <point x="205" y="0" type="curve"/>
    </contour>
    <contour>
      <point x="286" y="0"/>
      <point x="125" y="0"/>
      <point x="286" y="0" type="curve"/>
      <point x="286" y="0"/>
      <point x="286" y="722"/>
      <point x="286" y="722" type="curve"/>
      <point x="125" y="722"/>
      <point x="286" y="722"/>
      <point x="125" y="722" type="curve"/>
      <point x="125" y="481"/>
      <point x="125" y="241"/>
      <point x="125" y="0" type="curve"/>
    </contour>
    <contour>
      <point x="859" y="421"/>
      <point x="859" y="304"/>
      <point x="859" y="421" type="curve"/>
      <point x="641" y="421"/>
      <point x="423" y="421"/>
      <point x="205" y="421" type="curve"/>
      <point x="205" y="304"/>
      <point x="205" y="421"/>
      <point x="205" y="304" type="curve"/>
      <point x="423" y="304"/>
      <point x="641" y="304"/>
      <point x="859" y="304" type="curve"/>
    </contour>
    <contour>
      <point x="942" y="50"/>
      <point x="782" y="50"/>
      <point x="942" y="50" type="curve"/>
      <point x="942" y="257"/>
      <point x="942" y="465"/>
      <point x="942" y="672" type="curve"/>
      <point x="782" y="672"/>
      <point x="942" y="672"/>
      <point x="782" y="672" type="curve"/>
      <point x="782" y="672"/>
      <point x="782" y="50"/>
      <point x="782" y="50" type="curve"/>
    </contour>
  </outline>
</glyph>
<glyph name="I" format="1">
  <advance width="424"/>
  <unicode hex="0049"/>
  <outline>
    <contour>
      <point x="216" y="722"/>
      <point x="216" y="605"/>
      <point x="216" y="722" type="curve"/>
      <point x="151" y="722"/>
      <point x="86" y="722"/>
      <point x="22" y="722" type="curve"/>
      <point x="22" y="605"/>
      <point x="22" y="722"/>
      <point x="22" y="605" type="curve"/>
      <point x="216" y="605"/>
      <point x="22" y="605"/>
      <point x="216" y="605" type="curve"/>
    </contour>
    <contour>
      <point x="216" y="605"/>
      <point x="216" y="722"/>
      <point x="216" y="605" type="curve"/>
      <point x="410" y="605"/>
      <point x="216" y="605"/>
      <point x="410" y="605" type="curve"/>
      <point x="410" y="722"/>
      <point x="410" y="605"/>
      <point x="410" y="722" type="curve"/>
      <point x="345" y="722"/>
      <point x="280" y="722"/>
      <point x="216" y="722" type="curve"/>
    </contour>
    <contour>
      <point x="216" y="0"/>
      <point x="216" y="117"/>
      <point x="216" y="0" type="curve"/>
      <point x="280" y="0"/>
      <point x="345" y="0"/>
      <point x="410" y="0" type="curve"/>
      <point x="410" y="117"/>
      <point x="410" y="0"/>
      <point x="410" y="117" type="curve"/>
      <point x="216" y="117"/>
      <point x="410" y="117"/>
      <point x="216" y="117" type="curve"/>
    </contour>
    <contour>
      <point x="216" y="117"/>
      <point x="216" y="0"/>
      <point x="216" y="117" type="curve"/>
      <point x="22" y="117"/>
      <point x="216" y="117"/>
      <point x="22" y="117" type="curve"/>
      <point x="22" y="0"/>
      <point x="22" y="117"/>
      <point x="22" y="0" type="curve"/>
      <point x="86" y="0"/>
      <point x="151" y="0"/>
      <point x="216" y="0" type="curve"/>
    </contour>
    <contour>
      <point x="295" y="0"/>
      <point x="134" y="0"/>
      <point x="295" y="0" type="curve"/>
      <point x="295" y="241"/>
      <point x="295" y="481"/>
      <point x="295" y="722" type="curve"/>
      <point x="134" y="722"/>
      <point x="295" y="722"/>
      <point x="134" y="722" type="curve"/>
      <point x="134" y="481"/>
      <point x="134" y="241"/>
      <point x="134" y="0" type="curve"/>
    </contour>
  </outline>
</glyph>
<glyph name="M" format="1">
  <advance width="1322"/>
  <unicode hex="004D"/>
  <outline>
    <contour>
      <point x="1101" y="0"/>
      <point x="1101" y="117"/>
      <point x="1101" y="0" type="curve"/>
      <point x="1165" y="0"/>
      <point x="1230" y="0"/>
      <point x="1294" y="0" type="curve"/>
      <point x="1294" y="117"/>
      <point x="1294" y="0"/>
      <point x="1294" y="117" type="curve"/>
      <point x="1101" y="117"/>
      <point x="1294" y="117"/>
      <point x="1101" y="117" type="curve"/>
    </contour>
    <contour>
      <point x="1101" y="117"/>
      <point x="1101" y="0"/>
      <point x="1101" y="117" type="curve"/>
      <point x="907" y="117"/>
      <point x="1101" y="117"/>
      <point x="907" y="117" type="curve"/>
      <point x="907" y="0"/>
      <point x="907" y="117"/>
      <point x="907" y="0" type="curve"/>
      <point x="971" y="0"/>
      <point x="1036" y="0"/>
      <point x="1101" y="0" type="curve"/>
    </contour>
    <contour>
      <point x="226" y="117"/>
      <point x="226" y="0"/>
      <point x="226" y="117" type="curve"/>
      <point x="32" y="117"/>
      <point x="226" y="117"/>
      <point x="32" y="117" type="curve"/>
      <point x="32" y="0"/>
      <point x="32" y="117"/>
      <point x="32" y="0" type="curve"/>
      <point x="97" y="0"/>
      <point x="161" y="0"/>
      <point x="226" y="0" type="curve"/>
    </contour>
    <contour>
      <point x="293" y="722"/>
      <point x="293" y="605"/>
      <point x="293" y="722" type="curve"/>
      <point x="228" y="722"/>
      <point x="163" y="722"/>
      <point x="99" y="722" type="curve"/>
      <point x="99" y="605"/>
      <point x="99" y="722"/>
      <point x="99" y="605" type="curve"/>
      <point x="293" y="605"/>
      <point x="99" y="605"/>
      <point x="293" y="605" type="curve"/>
    </contour>
    <contour>
      <point x="1032" y="605"/>
      <point x="1032" y="722"/>
      <point x="1032" y="605" type="curve"/>
      <point x="1226" y="605"/>
      <point x="1032" y="605"/>
      <point x="1226" y="605" type="curve"/>
      <point x="1226" y="722"/>
      <point x="1226" y="605"/>
      <point x="1226" y="722" type="curve"/>
      <point x="1161" y="722"/>
      <point x="1097" y="722"/>
      <point x="1032" y="722" type="curve"/>
    </contour>
    <contour>
      <point x="226" y="0"/>
      <point x="226" y="117"/>
      <point x="226" y="0" type="curve"/>
      <point x="290" y="0"/>
      <point x="226" y="0"/>
      <point x="420" y="0" type="curve"/>
      <point x="420" y="117"/>
      <point x="420" y="0"/>
      <point x="420" y="117" type="curve"/>
      <point x="226" y="117"/>
      <point x="420" y="117"/>
      <point x="226" y="117" type="curve"/>
    </contour>
    <contour>
      <point x="1191" y="0"/>
      <point x="1030" y="0"/>
      <point x="1191" y="0" type="curve"/>
      <point x="1164" y="241"/>
      <point x="1131" y="481"/>
      <point x="1104" y="722" type="curve"/>
      <point x="958" y="722"/>
      <point x="1104" y="722"/>
      <point x="958" y="722" type="curve"/>
      <point x="984" y="482"/>
      <point x="1004" y="240"/>
      <point x="1030" y="0" type="curve"/>
    </contour>
    <contour>
      <point x="295" y="0"/>
      <point x="134" y="0"/>
      <point x="295" y="0" type="curve"/>
      <point x="320" y="241"/>
      <point x="344" y="481"/>
      <point x="369" y="722" type="curve"/>
      <point x="211" y="722"/>
      <point x="369" y="722"/>
      <point x="211" y="722" type="curve"/>
      <point x="185" y="481"/>
      <point x="160" y="241"/>
      <point x="134" y="0" type="curve"/>
    </contour>
    <contour>
      <point x="738" y="0"/>
      <point x="578" y="0"/>
      <point x="738" y="0" type="curve"/>
      <point x="616" y="241"/>
      <point x="494" y="481"/>
      <point x="372" y="722" type="curve"/>
      <point x="213" y="722"/>
      <point x="372" y="722"/>
      <point x="213" y="722" type="curve"/>
      <point x="335" y="481"/>
      <point x="456" y="241"/>
      <point x="578" y="0" type="curve"/>
    </contour>
    <contour>
      <point x="750" y="0"/>
      <point x="588" y="0"/>
      <point x="750" y="0" type="curve"/>
      <point x="869" y="241"/>
      <point x="988" y="481"/>
      <point x="1108" y="722" type="curve"/>
      <point x="949" y="722"/>
      <point x="1108" y="722"/>
      <point x="949" y="722" type="curve"/>
      <point x="829" y="481"/>
      <point x="708" y="241"/>
      <point x="588" y="0" type="curve"/>
    </contour>
  </outline>
</glyph>
<glyph name="N" format="1">
  <advance width="1142"/>
  <unicode hex="004E"/>
  <outline>
    <contour>
      <point x="228" y="722"/>
      <point x="228" y="605"/>
      <point x="228" y="722" type="curve"/>
      <point x="164" y="722"/>
      <point x="99" y="722"/>
      <point x="34" y="722" type="curve"/>
      <point x="34" y="605"/>
      <point x="34" y="722"/>
      <point x="34" y="605" type="curve"/>
      <point x="228" y="605"/>
      <point x="34" y="605"/>
      <point x="228" y="605" type="curve"/>
    </contour>
    <contour>
      <point x="930" y="605"/>
      <point x="930" y="722"/>
      <point x="930" y="605" type="curve"/>
      <point x="1124" y="605"/>
      <point x="930" y="605"/>
      <point x="1124" y="605" type="curve"/>
      <point x="1124" y="722"/>
      <point x="1124" y="605"/>
      <point x="1124" y="722" type="curve"/>
      <point x="1059" y="722"/>
      <point x="995" y="722"/>
      <point x="930" y="722" type="curve"/>
    </contour>
    <contour>
      <point x="950" y="722"/>
      <point x="950" y="605"/>
      <point x="950" y="722" type="curve"/>
      <point x="886" y="722"/>
      <point x="821" y="722"/>
      <point x="756" y="722" type="curve"/>
      <point x="756" y="605"/>
      <point x="756" y="722"/>
      <point x="756" y="605" type="curve"/>
      <point x="950" y="605"/>
      <point x="756" y="605"/>
      <point x="950" y="605" type="curve"/>
    </contour>
    <contour>
      <point x="227" y="117"/>
      <point x="227" y="0"/>
      <point x="227" y="117" type="curve"/>
      <point x="33" y="117"/>
      <point x="227" y="117"/>
      <point x="33" y="117" type="curve"/>
      <point x="33" y="0"/>
      <point x="33" y="117"/>
      <point x="33" y="0" type="curve"/>
      <point x="98" y="0"/>
      <point x="162" y="0"/>
      <point x="227" y="0" type="curve"/>
    </contour>
    <contour>
      <point x="227" y="0"/>
      <point x="227" y="117"/>
      <point x="227" y="0" type="curve"/>
      <point x="292" y="0"/>
      <point x="227" y="0"/>
      <point x="421" y="0" type="curve"/>
      <point x="421" y="117"/>
      <point x="421" y="0"/>
      <point x="421" y="117" type="curve"/>
      <point x="227" y="117"/>
      <point x="421" y="117"/>
      <point x="227" y="117" type="curve"/>
    </contour>
    <contour>
      <point x="1024" y="0"/>
      <point x="827" y="0"/>
      <point x="1024" y="0" type="curve"/>
      <point x="792" y="241"/>
      <point x="561" y="481"/>
      <point x="329" y="722" type="curve"/>
      <point x="132" y="722"/>
      <point x="329" y="722"/>
      <point x="132" y="722" type="curve"/>
      <point x="363" y="481"/>
      <point x="595" y="241"/>
      <point x="827" y="0" type="curve"/>
    </contour>
    <contour>
      <point x="869" y="722"/>
      <point x="1029" y="722"/>
      <point x="869" y="722" type="curve"/>
      <point x="869" y="481"/>
      <point x="869" y="241"/>
      <point x="869" y="0" type="curve"/>
      <point x="1029" y="0"/>
      <point x="869" y="0"/>
      <point x="1029" y="0" type="curve"/>
      <point x="1029" y="241"/>
      <point x="1029" y="481"/>
      <point x="1029" y="722" type="curve"/>
    </contour>
    <contour>
      <point x="307" y="0"/>
      <point x="147" y="0"/>
      <point x="307" y="0" type="curve"/>
      <point x="307" y="241"/>
      <point x="307" y="481"/>
      <point x="307" y="722" type="curve"/>
      <point x="147" y="722"/>
      <point x="307" y="722"/>
      <point x="147" y="722" type="curve"/>
      <point x="147" y="481"/>
      <point x="147" y="241"/>
      <point x="147" y="0" type="curve"/>
    </contour>
  </outline>
</glyph>
<glyph name="S" format="1">
  <advance width="749"/>
  <unicode hex="0053"/>
  <outline>
    <contour>
      <point x="533" y="661"/>
      <point x="655" y="661"/>
      <point x="533" y="661" type="curve"/>
      <point x="533" y="541"/>
      <point x="533" y="628"/>
      <point x="533" y="508" type="curve"/>
      <point x="655" y="508"/>
      <point x="533" y="508"/>
      <point x="655" y="508" type="curve"/>
      <point x="655" y="628"/>
      <point x="655" y="541"/>
      <point x="655" y="661" type="curve"/>
    </contour>
    <contour>
      <point x="182" y="52"/>
      <point x="60" y="52"/>
      <point x="182" y="52" type="curve"/>
      <point x="182" y="172"/>
      <point x="182" y="96"/>
      <point x="182" y="216" type="curve"/>
      <point x="60" y="216"/>
      <point x="182" y="216"/>
      <point x="60" y="216" type="curve"/>
      <point x="60" y="96"/>
      <point x="60" y="172"/>
      <point x="60" y="52" type="curve"/>
    </contour>
    <contour>
      <point x="63" y="52"/>
      <point x="150" y="163"/>
      <point x="63" y="52" type="curve"/>
      <point x="161" y="12"/>
      <point x="239" y="-5"/>
      <point x="345" y="-5" type="curve"/>
      <point x="538" y="-5"/>
      <point x="712" y="28"/>
      <point x="712" y="195" type="curve"/>
      <point x="712" y="339"/>
      <point x="575" y="374"/>
      <point x="430" y="421" type="curve"/>
      <point x="335" y="451"/>
      <point x="226" y="465"/>
      <point x="226" y="538" type="curve"/>
      <point x="226" y="604"/>
      <point x="294" y="615"/>
      <point x="370" y="615" type="curve"/>
      <point x="449" y="615"/>
      <point x="509" y="597"/>
      <point x="582" y="568" type="curve"/>
      <point x="655" y="661"/>
      <point x="582" y="568"/>
      <point x="655" y="661" type="curve"/>
      <point x="559" y="700"/>
      <point x="482" y="727"/>
      <point x="377" y="727" type="curve"/>
      <point x="208" y="727"/>
      <point x="65" y="681"/>
      <point x="65" y="532" type="curve"/>
      <point x="65" y="395"/>
      <point x="198" y="365"/>
      <point x="335" y="321" type="curve"/>
      <point x="437" y="289"/>
      <point x="551" y="273"/>
      <point x="551" y="195" type="curve"/>
      <point x="551" y="132"/>
      <point x="457" y="117"/>
      <point x="360" y="117" type="curve"/>
      <point x="281" y="117"/>
      <point x="223" y="134"/>
      <point x="150" y="163" type="curve"/>
    </contour>
  </outline>
</glyph>
<glyph name="V" format="1">
  <advance width="1131"/>
  <unicode hex="0056"/>
  <outline>
    <contour>
      <point x="893" y="722"/>
      <point x="893" y="605"/>
      <point x="893" y="722" type="curve"/>
      <point x="816" y="722"/>
      <point x="739" y="722"/>
      <point x="662" y="722" type="curve"/>
      <point x="662" y="605"/>
      <point x="662" y="722"/>
      <point x="662" y="605" type="curve"/>
      <point x="893" y="605"/>
      <point x="662" y="605"/>
      <point x="893" y="605" type="curve"/>
    </contour>
    <contour>
      <point x="228" y="722"/>
      <point x="228" y="605"/>
      <point x="228" y="722" type="curve"/>
      <point x="163" y="722"/>
      <point x="99" y="722"/>
      <point x="34" y="722" type="curve"/>
      <point x="34" y="605"/>
      <point x="34" y="722"/>
      <point x="34" y="605" type="curve"/>
      <point x="228" y="605"/>
      <point x="34" y="605"/>
      <point x="228" y="605" type="curve"/>
    </contour>
    <contour>
      <point x="913" y="605"/>
      <point x="913" y="722"/>
      <point x="913" y="605" type="curve"/>
      <point x="1107" y="605"/>
      <point x="913" y="605"/>
      <point x="1107" y="605" type="curve"/>
      <point x="1107" y="722"/>
      <point x="1107" y="605"/>
      <point x="1107" y="722" type="curve"/>
      <point x="1042" y="722"/>
      <point x="977" y="722"/>
      <point x="913" y="722" type="curve"/>
    </contour>
    <contour>
      <point x="248" y="605"/>
      <point x="248" y="722"/>
      <point x="248" y="605" type="curve"/>
      <point x="478" y="605"/>
      <point x="248" y="605"/>
      <point x="478" y="605" type="curve"/>
      <point x="478" y="722"/>
      <point x="478" y="605"/>
      <point x="478" y="722" type="curve"/>
      <point x="402" y="722"/>
      <point x="325" y="722"/>
      <point x="248" y="722" type="curve"/>
    </contour>
    <contour>
      <point x="857" y="722"/>
      <point x="1020" y="722"/>
      <point x="857" y="722" type="curve"/>
      <point x="736" y="481"/>
      <point x="616" y="241"/>
      <point x="496" y="0" type="curve"/>
      <point x="659" y="0"/>
      <point x="496" y="0"/>
      <point x="659" y="0" type="curve"/>
      <point x="779" y="241"/>
      <point x="899" y="481"/>
      <point x="1020" y="722" type="curve"/>
    </contour>
    <contour>
      <point x="121" y="722"/>
      <point x="285" y="722"/>
      <point x="121" y="722" type="curve"/>
      <point x="243" y="481"/>
      <point x="366" y="241"/>
      <point x="488" y="0" type="curve"/>
      <point x="651" y="0"/>
      <point x="488" y="0"/>
      <point x="651" y="0" type="curve"/>
      <point x="529" y="241"/>
      <point x="407" y="481"/>
      <point x="285" y="722" type="curve"/>
    </contour>
  </outline>
</glyph>
<glyph name="W" format="1">
  <advance width="1363"/>
  <unicode hex="0057"/>
  <outline>
    <contour>
      <point x="225" y="605"/>
      <point x="225" y="722"/>
      <point x="225" y="605" type="curve"/>
      <point x="419" y="605"/>
      <point x="225" y="605"/>
      <point x="419" y="605" type="curve"/>
      <point x="419" y="722"/>
      <point x="419" y="605"/>
      <point x="419" y="722" type="curve"/>
      <point x="354" y="722"/>
      <point x="289" y="722"/>
      <point x="225" y="722" type="curve"/>
    </contour>
    <contour>
      <point x="225" y="722"/>
      <point x="225" y="605"/>
      <point x="225" y="722" type="curve"/>
      <point x="160" y="722"/>
      <point x="95" y="722"/>
      <point x="31" y="722" type="curve"/>
      <point x="31" y="605"/>
      <point x="31" y="722"/>
      <point x="31" y="605" type="curve"/>
      <point x="225" y="605"/>
      <point x="31" y="605"/>
      <point x="225" y="605" type="curve"/>
    </contour>
    <contour>
      <point x="1141" y="722"/>
      <point x="1141" y="605"/>
      <point x="1141" y="722" type="curve"/>
      <point x="1077" y="722"/>
      <point x="1012" y="722"/>
      <point x="948" y="722" type="curve"/>
      <point x="948" y="605"/>
      <point x="948" y="722"/>
      <point x="948" y="605" type="curve"/>
      <point x="1141" y="605"/>
      <point x="948" y="605"/>
      <point x="1141" y="605" type="curve"/>
    </contour>
    <contour>
      <point x="1141" y="605"/>
      <point x="1141" y="722"/>
      <point x="1141" y="605" type="curve"/>
      <point x="1335" y="605"/>
      <point x="1141" y="605"/>
      <point x="1335" y="605" type="curve"/>
      <point x="1335" y="722"/>
      <point x="1335" y="605"/>
      <point x="1335" y="722" type="curve"/>
      <point x="1271" y="722"/>
      <point x="1206" y="722"/>
      <point x="1141" y="722" type="curve"/>
    </contour>
    <contour>
      <point x="521" y="0"/>
      <point x="351" y="0"/>
      <point x="506" y="0" type="curve"/>
      <point x="592" y="241"/>
      <point x="674" y="481"/>
      <point x="761" y="722" type="curve"/>
      <point x="601" y="722"/>
      <point x="766" y="722"/>
      <point x="606" y="722" type="curve"/>
      <point x="526" y="480"/>
      <point x="447" y="241"/>
      <point x="366" y="0" type="curve"/>
    </contour>
    <contour>
      <point x="616" y="722"/>
      <point x="784" y="722"/>
      <point x="625" y="722" type="curve"/>
      <point x="703" y="481"/>
      <point x="772" y="241"/>
      <point x="850" y="0" type="curve"/>
      <point x="1005" y="0"/>
      <point x="835" y="0"/>
      <point x="990" y="0" type="curve"/>
      <point x="920" y="241"/>
      <point x="851" y="480"/>
      <point x="775" y="722" type="curve"/>
    </contour>
    <contour>
      <point x="108" y="722"/>
      <point x="269" y="722"/>
      <point x="108" y="722" type="curve"/>
      <point x="186" y="481"/>
      <point x="265" y="241"/>
      <point x="343" y="0" type="curve"/>
      <point x="498" y="0"/>
      <point x="334" y="0"/>
      <point x="489" y="0" type="curve"/>
      <point x="413" y="241"/>
      <point x="345" y="481"/>
      <point x="269" y="722" type="curve"/>
    </contour>
    <contour>
      <point x="1097" y="722"/>
      <point x="1258" y="722"/>
      <point x="1097" y="722" type="curve"/>
      <point x="1020" y="481"/>
      <point x="949" y="241"/>
      <point x="873" y="0" type="curve"/>
      <point x="1028" y="0"/>
      <point x="858" y="0"/>
      <point x="1013" y="0" type="curve"/>
      <point x="1095" y="241"/>
      <point x="1176" y="481"/>
      <point x="1258" y="722" type="curve"/>
    </contour>
  </outline>
</glyph>
<glyph name="Y" format="1">
  <advance width="894"/>
  <unicode hex="0059"/>
  <outline>
    <contour>
      <point x="442" y="116.8"/>
      <point x="442" y="0"/>
      <point x="442" y="116.8" type="curve"/>
      <point x="248.1" y="116.8"/>
      <point x="442" y="116.8"/>
      <point x="248.1" y="116.8" type="curve"/>
      <point x="248.1" y="0"/>
      <point x="248.1" y="116.8"/>
      <point x="248.1" y="0" type="curve"/>
      <point x="312.732687" y="-7.91495991648e-15"/>
      <point x="377.367313" y="7.91495991648e-15"/>
      <point x="442" y="0" type="curve"/>
    </contour>
    <contour>
      <point x="442" y="0"/>
      <point x="442" y="116.8"/>
      <point x="442" y="0" type="curve"/>
      <point x="506.632687" y="0"/>
      <point x="571.267313" y="0"/>
      <point x="635.9" y="0" type="curve"/>
      <point x="635.9" y="116.8"/>
      <point x="635.9" y="0"/>
      <point x="635.9" y="116.8" type="curve"/>
      <point x="442" y="116.8"/>
      <point x="635.9" y="116.8"/>
      <point x="442" y="116.8" type="curve"/>
    </contour>
    <contour>
      <point x="686" y="722"/>
      <point x="686" y="605"/>
      <point x="686" y="722" type="curve"/>
      <point x="621" y="722"/>
      <point x="557" y="722"/>
      <point x="492" y="722" type="curve"/>
      <point x="492" y="605"/>
      <point x="492" y="722"/>
      <point x="492" y="605" type="curve"/>
      <point x="686" y="605"/>
      <point x="492" y="605"/>
      <point x="686" y="605" type="curve"/>
    </contour>
    <contour>
      <point x="212" y="722"/>
      <point x="212" y="605"/>
      <point x="212" y="722" type="curve"/>
      <point x="147" y="722"/>
      <point x="83" y="722"/>
      <point x="18" y="722" type="curve"/>
      <point x="18" y="605"/>
      <point x="18" y="722"/>
      <point x="18" y="605" type="curve"/>
      <point x="212" y="605"/>
      <point x="18" y="605"/>
      <point x="212" y="605" type="curve"/>
    </contour>
    <contour>
      <point x="212" y="605"/>
      <point x="212" y="722"/>
      <point x="212" y="605" type="curve"/>
      <point x="406" y="605"/>
      <point x="212" y="605"/>
      <point x="406" y="605" type="curve"/>
      <point x="406" y="722"/>
      <point x="406" y="605"/>
      <point x="406" y="722" type="curve"/>
      <point x="341" y="722"/>
      <point x="277" y="722"/>
      <point x="212" y="722" type="curve"/>
    </contour>
    <contour>
      <point x="686" y="605"/>
      <point x="686" y="722"/>
      <point x="686" y="605" type="curve"/>
      <point x="880" y="605"/>
      <point x="686" y="605"/>
      <point x="880" y="605" type="curve"/>
      <point x="880" y="722"/>
      <point x="880" y="605"/>
      <point x="880" y="722" type="curve"/>
      <point x="815" y="722"/>
      <point x="750" y="722"/>
      <point x="686" y="722" type="curve"/>
    </contour>
    <contour>
      <point x="55.2" y="722"/>
      <point x="217.8" y="722"/>
      <point x="55.2" y="722" type="curve"/>
      <point x="157.032315" y="593.66795"/>
      <point x="258.867685" y="465.33205"/>
      <point x="360.7" y="337" type="curve"/>
      <point x="523.3" y="337"/>
      <point x="360.7" y="337"/>
      <point x="523.3" y="337" type="curve"/>
      <point x="421.467685" y="465.33205"/>
      <point x="319.632315" y="593.66795"/>
      <point x="217.8" y="722" type="curve"/>
    </contour>
    <contour>
      <point x="683" y="722"/>
      <point x="846" y="722"/>
      <point x="683" y="722" type="curve"/>
      <point x="576" y="594"/>
      <point x="468" y="465"/>
      <point x="361" y="337" type="curve"/>
      <point x="523" y="337"/>
      <point x="361" y="337"/>
      <point x="523" y="337" type="curve"/>
      <point x="631" y="465"/>
      <point x="738" y="594"/>
      <point x="846" y="722" type="curve"/>
    </contour>
    <contour>
      <point x="529.6" y="0"/>
      <point x="354.4" y="8.58204132759e-15"/>
      <point x="529.6" y="0" type="curve"/>
      <point x="529.6" y="115.33218"/>
      <point x="529.6" y="230.66782"/>
      <point x="529.6" y="346" type="curve"/>
      <point x="354.4" y="346"/>
      <point x="529.6" y="346"/>
      <point x="354.4" y="346" type="curve"/>
      <point x="354.4" y="230.66782"/>
      <point x="354.4" y="115.33218"/>
      <point x="354.4" y="8.58204132759e-15" type="curve"/>
    </contour>
  </outline>
</glyph>
<glyph name="bracketleft" format="1">
  <advance width="350"/>
  <unicode hex="005B"/>
  <outline>
    <contour>
      <point x="316" y="769"/>
      <point x="316" y="641"/>
      <point x="316" y="769" type="curve"/>
      <point x="249" y="769"/>
      <point x="183" y="769"/>
      <point x="117" y="769" type="curve"/>
      <point x="96" y="769"/>
      <point x="65" y="769"/>
      <point x="46" y="769" type="curve"/>
      <point x="46" y="753"/>
      <point x="46" y="727"/>
      <point x="46" y="710" type="curve"/>
      <point x="46" y="455"/>
      <point x="46" y="200"/>
      <point x="46" y="-55" type="curve"/>
      <point x="46" y="-72"/>
      <point x="46" y="-96"/>
      <point x="46" y="-112" type="curve"/>
      <point x="64" y="-112"/>
      <point x="94" y="-112"/>
      <point x="116" y="-112" type="curve"/>
      <point x="182" y="-112"/>
      <point x="249" y="-112"/>
      <point x="316" y="-112" type="curve"/>
      <point x="316" y="17"/>
      <point x="316" y="-112"/>
      <point x="316" y="17" type="curve"/>
      <point x="249" y="17"/>
      <point x="182" y="17"/>
      <point x="116" y="17" type="curve"/>
      <point x="206" y="17"/>
      <point x="116" y="17"/>
      <point x="206" y="17" type="curve"/>
      <point x="206" y="-55"/>
      <point x="206" y="17"/>
      <point x="206" y="-55" type="curve"/>
      <point x="206" y="200"/>
      <point x="206" y="455"/>
      <point x="206" y="710" type="curve"/>
      <point x="206" y="641"/>
      <point x="206" y="710"/>
      <point x="206" y="641" type="curve"/>
      <point x="117" y="641"/>
      <point x="206" y="641"/>
      <point x="117" y="641" type="curve"/>
      <point x="183" y="641"/>
      <point x="249" y="641"/>
      <point x="316" y="641" type="curve"/>
    </contour>
  </outline>
</glyph>
<glyph name="backslash" format="1">
  <advance width="759"/>
  <unicode hex="005C"/>
  <outline>
    <contour>
      <point x="718" y="-68"/>
      <point x="550" y="-68"/>
      <point x="718" y="-68" type="curve"/>
      <point x="548" y="236"/>
      <point x="378" y="540"/>
      <point x="208" y="844" type="curve"/>
      <point x="40" y="844"/>
      <point x="208" y="844"/>
      <point x="40" y="844" type="curve"/>
      <point x="210" y="540"/>
      <point x="380" y="236"/>
      <point x="550" y="-68" type="curve"/>
    </contour>
  </outline>
</glyph>
<glyph name="bracketright" format="1">
  <advance width="368"/>
  <unicode hex="005D"/>
  <outline>
    <contour>
      <point x="56" y="641"/>
      <point x="56" y="769"/>
      <point x="56" y="641" type="curve"/>
      <point x="122" y="641"/>
      <point x="188" y="641"/>
      <point x="255" y="641" type="curve"/>
      <point x="238" y="650"/>
      <point x="220" y="658"/>
      <point x="204" y="668" type="curve"/>
      <point x="188" y="679"/>
      <point x="180" y="698"/>
      <point x="165" y="710" type="curve"/>
      <point x="165" y="455"/>
      <point x="165" y="200"/>
      <point x="165" y="-55" type="curve"/>
      <point x="181" y="-43"/>
      <point x="192" y="-25"/>
      <point x="208" y="-14" type="curve"/>
      <point x="224" y="-3"/>
      <point x="240" y="6"/>
      <point x="256" y="17" type="curve"/>
      <point x="189" y="17"/>
      <point x="122" y="17"/>
      <point x="56" y="17" type="curve"/>
      <point x="56" y="-112"/>
      <point x="56" y="17"/>
      <point x="56" y="-112" type="curve"/>
      <point x="122" y="-112"/>
      <point x="189" y="-112"/>
      <point x="256" y="-112" type="curve"/>
      <point x="326" y="-112"/>
      <point x="256" y="-112"/>
      <point x="326" y="-112" type="curve"/>
      <point x="326" y="-55"/>
      <point x="326" y="-112"/>
      <point x="326" y="-55" type="curve"/>
      <point x="326" y="200"/>
      <point x="326" y="455"/>
      <point x="326" y="710" type="curve"/>
      <point x="326" y="769"/>
      <point x="326" y="710"/>
      <point x="326" y="769" type="curve"/>
      <point x="255" y="769"/>
      <point x="326" y="769"/>
      <point x="255" y="769" type="curve"/>
      <point x="188" y="769"/>
      <point x="122" y="769"/>
      <point x="56" y="769" type="curve"/>
    </contour>
  </outline>
</glyph>
<glyph name="a" format="1">
  <advance width="760"/>
  <unicode hex="0061"/>
  <outline>
    <contour>
      <point x="57" y="461"/>
      <point x="180" y="461"/>
      <point x="57" y="461" type="curve"/>
      <point x="57" y="341"/>
      <point x="57" y="454"/>
      <point x="57" y="334" type="curve"/>
      <point x="180" y="334"/>
      <point x="57" y="334"/>
      <point x="180" y="334" type="curve"/>
      <point x="180" y="454"/>
      <point x="180" y="341"/>
      <point x="180" y="461" type="curve"/>
    </contour>
    <contour>
      <point x="639" y="0"/>
      <point x="479" y="0"/>
      <point x="639" y="0" type="curve"/>
      <point x="639" y="123"/>
      <point x="639" y="246"/>
      <point x="639" y="369" type="curve"/>
      <point x="639" y="517"/>
      <point x="508" y="538"/>
      <point x="348" y="538" type="curve"/>
      <point x="225" y="538"/>
      <point x="133" y="508"/>
      <point x="57" y="461" type="curve"/>
      <point x="117" y="362"/>
      <point x="57" y="461"/>
      <point x="117" y="362" type="curve"/>
      <point x="172" y="394"/>
      <point x="237" y="421"/>
      <point x="326" y="421" type="curve"/>
      <point x="405" y="421"/>
      <point x="479" y="408"/>
      <point x="479" y="334" type="curve"/>
      <point x="479" y="222"/>
      <point x="479" y="111"/>
      <point x="479" y="0" type="curve"/>
    </contour>
    <contour>
      <point x="562" y="0"/>
      <point x="562" y="117"/>
      <point x="562" y="0" type="curve"/>
      <point x="622" y="0"/>
      <point x="682" y="0"/>
      <point x="743" y="0" type="curve"/>
      <point x="743" y="117"/>
      <point x="743" y="0"/>
      <point x="743" y="117" type="curve"/>
      <point x="562" y="117"/>
      <point x="743" y="117"/>
      <point x="562" y="117" type="curve"/>
    </contour>
    <contour>
      <point x="555" y="349"/>
      <point x="562" y="250"/>
      <point x="555" y="349" type="curve"/>
      <point x="453" y="340"/>
      <point x="392" y="341"/>
      <point x="290" y="332" type="curve"/>
      <point x="141" y="319"/>
      <point x="22" y="302"/>
      <point x="22" y="169" type="curve"/>
      <point x="22" y="39"/>
      <point x="125" y="-5"/>
      <point x="269" y="-5" type="curve"/>
      <point x="414" y="-5"/>
      <point x="489" y="50"/>
      <point x="599" y="147" type="curve"/>
      <point x="518" y="211"/>
      <point x="599" y="147"/>
      <point x="518" y="211" type="curve"/>
      <point x="444" y="150"/>
      <point x="394" y="112"/>
      <point x="298" y="112" type="curve"/>
      <point x="233" y="112"/>
      <point x="183" y="116"/>
      <point x="183" y="173" type="curve"/>
      <point x="183" y="221"/>
      <point x="230" y="223"/>
      <point x="283" y="227" type="curve"/>
      <point x="391" y="236"/>
      <point x="454" y="240"/>
      <point x="562" y="250" type="curve"/>
    </contour>
  </outline>
</glyph>
<glyph name="b" format="1">
  <advance width="879"/>
  <unicode hex="0062"/>
  <outline>
    <contour>
      <point x="225" y="799"/>
      <point x="225" y="683"/>
      <point x="225" y="799" type="curve"/>
      <point x="161" y="799"/>
      <point x="96" y="800"/>
      <point x="31" y="800" type="curve"/>
      <point x="31" y="683"/>
      <point x="31" y="800"/>
      <point x="31" y="683" type="curve"/>
      <point x="225" y="683"/>
      <point x="31" y="683"/>
      <point x="225" y="683" type="curve"/>
    </contour>
    <contour>
      <point x="267" y="344"/>
      <point x="183" y="432"/>
      <point x="267" y="344" type="curve"/>
      <point x="317" y="384"/>
      <point x="403" y="416"/>
      <point x="497" y="416" type="curve"/>
      <point x="605" y="416"/>
      <point x="688" y="363"/>
      <point x="688" y="261" type="curve"/>
      <point x="691" y="163"/>
      <point x="606" y="116"/>
      <point x="498" y="117" type="curve"/>
      <point x="415" y="117"/>
      <point x="348" y="123"/>
      <point x="278" y="169" type="curve"/>
      <point x="173" y="99"/>
      <point x="278" y="169"/>
      <point x="173" y="99" type="curve"/>
      <point x="278.794556574" y="23.7231039764"/>
      <point x="375.0" y="-5.0"/>
      <point x="503" y="-5" type="curve"/>
      <point x="697.0" y="-5.0"/>
      <point x="850.018726006" y="85.666770902"/>
      <point x="849" y="267" type="curve"/>
      <point x="849.0" y="446.969924812"/>
      <point x="698.0" y="539.0"/>
      <point x="508" y="539" type="curve"/>
      <point x="377.0" y="539.0"/>
      <point x="256.677306915" y="490.327867974"/>
      <point x="183" y="432" type="curve"/>
    </contour>
    <contour>
      <point x="303" y="0"/>
      <point x="142" y="0"/>
      <point x="303" y="0" type="curve"/>
      <point x="303" y="267"/>
      <point x="303" y="533"/>
      <point x="303" y="800" type="curve"/>
      <point x="142" y="800"/>
      <point x="303" y="800"/>
      <point x="142" y="800" type="curve"/>
      <point x="142" y="533"/>
      <point x="142" y="267"/>
      <point x="142" y="0" type="curve"/>
    </contour>
    <contour>
      <point x="225" y="116"/>
      <point x="225" y="-1"/>
      <point x="225" y="116" type="curve"/>
      <point x="31" y="117"/>
      <point x="225" y="116"/>
      <point x="31" y="117" type="curve"/>
      <point x="31" y="0"/>
      <point x="31" y="117"/>
      <point x="31" y="0" type="curve"/>
      <point x="96" y="0"/>
      <point x="161" y="-1"/>
      <point x="225" y="-1" type="curve"/>
    </contour>
  </outline>
</glyph>
<glyph name="d" format="1">
  <advance width="899"/>
  <unicode hex="0064"/>
  <outline>
    <contour>
      <point x="683" y="799"/>
      <point x="683" y="683"/>
      <point x="683" y="799" type="curve"/>
      <point x="618" y="799"/>
      <point x="553" y="800"/>
      <point x="489" y="800" type="curve"/>
      <point x="489" y="683"/>
      <point x="489" y="800"/>
      <point x="489" y="683" type="curve"/>
      <point x="683" y="683"/>
      <point x="489" y="683"/>
      <point x="683" y="683" type="curve"/>
    </contour>
    <contour>
      <point x="684" y="-1"/>
      <point x="684" y="116"/>
      <point x="684" y="-1" type="curve"/>
      <point x="749" y="-1"/>
      <point x="813" y="0"/>
      <point x="878" y="0" type="curve"/>
      <point x="878" y="117"/>
      <point x="878" y="0"/>
      <point x="878" y="117" type="curve"/>
      <point x="684" y="116"/>
      <point x="878" y="117"/>
      <point x="684" y="116" type="curve"/>
    </contour>
    <contour>
      <point x="710" y="433"/>
      <point x="635" y="362"/>
      <point x="712" y="430" type="curve"/>
      <point x="664" y="498"/>
      <point x="537" y="538"/>
      <point x="429" y="538" type="curve"/>
      <point x="219" y="538"/>
      <point x="50" y="454"/>
      <point x="50" y="262" type="curve"/>
      <point x="50" y="70"/>
      <point x="226" y="-5"/>
      <point x="439" y="-5" type="curve"/>
      <point x="569" y="-5"/>
      <point x="649" y="40"/>
      <point x="709" y="131" type="curve"/>
      <point x="633" y="193"/>
      <point x="709" y="131"/>
      <point x="633" y="193" type="curve"/>
      <point x="574" y="131"/>
      <point x="511" y="112"/>
      <point x="428" y="112" type="curve"/>
      <point x="308" y="112"/>
      <point x="210" y="157"/>
      <point x="210" y="268" type="curve"/>
      <point x="210" y="379"/>
      <point x="312" y="421"/>
      <point x="433" y="421" type="curve"/>
      <point x="510" y="421"/>
      <point x="572" y="408"/>
      <point x="633" y="364" type="curve"/>
    </contour>
    <contour>
      <point x="767" y="0"/>
      <point x="599" y="0"/>
      <point x="767" y="0" type="curve"/>
      <point x="767" y="267"/>
      <point x="767" y="533"/>
      <point x="767" y="800" type="curve"/>
      <point x="599" y="800"/>
      <point x="767" y="800"/>
      <point x="599" y="800" type="curve"/>
      <point x="599" y="533"/>
      <point x="599" y="267"/>
      <point x="599" y="0" type="curve"/>
    </contour>
  </outline>
</glyph>
<glyph name="f" format="1">
  <advance width="674"/>
  <unicode hex="0066"/>
  <outline>
    <contour>
      <point x="520" y="764"/>
      <point x="642" y="764"/>
      <point x="520" y="764" type="curve"/>
      <point x="520" y="619"/>
      <point x="520" y="764"/>
      <point x="520" y="619" type="curve"/>
      <point x="642" y="619"/>
      <point x="520" y="619"/>
      <point x="642" y="619" type="curve"/>
      <point x="642" y="764"/>
      <point x="642" y="619"/>
      <point x="642" y="764" type="curve"/>
    </contour>
    <contour>
      <point x="298" y="-1"/>
      <point x="298" y="116"/>
      <point x="298" y="-1" type="curve"/>
      <point x="363" y="-1"/>
      <point x="427" y="0"/>
      <point x="492" y="0" type="curve"/>
      <point x="492" y="117"/>
      <point x="492" y="0"/>
      <point x="492" y="117" type="curve"/>
      <point x="298" y="116"/>
      <point x="492" y="117"/>
      <point x="298" y="116" type="curve"/>
    </contour>
    <contour>
      <point x="298" y="116"/>
      <point x="298" y="-1"/>
      <point x="298" y="116" type="curve"/>
      <point x="104" y="117"/>
      <point x="298" y="116"/>
      <point x="104" y="117" type="curve"/>
      <point x="104" y="0"/>
      <point x="104" y="117"/>
      <point x="104" y="0" type="curve"/>
      <point x="169" y="0"/>
      <point x="234" y="-1"/>
      <point x="298" y="-1" type="curve"/>
    </contour>
    <contour>
      <point x="58" y="427"/>
      <point x="58" y="544"/>
      <point x="58" y="427" type="curve"/>
      <point x="58" y="427"/>
      <point x="605" y="427"/>
      <point x="605" y="427" type="curve"/>
      <point x="605" y="544"/>
      <point x="605" y="427"/>
      <point x="605" y="544" type="curve"/>
      <point x="605" y="544"/>
      <point x="58" y="544"/>
      <point x="58" y="544" type="curve"/>
    </contour>
    <contour>
      <point x="379" y="0"/>
      <point x="218" y="0"/>
      <point x="379" y="0" type="curve"/>
      <point x="379" y="0"/>
      <point x="379" y="602"/>
      <point x="379" y="602" type="curve"/>
      <point x="378" y="657"/>
      <point x="418" y="688"/>
      <point x="476" y="688" type="curve"/>
      <point x="510" y="688"/>
      <point x="545" y="682"/>
      <point x="577" y="670" type="curve"/>
      <point x="642" y="764"/>
      <point x="577" y="670"/>
      <point x="642" y="764" type="curve"/>
      <point x="589" y="784"/>
      <point x="533" y="800"/>
      <point x="476" y="800" type="curve"/>
      <point x="328" y="800"/>
      <point x="216" y="737"/>
      <point x="218" y="602" type="curve"/>
      <point x="218" y="602"/>
      <point x="218" y="0"/>
      <point x="218" y="0" type="curve"/>
    </contour>
  </outline>
</glyph>
<glyph name="g" format="1">
  <advance width="769"/>
  <unicode hex="0067"/>
  <outline>
    <contour>
      <point x="610" y="382"/>
      <point x="522" y="476"/>
      <point x="610" y="382" type="curve"/>
      <point x="666" y="402"/>
      <point x="724" y="416"/>
      <point x="760" y="433" type="curve"/>
      <point x="701" y="546"/>
      <point x="760" y="433"/>
      <point x="701" y="546" type="curve"/>
      <point x="640" y="525"/>
      <point x="582" y="498"/>
      <point x="522" y="476" type="curve"/>
    </contour>
    <contour>
      <point x="241" y="336"/>
      <point x="80" y="330"/>
      <point x="241" y="336" type="curve"/>
      <point x="241" y="402"/>
      <point x="311" y="422"/>
      <point x="389" y="422" type="curve"/>
      <point x="466" y="422"/>
      <point x="531" y="400"/>
      <point x="531" y="334" type="curve"/>
      <point x="531" y="272"/>
      <point x="466" y="255"/>
      <point x="392" y="255" type="curve"/>
      <point x="314" y="255"/>
      <point x="241" y="268"/>
      <point x="241" y="336" type="curve"/>
      <point x="80" y="330"/>
      <point x="241" y="336"/>
      <point x="80" y="330" type="curve"/>
      <point x="80" y="189"/>
      <point x="218" y="138"/>
      <point x="378" y="138" type="curve"/>
      <point x="547" y="138"/>
      <point x="692" y="191"/>
      <point x="692" y="339" type="curve"/>
      <point x="692" y="484"/>
      <point x="553" y="539"/>
      <point x="389" y="539" type="curve"/>
      <point x="221" y="539"/>
      <point x="80" y="479"/>
      <point x="80" y="330" type="curve"/>
    </contour>
    <contour>
      <point x="221" y="249"/>
      <point x="294" y="179"/>
      <point x="221" y="249" type="curve"/>
      <point x="147" y="223"/>
      <point x="85" y="189"/>
      <point x="85" y="114" type="curve"/>
      <point x="85" y="-13"/>
      <point x="224" y="-25"/>
      <point x="368" y="-34" type="curve"/>
      <point x="483" y="-40"/>
      <point x="611" y="-25"/>
      <point x="611" y="-115" type="curve"/>
      <point x="611" y="-190"/>
      <point x="496" y="-187"/>
      <point x="386" y="-187" type="curve"/>
      <point x="284" y="-187"/>
      <point x="183" y="-181"/>
      <point x="183" y="-99" type="curve"/>
      <point x="183" y="-36"/>
      <point x="237" y="-12"/>
      <point x="296" y="4" type="curve"/>
      <point x="216" y="74"/>
      <point x="296" y="4"/>
      <point x="216" y="74" type="curve"/>
      <point x="112" y="47"/>
      <point x="23" y="2"/>
      <point x="23" y="-105" type="curve"/>
      <point x="23" y="-269"/>
      <point x="192" y="-304"/>
      <point x="378" y="-304" type="curve"/>
      <point x="576" y="-304"/>
      <point x="761" y="-278"/>
      <point x="757" y="-104" type="curve"/>
      <point x="757" y="65"/>
      <point x="579" y="68"/>
      <point x="397" y="77" type="curve"/>
      <point x="325" y="81"/>
      <point x="246" y="80"/>
      <point x="246" y="125" type="curve"/>
      <point x="246" y="154"/>
      <point x="267" y="169"/>
      <point x="294" y="179" type="curve"/>
    </contour>
  </outline>
</glyph>
<glyph name="i" format="1">
  <advance width="409"/>
  <unicode hex="0069"/>
  <outline>
    <contour>
      <point x="209" y="117"/>
      <point x="209" y="0"/>
      <point x="209" y="117" type="curve"/>
      <point x="15" y="117"/>
      <point x="209" y="117"/>
      <point x="15" y="117" type="curve"/>
      <point x="15" y="0"/>
      <point x="15" y="117"/>
      <point x="15" y="0" type="curve"/>
      <point x="80" y="0"/>
      <point x="145" y="0"/>
      <point x="209" y="0" type="curve"/>
    </contour>
    <contour>
      <point x="209" y="0"/>
      <point x="209" y="117"/>
      <point x="209" y="0" type="curve"/>
      <point x="270" y="0"/>
      <point x="330" y="0"/>
      <point x="390" y="0" type="curve"/>
      <point x="390" y="117"/>
      <point x="390" y="0"/>
      <point x="390" y="117" type="curve"/>
      <point x="209" y="117"/>
      <point x="390" y="117"/>
      <point x="209" y="117" type="curve"/>
    </contour>
    <contour>
      <point x="209" y="533"/>
      <point x="209" y="416"/>
      <point x="209" y="533" type="curve"/>
      <point x="145" y="533"/>
      <point x="80" y="533"/>
      <point x="15" y="533" type="curve"/>
      <point x="15" y="416"/>
      <point x="15" y="533"/>
      <point x="15" y="416" type="curve"/>
      <point x="209" y="416"/>
      <point x="15" y="416"/>
      <point x="209" y="416" type="curve"/>
    </contour>
    <contour>
      <point x="303" y="670"/>
      <point x="114" y="670"/>
      <point x="303" y="670" type="curve"/>
      <point x="303" y="722"/>
      <point x="262" y="746"/>
      <point x="207" y="746" type="curve"/>
      <point x="152" y="746"/>
      <point x="114" y="719"/>
      <point x="114" y="670" type="curve"/>
      <point x="303" y="670"/>
      <point x="114" y="670"/>
      <point x="303" y="670" type="curve"/>
      <point x="303" y="617"/>
      <point x="263" y="595"/>
      <point x="207" y="595" type="curve"/>
      <point x="151" y="595"/>
      <point x="114" y="619"/>
      <point x="114" y="670" type="curve"/>
    </contour>
    <contour>
      <point x="294" y="0"/>
      <point x="126" y="0"/>
      <point x="294" y="0" type="curve"/>
      <point x="294" y="178"/>
      <point x="294" y="355"/>
      <point x="294" y="533" type="curve"/>
      <point x="126" y="533"/>
      <point x="294" y="533"/>
      <point x="126" y="533" type="curve"/>
      <point x="126" y="355"/>
      <point x="126" y="178"/>
      <point x="126" y="0" type="curve"/>
    </contour>
  </outline>
</glyph>
<glyph name="l" format="1">
  <advance width="415"/>
  <unicode hex="006C"/>
  <outline>
    <contour>
      <point x="213" y="116"/>
      <point x="213" y="-1"/>
      <point x="213" y="116" type="curve"/>
      <point x="19" y="117"/>
      <point x="213" y="116"/>
      <point x="19" y="117" type="curve"/>
      <point x="19" y="0"/>
      <point x="19" y="117"/>
      <point x="19" y="0" type="curve"/>
      <point x="84" y="0"/>
      <point x="148" y="-1"/>
      <point x="213" y="-1" type="curve"/>
    </contour>
    <contour>
      <point x="216" y="799"/>
      <point x="216" y="683"/>
      <point x="216" y="799" type="curve"/>
      <point x="151" y="799"/>
      <point x="86" y="800"/>
      <point x="22" y="800" type="curve"/>
      <point x="22" y="683"/>
      <point x="22" y="800"/>
      <point x="22" y="683" type="curve"/>
      <point x="216" y="683"/>
      <point x="22" y="683"/>
      <point x="216" y="683" type="curve"/>
    </contour>
    <contour>
      <point x="213" y="-1"/>
      <point x="213" y="116"/>
      <point x="213" y="-1" type="curve"/>
      <point x="278" y="-1"/>
      <point x="342" y="0"/>
      <point x="407" y="0" type="curve"/>
      <point x="407" y="117"/>
      <point x="407" y="0"/>
      <point x="407" y="117" type="curve"/>
      <point x="213" y="116"/>
      <point x="407" y="117"/>
      <point x="213" y="116" type="curve"/>
    </contour>
    <contour>
      <point x="292" y="0"/>
      <point x="132" y="0"/>
      <point x="292" y="0" type="curve"/>
      <point x="292" y="267"/>
      <point x="292" y="533"/>
      <point x="292" y="800" type="curve"/>
      <point x="132" y="800"/>
      <point x="292" y="800"/>
      <point x="132" y="800" type="curve"/>
      <point x="132" y="533"/>
      <point x="132" y="267"/>
      <point x="132" y="0" type="curve"/>
    </contour>
  </outline>
</glyph>
<glyph name="m" format="1">
  <advance width="1315"/>
  <unicode hex="006D"/>
  <outline>
    <contour>
      <point x="676" y="0"/>
      <point x="676" y="117"/>
      <point x="676" y="0" type="curve"/>
      <point x="844" y="0"/>
      <point x="676" y="0"/>
      <point x="844" y="0" type="curve"/>
      <point x="844" y="117"/>
      <point x="844" y="0"/>
      <point x="844" y="117" type="curve"/>
      <point x="676" y="117"/>
      <point x="844" y="117"/>
      <point x="676" y="117" type="curve"/>
    </contour>
    <contour>
      <point x="676" y="117"/>
      <point x="676" y="0"/>
      <point x="676" y="117" type="curve"/>
      <point x="508" y="117"/>
      <point x="676" y="117"/>
      <point x="508" y="117" type="curve"/>
      <point x="508" y="0"/>
      <point x="508" y="117"/>
      <point x="508" y="0" type="curve"/>
      <point x="676" y="0"/>
      <point x="508" y="0"/>
      <point x="676" y="0" type="curve"/>
    </contour>
    <contour>
      <point x="1109" y="0"/>
      <point x="1109" y="117"/>
      <point x="1109" y="0" type="curve"/>
      <point x="1174" y="0"/>
      <point x="1238" y="0"/>
      <point x="1303" y="0" type="curve"/>
      <point x="1303" y="117"/>
      <point x="1303" y="0"/>
      <point x="1303" y="117" type="curve"/>
      <point x="1109" y="117"/>
      <point x="1303" y="117"/>
      <point x="1109" y="117" type="curve"/>
    </contour>
    <contour>
      <point x="245" y="117"/>
      <point x="245" y="0"/>
      <point x="245" y="117" type="curve"/>
      <point x="51" y="117"/>
      <point x="245" y="117"/>
      <point x="51" y="117" type="curve"/>
      <point x="51" y="0"/>
      <point x="51" y="117"/>
      <point x="51" y="0" type="curve"/>
      <point x="115" y="0"/>
      <point x="180" y="0"/>
      <point x="245" y="0" type="curve"/>
    </contour>
    <contour>
      <point x="245" y="0"/>
      <point x="245" y="117"/>
      <point x="245" y="0" type="curve"/>
      <point x="301" y="0"/>
      <point x="245" y="0"/>
      <point x="413" y="0" type="curve"/>
      <point x="413" y="117"/>
      <point x="413" y="0"/>
      <point x="413" y="117" type="curve"/>
      <point x="245" y="117"/>
      <point x="413" y="117"/>
      <point x="245" y="117" type="curve"/>
    </contour>
    <contour>
      <point x="245" y="533"/>
      <point x="245" y="416"/>
      <point x="245" y="533" type="curve"/>
      <point x="180" y="533"/>
      <point x="115" y="533"/>
      <point x="51" y="533" type="curve"/>
      <point x="51" y="416"/>
      <point x="51" y="533"/>
      <point x="51" y="416" type="curve"/>
      <point x="245" y="416"/>
      <point x="51" y="416"/>
      <point x="245" y="416" type="curve"/>
    </contour>
    <contour>
      <point x="1109" y="117"/>
      <point x="1109" y="0"/>
      <point x="1109" y="117" type="curve"/>
      <point x="941" y="117"/>
      <point x="1109" y="117"/>
      <point x="941" y="117" type="curve"/>
      <point x="941" y="0"/>
      <point x="941" y="117"/>
      <point x="941" y="0" type="curve"/>
      <point x="997" y="0"/>
      <point x="1053" y="0"/>
      <point x="1109" y="0" type="curve"/>
    </contour>
    <contour>
      <point x="720" y="297"/>
      <point x="637" y="356"/>
      <point x="720" y="297" type="curve"/>
      <point x="759" y="373"/>
      <point x="824" y="416"/>
      <point x="909" y="416" type="curve"/>
      <point x="988" y="416"/>
      <point x="1028" y="383"/>
      <point x="1028" y="305" type="curve"/>
      <point x="1028" y="204"/>
      <point x="1028" y="102"/>
      <point x="1028" y="0" type="curve"/>
      <point x="1188" y="0"/>
      <point x="1028" y="0"/>
      <point x="1188" y="0" type="curve"/>
      <point x="1188" y="106"/>
      <point x="1188" y="211"/>
      <point x="1188" y="317" type="curve"/>
      <point x="1188" y="471"/>
      <point x="1104" y="533"/>
      <point x="942" y="533" type="curve"/>
      <point x="805" y="533"/>
      <point x="706" y="473"/>
      <point x="637" y="356" type="curve"/>
    </contour>
    <contour>
      <point x="289" y="297"/>
      <point x="205" y="356"/>
      <point x="289" y="297" type="curve"/>
      <point x="329" y="374"/>
      <point x="392" y="416"/>
      <point x="477" y="416" type="curve"/>
      <point x="556" y="416"/>
      <point x="596" y="383"/>
      <point x="596" y="305" type="curve"/>
      <point x="596" y="204"/>
      <point x="596" y="102"/>
      <point x="596" y="0" type="curve"/>
      <point x="757" y="0"/>
      <point x="596" y="0"/>
      <point x="757" y="0" type="curve"/>
      <point x="757" y="106"/>
      <point x="757" y="211"/>
      <point x="757" y="317" type="curve"/>
      <point x="757" y="471"/>
      <point x="673" y="533"/>
      <point x="511" y="533" type="curve"/>
      <point x="372" y="533"/>
      <point x="291" y="479"/>
      <point x="205" y="356" type="curve"/>
    </contour>
    <contour>
      <point x="325" y="0"/>
      <point x="164" y="0"/>
      <point x="325" y="0" type="curve"/>
      <point x="325" y="178"/>
      <point x="325" y="355"/>
      <point x="325" y="533" type="curve"/>
      <point x="164" y="533"/>
      <point x="325" y="533"/>
      <point x="164" y="533" type="curve"/>
      <point x="164" y="355"/>
      <point x="164" y="178"/>
      <point x="164" y="0" type="curve"/>
    </contour>
  </outline>
</glyph>
<glyph name="o" format="1">
  <advance width="799"/>
  <unicode hex="006F"/>
  <outline>
    <contour>
      <point x="209" y="267.716959064"/>
      <point x="48.4" y="267.716959064"/>
      <point x="209" y="267.716959064" type="curve"/>
      <point x="209" y="159.575796603"/>
      <point x="293.973078095" y="111.8"/>
      <point x="412.5" y="111.8" type="curve"/>
      <point x="526.482446" y="111.8"/>
      <point x="608.7" y="159.980256148"/>
      <point x="608.7" y="266.094346979" type="curve"/>
      <point x="608.7" y="367.630361298"/>
      <point x="525.0" y="421.0"/>
      <point x="401" y="421" type="curve"/>
      <point x="285.0" y="421.0"/>
      <point x="209.0" y="366.757930801"/>
      <point x="209" y="267.716959064" type="curve"/>
      <point x="48.4" y="267.716959064"/>
      <point x="209" y="267.716959064"/>
      <point x="48.4" y="267.716959064" type="curve"/>
      <point x="48.4" y="447.905556649"/>
      <point x="197.0" y="538.0"/>
      <point x="409" y="538" type="curve"/>
      <point x="621.0" y="538.0"/>
      <point x="769.3" y="447.777318047"/>
      <point x="769.3" y="266.094346979" type="curve"/>
      <point x="769.3" y="74.3313447395"/>
      <point x="615.043414894" y="-5"/>
      <point x="405.2" y="-5" type="curve"/>
      <point x="198.582915684" y="-5"/>
      <point x="48.4" y="77.7917436906"/>
      <point x="48.4" y="267.716959064" type="curve"/>
    </contour>
  </outline>
</glyph>
<glyph name="q" format="1">
  <advance width="897"/>
  <unicode hex="0071"/>
  <outline>
    <contour>
      <point x="694.2" y="416.328905289"/>
      <point x="694.2" y="533.128905289"/>
      <point x="694.2" y="416.328905289" type="curve"/>
      <point x="875.1" y="416.2"/>
      <point x="694.2" y="416.328905289"/>
      <point x="875.1" y="416.2" type="curve"/>
      <point x="875.1" y="533"/>
      <point x="875.1" y="416.2"/>
      <point x="875.1" y="533" type="curve"/>
      <point x="814.800580036" y="533"/>
      <point x="754.499419964" y="533.128905289"/>
      <point x="694.2" y="533.128905289" type="curve"/>
    </contour>
    <contour>
      <point x="694.2" y="-183.071094711"/>
      <point x="694.2" y="-299.871094711"/>
      <point x="694.2" y="-183.071094711" type="curve"/>
      <point x="500.3" y="-183.2"/>
      <point x="694.2" y="-183.071094711"/>
      <point x="500.3" y="-183.2" type="curve"/>
      <point x="500.3" y="-300"/>
      <point x="500.3" y="-183.2"/>
      <point x="500.3" y="-300" type="curve"/>
      <point x="564.932708424" y="-300"/>
      <point x="629.567291576" y="-299.871094711"/>
      <point x="694.2" y="-299.871094711" type="curve"/>
    </contour>
    <contour>
      <point x="694.2" y="-299.871094711"/>
      <point x="694.2" y="-183.071094711"/>
      <point x="694.2" y="-299.871094711" type="curve"/>
      <point x="754.499419964" y="-299.871094711"/>
      <point x="814.800580036" y="-300"/>
      <point x="875.1" y="-300" type="curve"/>
      <point x="875.1" y="-183.2"/>
      <point x="875.1" y="-300"/>
      <point x="875.1" y="-183.2" type="curve"/>
      <point x="694.2" y="-183.071094711"/>
      <point x="875.1" y="-183.2"/>
      <point x="694.2" y="-183.071094711" type="curve"/>
    </contour>
    <contour>
      <point x="730.6" y="434.889446494"/>
      <point x="654.7" y="364.809446494"/>
      <point x="730.6" y="434.889446494" type="curve"/>
      <point x="630.311709191" y="492.410944833"/>
      <point x="525.0" y="538.0"/>
      <point x="412" y="538" type="curve"/>
      <point x="209.0" y="538.0"/>
      <point x="60.0" y="443.183673469"/>
      <point x="60" y="262" type="curve"/>
      <point x="60.0" y="82.9277108434"/>
      <point x="216.0" y="-5.0"/>
      <point x="419" y="-5" type="curve"/>
      <point x="539.0" y="-5.0"/>
      <point x="640" y="14"/>
      <point x="735.3" y="94.1991881919" type="curve"/>
      <point x="637.622757089" y="163.533841061"/>
      <point x="736" y="92"/>
      <point x="638" y="161" type="curve"/>
      <point x="577" y="118"/>
      <point x="497.503496503" y="112.0"/>
      <point x="416" y="112" type="curve"/>
      <point x="303.0" y="112.0"/>
      <point x="221.0" y="168.52173913"/>
      <point x="221" y="268" type="curve"/>
      <point x="221.0" y="366.421052632"/>
      <point x="302.0" y="421.0"/>
      <point x="416" y="421" type="curve"/>
      <point x="499.0" y="421.0"/>
      <point x="578.280001388" y="404.609551137"/>
      <point x="654.7" y="364.809446494" type="curve"/>
    </contour>
    <contour>
      <point x="776.2" y="-300"/>
      <point x="608.3" y="-300"/>
      <point x="776.2" y="-300" type="curve"/>
      <point x="776.2" y="-22.33611"/>
      <point x="776.2" y="255.33611"/>
      <point x="776.2" y="533" type="curve"/>
      <point x="608.3" y="533"/>
      <point x="776.2" y="533"/>
      <point x="608.3" y="533" type="curve"/>
      <point x="608.3" y="255.33611"/>
      <point x="608.3" y="-22.33611"/>
      <point x="608.3" y="-300" type="curve"/>
    </contour>
  </outline>
</glyph>
<glyph name="s" format="1">
  <advance width="615"/>
  <unicode hex="0073"/>
  <outline>
    <contour>
      <point x="44" y="46"/>
      <point x="125" y="152"/>
      <point x="44" y="46" type="curve"/>
      <point x="139" y="16"/>
      <point x="207" y="-5"/>
      <point x="303" y="-5" type="curve"/>
      <point x="461" y="-5"/>
      <point x="585.6" y="27.1554070557"/>
      <point x="585.6" y="163.869785575" type="curve"/>
      <point x="586" y="294"/>
      <point x="462.592057116" y="302.478100942"/>
      <point x="323.9" y="330.093060429" type="curve"/>
      <point x="260.465710502" y="342.786607751"/>
      <point x="193" y="351"/>
      <point x="193" y="387" type="curve"/>
      <point x="193" y="410"/>
      <point x="237" y="421"/>
      <point x="286" y="421" type="curve"/>
      <point x="342" y="421"/>
      <point x="411.464699159" y="404.45066577"/>
      <point x="451" y="387.965146199" type="curve"/>
      <point x="524" y="493.085146199"/>
      <point x="451" y="387.965146199"/>
      <point x="524" y="493.085146199" type="curve"/>
      <point x="468.798562396" y="515.675212801"/>
      <point x="371" y="538"/>
      <point x="293" y="538" type="curve"/>
      <point x="154" y="538"/>
      <point x="46.6" y="506.475467809"/>
      <point x="46.6" y="386.167641326" type="curve"/>
      <point x="46.6" y="269.297494837"/>
      <point x="147" y="241"/>
      <point x="273" y="216" type="curve"/>
      <point x="347" y="200"/>
      <point x="432" y="198"/>
      <point x="432" y="161" type="curve"/>
      <point x="432" y="130"/>
      <point x="382" y="112"/>
      <point x="325" y="112" type="curve"/>
      <point x="249" y="112"/>
      <point x="200" y="127"/>
      <point x="125" y="152" type="curve"/>
    </contour>
    <contour>
      <point x="401.36" y="493.085146199"/>
      <point x="524" y="493.085146199"/>
      <point x="401.36" y="493.085146199" type="curve"/>
      <point x="401.36" y="373.085146199"/>
      <point x="401" y="475"/>
      <point x="401" y="355" type="curve"/>
      <point x="524" y="355"/>
      <point x="401" y="355"/>
      <point x="524" y="355" type="curve"/>
      <point x="524" y="475"/>
      <point x="524" y="373.085146199"/>
      <point x="524" y="493.085146199" type="curve"/>
    </contour>
    <contour>
      <point x="164" y="46"/>
      <point x="41" y="46"/>
      <point x="164" y="46" type="curve"/>
      <point x="164" y="166"/>
      <point x="164" y="73"/>
      <point x="164" y="193" type="curve"/>
      <point x="41" y="193"/>
      <point x="164" y="193"/>
      <point x="41" y="193" type="curve"/>
      <point x="41" y="73"/>
      <point x="41" y="166"/>
      <point x="41" y="46" type="curve"/>
    </contour>
  </outline>
</glyph>
<glyph name="u" format="1">
  <advance width="892"/>
  <unicode hex="0075"/>
  <outline>
    <contour>
      <point x="690" y="533"/>
      <point x="690" y="416"/>
      <point x="690" y="533" type="curve"/>
      <point x="626" y="533"/>
      <point x="561" y="533"/>
      <point x="496" y="533" type="curve"/>
      <point x="496" y="416"/>
      <point x="496" y="533"/>
      <point x="496" y="416" type="curve"/>
      <point x="690" y="416"/>
      <point x="496" y="416"/>
      <point x="690" y="416" type="curve"/>
    </contour>
    <contour>
      <point x="216" y="533"/>
      <point x="216" y="416"/>
      <point x="216" y="533" type="curve"/>
      <point x="151" y="533"/>
      <point x="86" y="533"/>
      <point x="22" y="533" type="curve"/>
      <point x="22" y="416"/>
      <point x="22" y="533"/>
      <point x="22" y="416" type="curve"/>
      <point x="216" y="416"/>
      <point x="22" y="416"/>
      <point x="216" y="416" type="curve"/>
    </contour>
    <contour>
      <point x="690" y="0"/>
      <point x="690" y="117"/>
      <point x="690" y="0" type="curve"/>
      <point x="750" y="0"/>
      <point x="811" y="0"/>
      <point x="871" y="0" type="curve"/>
      <point x="871" y="117"/>
      <point x="871" y="0"/>
      <point x="871" y="117" type="curve"/>
      <point x="690" y="117"/>
      <point x="871" y="117"/>
      <point x="690" y="117" type="curve"/>
    </contour>
    <contour>
      <point x="771" y="0"/>
      <point x="610" y="0"/>
      <point x="771" y="0" type="curve"/>
      <point x="771" y="178"/>
      <point x="771" y="355"/>
      <point x="771" y="533" type="curve"/>
      <point x="610" y="533"/>
      <point x="771" y="533"/>
      <point x="610" y="533" type="curve"/>
      <point x="610" y="355"/>
      <point x="610" y="178"/>
      <point x="610" y="0" type="curve"/>
    </contour>
    <contour>
      <point x="636" y="218"/>
      <point x="710" y="178"/>
      <point x="636" y="218" type="curve"/>
      <point x="594" y="159"/>
      <point x="517" y="112"/>
      <point x="440" y="112" type="curve"/>
      <point x="354" y="112"/>
      <point x="296" y="145"/>
      <point x="296" y="222" type="curve"/>
      <point x="296" y="326"/>
      <point x="296" y="429"/>
      <point x="296" y="533" type="curve"/>
      <point x="135" y="533"/>
      <point x="296" y="533"/>
      <point x="135" y="533" type="curve"/>
      <point x="135" y="427"/>
      <point x="135" y="322"/>
      <point x="135" y="216" type="curve"/>
      <point x="135" y="57"/>
      <point x="254" y="-5"/>
      <point x="428" y="-5" type="curve"/>
      <point x="553" y="-5"/>
      <point x="664" y="69"/>
      <point x="710" y="178" type="curve"/>
    </contour>
  </outline>
</glyph>
<glyph name="w" format="1">
  <advance width="1412"/>
  <unicode hex="0077"/>
  <outline>
    <contour>
      <point x="1152" y="416"/>
      <point x="1152" y="533"/>
      <point x="1152" y="416" type="curve"/>
      <point x="1346" y="416"/>
      <point x="1152" y="416"/>
      <point x="1346" y="416" type="curve"/>
      <point x="1346" y="533"/>
      <point x="1346" y="416"/>
      <point x="1346" y="533" type="curve"/>
      <point x="1281" y="533"/>
      <point x="1216" y="533"/>
      <point x="1152" y="533" type="curve"/>
    </contour>
    <contour>
      <point x="1152" y="533"/>
      <point x="1152" y="416"/>
      <point x="1152" y="533" type="curve"/>
      <point x="1087" y="533"/>
      <point x="1022" y="533"/>
      <point x="958" y="533" type="curve"/>
      <point x="958" y="416"/>
      <point x="958" y="533"/>
      <point x="958" y="416" type="curve"/>
      <point x="1152" y="416"/>
      <point x="958" y="416"/>
      <point x="1152" y="416" type="curve"/>
    </contour>
    <contour>
      <point x="256" y="533"/>
      <point x="256" y="416"/>
      <point x="256" y="533" type="curve"/>
      <point x="192" y="533"/>
      <point x="127" y="533"/>
      <point x="62" y="533" type="curve"/>
      <point x="62" y="416"/>
      <point x="62" y="533"/>
      <point x="62" y="416" type="curve"/>
      <point x="256" y="416"/>
      <point x="62" y="416"/>
      <point x="256" y="416" type="curve"/>
    </contour>
    <contour>
      <point x="256" y="416"/>
      <point x="256" y="533"/>
      <point x="256" y="416" type="curve"/>
      <point x="450" y="416"/>
      <point x="256" y="416"/>
      <point x="450" y="416" type="curve"/>
      <point x="450" y="533"/>
      <point x="450" y="416"/>
      <point x="450" y="533" type="curve"/>
      <point x="385" y="533"/>
      <point x="321" y="533"/>
      <point x="256" y="533" type="curve"/>
    </contour>
    <contour>
      <point x="526" y="0"/>
      <point x="367" y="0"/>
      <point x="526" y="0" type="curve"/>
      <point x="614" y="178"/>
      <point x="702" y="355"/>
      <point x="790" y="533" type="curve"/>
      <point x="627" y="533"/>
      <point x="790" y="533"/>
      <point x="627" y="533" type="curve"/>
      <point x="540" y="355"/>
      <point x="454" y="178"/>
      <point x="367" y="0" type="curve"/>
    </contour>
    <contour>
      <point x="1117" y="533"/>
      <point x="1280" y="533"/>
      <point x="1117" y="533" type="curve"/>
      <point x="1036" y="355"/>
      <point x="955" y="178"/>
      <point x="874" y="0" type="curve"/>
      <point x="1033" y="0"/>
      <point x="874" y="0"/>
      <point x="1033" y="0" type="curve"/>
      <point x="1116" y="178"/>
      <point x="1198" y="355"/>
      <point x="1280" y="533" type="curve"/>
    </contour>
    <contour>
      <point x="635" y="533"/>
      <point x="796" y="533"/>
      <point x="635" y="533" type="curve"/>
      <point x="714" y="355"/>
      <point x="793" y="178"/>
      <point x="872" y="0" type="curve"/>
      <point x="1032" y="0"/>
      <point x="872" y="0"/>
      <point x="1032" y="0" type="curve"/>
      <point x="954" y="178"/>
      <point x="875" y="355"/>
      <point x="796" y="533" type="curve"/>
    </contour>
    <contour>
      <point x="129" y="533"/>
      <point x="291" y="533"/>
      <point x="129" y="533" type="curve"/>
      <point x="208" y="355"/>
      <point x="287" y="178"/>
      <point x="365" y="0" type="curve"/>
      <point x="525" y="0"/>
      <point x="365" y="0"/>
      <point x="525" y="0" type="curve"/>
      <point x="447" y="178"/>
      <point x="369" y="355"/>
      <point x="291" y="533" type="curve"/>
    </contour>
  </outline>
</glyph>
<glyph name="x" format="1">
  <advance width="968"/>
  <unicode hex="0078"/>
  <outline>
    <contour>
      <point x="271" y="117"/>
      <point x="271" y="0"/>
      <point x="271" y="117" type="curve"/>
      <point x="77" y="117"/>
      <point x="271" y="117"/>
      <point x="77" y="117" type="curve"/>
      <point x="77" y="0"/>
      <point x="77" y="117"/>
      <point x="77" y="0" type="curve"/>
      <point x="142" y="0"/>
      <point x="206" y="0"/>
      <point x="271" y="0" type="curve"/>
    </contour>
    <contour>
      <point x="716" y="117"/>
      <point x="716" y="0"/>
      <point x="716" y="117" type="curve"/>
      <point x="523" y="117"/>
      <point x="716" y="117"/>
      <point x="523" y="117" type="curve"/>
      <point x="523" y="0"/>
      <point x="523" y="117"/>
      <point x="523" y="0" type="curve"/>
      <point x="587" y="0"/>
      <point x="652" y="0"/>
      <point x="716" y="0" type="curve"/>
    </contour>
    <contour>
      <point x="716" y="0"/>
      <point x="716" y="117"/>
      <point x="716" y="0" type="curve"/>
      <point x="781" y="0"/>
      <point x="846" y="0"/>
      <point x="910" y="0" type="curve"/>
      <point x="910" y="117"/>
      <point x="910" y="0"/>
      <point x="910" y="117" type="curve"/>
      <point x="716" y="117"/>
      <point x="910" y="117"/>
      <point x="716" y="117" type="curve"/>
    </contour>
    <contour>
      <point x="271" y="0"/>
      <point x="271" y="117"/>
      <point x="271" y="0" type="curve"/>
      <point x="335" y="0"/>
      <point x="271" y="0"/>
      <point x="465" y="0" type="curve"/>
      <point x="465" y="117"/>
      <point x="465" y="0"/>
      <point x="465" y="117" type="curve"/>
      <point x="271" y="117"/>
      <point x="465" y="117"/>
      <point x="271" y="117" type="curve"/>
    </contour>
    <contour>
      <point x="706" y="416"/>
      <point x="706" y="533"/>
      <point x="706" y="416" type="curve"/>
      <point x="900" y="416"/>
      <point x="706" y="416"/>
      <point x="900" y="416" type="curve"/>
      <point x="900" y="533"/>
      <point x="900" y="416"/>
      <point x="900" y="533" type="curve"/>
      <point x="835" y="533"/>
      <point x="770" y="533"/>
      <point x="706" y="533" type="curve"/>
    </contour>
    <contour>
      <point x="277" y="533"/>
      <point x="277" y="416"/>
      <point x="277" y="533" type="curve"/>
      <point x="212" y="533"/>
      <point x="148" y="533"/>
      <point x="83" y="533" type="curve"/>
      <point x="83" y="416"/>
      <point x="83" y="533"/>
      <point x="83" y="416" type="curve"/>
      <point x="277" y="416"/>
      <point x="83" y="416"/>
      <point x="277" y="416" type="curve"/>
    </contour>
    <contour>
      <point x="247" y="416"/>
      <point x="247" y="533"/>
      <point x="247" y="416" type="curve"/>
      <point x="471.0" y="416.0"/>
      <point x="247.0" y="416.0"/>
      <point x="471" y="416" type="curve"/>
      <point x="471" y="533"/>
      <point x="471" y="416"/>
      <point x="471" y="533" type="curve"/>
      <point x="395.948453608" y="533.0"/>
      <point x="320.896907216" y="533.0"/>
      <point x="247" y="533" type="curve"/>
    </contour>
    <contour>
      <point x="706" y="533"/>
      <point x="706" y="416"/>
      <point x="706" y="533" type="curve"/>
      <point x="641" y="533"/>
      <point x="576" y="533"/>
      <point x="512" y="533" type="curve"/>
      <point x="512" y="416"/>
      <point x="512" y="533"/>
      <point x="512" y="416" type="curve"/>
      <point x="706" y="416"/>
      <point x="512" y="416"/>
      <point x="706" y="416" type="curve"/>
    </contour>
    <contour>
      <point x="873" y="0"/>
      <point x="675" y="0"/>
      <point x="873" y="0" type="curve"/>
      <point x="691" y="179"/>
      <point x="506" y="354"/>
      <point x="324" y="533" type="curve"/>
      <point x="142" y="533"/>
      <point x="324" y="533"/>
      <point x="142" y="533" type="curve"/>
      <point x="321" y="356"/>
      <point x="497" y="177"/>
      <point x="675" y="0" type="curve"/>
    </contour>
    <contour>
      <point x="661" y="533"/>
      <point x="843" y="533"/>
      <point x="661" y="533" type="curve"/>
      <point x="476" y="354"/>
      <point x="287" y="179"/>
      <point x="103" y="0" type="curve"/>
      <point x="307" y="0"/>
      <point x="103" y="0"/>
      <point x="307" y="0" type="curve"/>
      <point x="487" y="176"/>
      <point x="663" y="357"/>
      <point x="843" y="533" type="curve"/>
    </contour>
  </outline>
</glyph>
<glyph name="y" format="1">
  <advance width="906"/>
  <unicode hex="0079"/>
  <outline>
    <contour>
      <point x="228" y="-183"/>
      <point x="228" y="-300"/>
      <point x="228" y="-183" type="curve"/>
      <point x="34" y="-183"/>
      <point x="228" y="-183"/>
      <point x="34" y="-183" type="curve"/>
      <point x="34" y="-300"/>
      <point x="34" y="-183"/>
      <point x="34" y="-300" type="curve"/>
      <point x="99" y="-300"/>
      <point x="164" y="-300"/>
      <point x="228" y="-300" type="curve"/>
    </contour>
    <contour>
      <point x="238" y="533"/>
      <point x="238" y="416"/>
      <point x="238" y="533" type="curve"/>
      <point x="174" y="533"/>
      <point x="109" y="533"/>
      <point x="44" y="533" type="curve"/>
      <point x="44" y="416"/>
      <point x="44" y="533"/>
      <point x="44" y="416" type="curve"/>
      <point x="238" y="416"/>
      <point x="44" y="416"/>
      <point x="238" y="416" type="curve"/>
    </contour>
    <contour>
      <point x="238" y="416"/>
      <point x="238" y="533"/>
      <point x="238" y="416" type="curve"/>
      <point x="432" y="416"/>
      <point x="238" y="416"/>
      <point x="432" y="416" type="curve"/>
      <point x="432" y="533"/>
      <point x="432" y="416"/>
      <point x="432" y="533" type="curve"/>
      <point x="368" y="533"/>
      <point x="303" y="533"/>
      <point x="238" y="533" type="curve"/>
    </contour>
    <contour>
      <point x="695" y="533"/>
      <point x="695" y="416"/>
      <point x="695" y="533" type="curve"/>
      <point x="630" y="533"/>
      <point x="566" y="533"/>
      <point x="501" y="533" type="curve"/>
      <point x="501" y="416"/>
      <point x="501" y="533"/>
      <point x="501" y="416" type="curve"/>
      <point x="695" y="416"/>
      <point x="501" y="416"/>
      <point x="695" y="416" type="curve"/>
    </contour>
    <contour>
      <point x="695" y="416"/>
      <point x="695" y="533"/>
      <point x="695" y="416" type="curve"/>
      <point x="889" y="416"/>
      <point x="695" y="416"/>
      <point x="889" y="416" type="curve"/>
      <point x="889" y="533"/>
      <point x="889" y="416"/>
      <point x="889" y="533" type="curve"/>
      <point x="824" y="533"/>
      <point x="759" y="533"/>
      <point x="695" y="533" type="curve"/>
    </contour>
    <contour>
      <point x="511" y="77"/>
      <point x="371" y="77"/>
      <point x="511" y="77" type="curve"/>
      <point x="432" y="226"/>
      <point x="351" y="384"/>
      <point x="264" y="533" type="curve"/>
      <point x="100" y="533"/>
      <point x="264" y="533"/>
      <point x="100" y="533" type="curve"/>
      <point x="191" y="381"/>
      <point x="281" y="229"/>
      <point x="371" y="77" type="curve"/>
    </contour>
    <contour>
      <point x="294" y="-300"/>
      <point x="130" y="-300"/>
      <point x="294" y="-300" type="curve"/>
      <point x="470" y="-22"/>
      <point x="646" y="255"/>
      <point x="822" y="533" type="curve"/>
      <point x="659" y="533"/>
      <point x="822" y="533"/>
      <point x="659" y="533" type="curve"/>
      <point x="483" y="255"/>
      <point x="306" y="-22"/>
      <point x="130" y="-300" type="curve"/>
    </contour>
  </outline>
</glyph>
<glyph name="z" format="1">
  <advance width="694"/>
  <unicode hex="007A"/>
  <outline>
    <contour>
      <point x="57" y="416"/>
      <point x="57" y="533"/>
      <point x="57" y="416" type="curve"/>
      <point x="231" y="416"/>
      <point x="405" y="416"/>
      <point x="579" y="416" type="curve"/>
      <point x="567" y="430"/>
      <point x="543" y="422"/>
      <point x="532" y="436" type="curve"/>
      <point x="524" y="449"/>
      <point x="519" y="463"/>
      <point x="511" y="475" type="curve"/>
      <point x="500" y="466"/>
      <point x="483" y="475"/>
      <point x="472" y="466" type="curve"/>
      <point x="329" y="345"/>
      <point x="472" y="466"/>
      <point x="31" y="117" type="curve"/>
      <point x="31" y="58"/>
      <point x="31" y="117"/>
      <point x="31" y="58" type="curve"/>
      <point x="31" y="0"/>
      <point x="31" y="58"/>
      <point x="31" y="0" type="curve"/>
      <point x="89" y="0"/>
      <point x="31" y="0"/>
      <point x="89" y="0" type="curve"/>
      <point x="662" y="0"/>
      <point x="471" y="0"/>
      <point x="663" y="0" type="curve"/>
      <point x="663" y="117"/>
      <point x="663" y="0"/>
      <point x="663" y="117" type="curve"/>
      <point x="471" y="117"/>
      <point x="280" y="117"/>
      <point x="89" y="117" type="curve"/>
      <point x="101" y="109"/>
      <point x="117" y="108"/>
      <point x="130" y="100" type="curve"/>
      <point x="139" y="87"/>
      <point x="146" y="71"/>
      <point x="155" y="58" type="curve"/>
      <point x="166" y="67"/>
      <point x="183" y="58"/>
      <point x="194" y="67" type="curve"/>
      <point x="339" y="189"/>
      <point x="194" y="67"/>
      <point x="642" y="416" type="curve"/>
      <point x="642" y="475"/>
      <point x="642" y="416"/>
      <point x="642" y="475" type="curve"/>
      <point x="642" y="533"/>
      <point x="642" y="475"/>
      <point x="642" y="533" type="curve"/>
      <point x="579" y="533"/>
      <point x="642" y="533"/>
      <point x="579" y="533" type="curve"/>
      <point x="405" y="533"/>
      <point x="231" y="533"/>
      <point x="57" y="533" type="curve"/>
    </contour>
    <contour>
      <point x="57" y="475"/>
      <point x="180" y="475"/>
      <point x="57" y="475" type="curve"/>
      <point x="57" y="355"/>
      <point x="57" y="475"/>
      <point x="57" y="355" type="curve"/>
      <point x="180" y="355"/>
      <point x="57" y="355"/>
      <point x="180" y="355" type="curve"/>
      <point x="180" y="475"/>
      <point x="180" y="355"/>
      <point x="180" y="475" type="curve"/>
    </contour>
    <contour>
      <point x="663" y="58"/>
      <point x="540" y="58"/>
      <point x="663" y="58" type="curve"/>
      <point x="663" y="178"/>
      <point x="663" y="58"/>
      <point x="663" y="178" type="curve"/>
      <point x="540" y="178"/>
      <point x="663" y="178"/>
      <point x="540" y="178" type="curve"/>
      <point x="540" y="58"/>
      <point x="540" y="178"/>
      <point x="540" y="58" type="curve"/>
    </contour>
  </outline>
</glyph>
<glyph name="dvA" format="1">
  <advance width="1065"/>
  <unicode hex="0905"/>
  <outline>
    <contour>
      <point x="837" y="452"/>
      <point x="888" y="358"/>
      <point x="837" y="452" type="curve"/>
      <point x="662" y="397"/>
      <point x="526" y="397"/>
      <point x="343" y="417" type="curve"/>
      <point x="306" y="347"/>
      <point x="343" y="417"/>
      <point x="306" y="347" type="curve"/>
      <point x="524" y="320"/>
      <point x="668" y="285"/>
      <point x="888" y="358" type="curve"/>
    </contour>
    <contour>
      <point x="131" y="558"/>
      <point x="64" y="660"/>
      <point x="131" y="558" type="curve"/>
      <point x="182" y="585"/>
      <point x="257" y="610"/>
      <point x="319" y="610" type="curve"/>
      <point x="400" y="610"/>
      <point x="468" y="590"/>
      <point x="467" y="520" type="curve"/>
      <point x="467" y="420"/>
      <point x="356" y="438"/>
      <point x="242" y="438" type="curve"/>
      <point x="242" y="333"/>
      <point x="242" y="438"/>
      <point x="242" y="333" type="curve"/>
      <point x="448" y="333"/>
      <point x="627" y="355"/>
      <point x="628" y="532" type="curve"/>
      <point x="628" y="674"/>
      <point x="500" y="727"/>
      <point x="341" y="727" type="curve"/>
      <point x="234" y="727"/>
      <point x="160" y="707"/>
      <point x="64" y="660" type="curve"/>
    </contour>
    <contour>
      <point x="145" y="117"/>
      <point x="22" y="117"/>
      <point x="145" y="117" type="curve"/>
      <point x="145" y="237"/>
      <point x="145" y="117"/>
      <point x="145" y="237" type="curve"/>
      <point x="22" y="237"/>
      <point x="145" y="237"/>
      <point x="22" y="237" type="curve"/>
      <point x="22" y="117"/>
      <point x="22" y="237"/>
      <point x="22" y="117" type="curve"/>
    </contour>
    <contour>
      <point x="22" y="117"/>
      <point x="131" y="192"/>
      <point x="22" y="117" type="curve"/>
      <point x="104" y="54"/>
      <point x="204" y="26"/>
      <point x="308" y="26" type="curve"/>
      <point x="506" y="21"/>
      <point x="668" y="57"/>
      <point x="668" y="231" type="curve"/>
      <point x="664" y="420"/>
      <point x="460" y="413"/>
      <point x="242" y="413" type="curve"/>
      <point x="242" y="313"/>
      <point x="242" y="413"/>
      <point x="242" y="313" type="curve"/>
      <point x="376" y="313"/>
      <point x="508" y="319"/>
      <point x="508" y="219" type="curve"/>
      <point x="508" y="150"/>
      <point x="420" y="141"/>
      <point x="322" y="143" type="curve"/>
      <point x="253" y="143"/>
      <point x="183" y="158"/>
      <point x="131" y="192" type="curve"/>
    </contour>
    <contour>
      <point x="867" y="0"/>
      <point x="867" y="117"/>
      <point x="867" y="0" type="curve"/>
      <point x="923" y="0"/>
      <point x="979" y="0"/>
      <point x="1035" y="0" type="curve"/>
      <point x="1035" y="117"/>
      <point x="1035" y="0"/>
      <point x="1035" y="117" type="curve"/>
      <point x="867" y="117"/>
      <point x="1035" y="117"/>
      <point x="867" y="117" type="curve"/>
    </contour>
    <contour>
      <point x="867" y="117"/>
      <point x="867" y="0"/>
      <point x="867" y="117" type="curve"/>
      <point x="686" y="117"/>
      <point x="867" y="117"/>
      <point x="686" y="117" type="curve"/>
      <point x="686" y="0"/>
      <point x="686" y="117"/>
      <point x="686" y="0" type="curve"/>
      <point x="747" y="0"/>
      <point x="807" y="0"/>
      <point x="867" y="0" type="curve"/>
    </contour>
    <contour>
      <point x="946" y="0"/>
      <point x="786" y="0"/>
      <point x="946" y="0" type="curve"/>
      <point x="946" y="241"/>
      <point x="946" y="481"/>
      <point x="946" y="722" type="curve"/>
      <point x="786" y="722"/>
      <point x="946" y="722"/>
      <point x="786" y="722" type="curve"/>
      <point x="786" y="481"/>
      <point x="786" y="241"/>
      <point x="786" y="0" type="curve"/>
    </contour>
    <contour>
      <point x="852" y="593"/>
      <point x="852" y="722"/>
      <point x="852" y="593" type="curve"/>
      <point x="922" y="593"/>
      <point x="1012" y="593"/>
      <point x="1082" y="593" type="curve"/>
      <point x="1082" y="722"/>
      <point x="1082" y="593"/>
      <point x="1082" y="722" type="curve"/>
      <point x="1012" y="722"/>
      <point x="922" y="722"/>
      <point x="852" y="722" type="curve"/>
    </contour>
  </outline>
</glyph>
<glyph name="dvU" format="1">
  <advance width="686"/>
  <unicode hex="0909"/>
  <outline>
    <contour>
      <point x="39" y="94"/>
      <point x="127" y="180"/>
      <point x="39" y="94" type="curve"/>
      <point x="99" y="42"/>
      <point x="191" y="9"/>
      <point x="304" y="9" type="curve"/>
      <point x="496" y="3"/>
      <point x="664" y="52"/>
      <point x="664" y="214" type="curve"/>
      <point x="664" y="403"/>
      <point x="455" y="423"/>
      <point x="238" y="423" type="curve"/>
      <point x="238" y="324"/>
      <point x="238" y="423"/>
      <point x="238" y="324" type="curve"/>
      <point x="372" y="324"/>
      <point x="504" y="320"/>
      <point x="504" y="209" type="curve"/>
      <point x="504" y="132"/>
      <point x="414" y="123"/>
      <point x="318" y="125" type="curve"/>
      <point x="244" y="125"/>
      <point x="183" y="142"/>
      <point x="127" y="180" type="curve"/>
    </contour>
    <contour>
      <point x="323" y="610"/>
      <point x="323" y="710"/>
      <point x="323" y="605" type="curve"/>
      <point x="406" y="605"/>
      <point x="476" y="580"/>
      <point x="476" y="506" type="curve"/>
      <point x="476" y="410"/>
      <point x="354" y="429"/>
      <point x="238" y="429" type="curve"/>
      <point x="238" y="324"/>
      <point x="238" y="429"/>
      <point x="238" y="324" type="curve"/>
      <point x="442" y="324"/>
      <point x="637" y="341"/>
      <point x="637" y="518" type="curve"/>
      <point x="637" y="664"/>
      <point x="490" y="715"/>
      <point x="323" y="715" type="curve"/>
    </contour>
    <contour>
      <point x="697" y="722"/>
      <point x="697" y="605"/>
      <point x="697" y="722" type="curve"/>
      <point x="458" y="722"/>
      <point x="220" y="722"/>
      <point x="-19" y="722" type="curve"/>
      <point x="-19" y="605"/>
      <point x="-19" y="722"/>
      <point x="-19" y="605" type="curve"/>
      <point x="220" y="605"/>
      <point x="458" y="605"/>
      <point x="697" y="605" type="curve"/>
    </contour>
  </outline>
</glyph>
<glyph name="dvvR" format="1">
  <advance width="1152"/>
  <unicode hex="090B"/>
  <outline>
    <contour>
      <point x="795" y="57"/>
      <point x="780" y="168"/>
      <point x="795" y="57" type="curve"/>
      <point x="985" y="57"/>
      <point x="1127" y="118"/>
      <point x="1127" y="267" type="curve"/>
      <point x="1127" y="436"/>
      <point x="995" y="491"/>
      <point x="850" y="566" type="curve"/>
      <point x="748" y="479"/>
      <point x="850" y="566"/>
      <point x="748" y="479" type="curve"/>
      <point x="864" y="418"/>
      <point x="991" y="394"/>
      <point x="991" y="257" type="curve"/>
      <point x="991" y="183"/>
      <point x="889" y="168"/>
      <point x="780" y="168" type="curve"/>
    </contour>
    <contour>
      <point x="554" y="316"/>
      <point x="590" y="433"/>
      <point x="554" y="316" type="curve"/>
      <point x="622" y="299"/>
      <point x="664" y="297"/>
      <point x="730" y="297" type="curve"/>
      <point x="871" y="297"/>
      <point x="979" y="345"/>
      <point x="979" y="471" type="curve"/>
      <point x="979" y="541"/>
      <point x="923" y="576"/>
      <point x="850" y="566" type="curve"/>
      <point x="748" y="479"/>
      <point x="850" y="566"/>
      <point x="748" y="479" type="curve"/>
      <point x="777" y="468"/>
      <point x="833" y="496"/>
      <point x="833" y="471" type="curve"/>
      <point x="833" y="425"/>
      <point x="790" y="414"/>
      <point x="737" y="414" type="curve"/>
      <point x="682" y="414"/>
      <point x="648" y="418"/>
      <point x="590" y="433" type="curve"/>
    </contour>
    <contour>
      <point x="111" y="415"/>
      <point x="42" y="505"/>
      <point x="111" y="415" type="curve"/>
      <point x="156" y="437"/>
      <point x="190" y="452"/>
      <point x="240" y="452" type="curve"/>
      <point x="371" y="452"/>
      <point x="485" y="361"/>
      <point x="554" y="315" type="curve"/>
      <point x="619" y="426"/>
      <point x="554" y="315"/>
      <point x="619" y="426" type="curve"/>
      <point x="539" y="478"/>
      <point x="405" y="569"/>
      <point x="255" y="569" type="curve"/>
      <point x="161" y="569"/>
      <point x="98" y="547"/>
      <point x="42" y="505" type="curve"/>
    </contour>
    <contour>
      <point x="218" y="151"/>
      <point x="152" y="260"/>
      <point x="218" y="151" type="curve"/>
      <point x="356" y="210"/>
      <point x="491" y="275"/>
      <point x="628" y="335" type="curve"/>
      <point x="541" y="422"/>
      <point x="628" y="335"/>
      <point x="541" y="422" type="curve"/>
      <point x="407" y="365"/>
      <point x="271" y="313"/>
      <point x="152" y="260" type="curve"/>
    </contour>
    <contour>
      <point x="503" y="711"/>
      <point x="663" y="711"/>
      <point x="503" y="711" type="curve"/>
      <point x="503" y="474"/>
      <point x="503" y="237"/>
      <point x="503" y="0" type="curve"/>
      <point x="663" y="0"/>
      <point x="503" y="0"/>
      <point x="663" y="0" type="curve"/>
      <point x="663" y="237"/>
      <point x="663" y="474"/>
      <point x="663" y="711" type="curve"/>
    </contour>
    <contour>
      <point x="1189" y="722"/>
      <point x="1189" y="605"/>
      <point x="1189" y="722" type="curve"/>
      <point x="788" y="722"/>
      <point x="387" y="722"/>
      <point x="-14" y="722" type="curve"/>
      <point x="-14" y="605"/>
      <point x="-14" y="722"/>
      <point x="-14" y="605" type="curve"/>
      <point x="387" y="605"/>
      <point x="788" y="605"/>
      <point x="1189" y="605" type="curve"/>
    </contour>
  </outline>
</glyph>
<glyph name="dvE" format="1">
  <advance width="768"/>
  <unicode hex="090F"/>
  <outline>
    <contour>
      <point x="499.2" y="223.091282051"/>
      <point x="404.3" y="328.211282051"/>
      <point x="499.2" y="223.091282051" type="curve"/>
      <point x="627.218997161" y="277.103710191"/>
      <point x="712.1" y="359.471618615"/>
      <point x="712.1" y="496.058860399" type="curve"/>
      <point x="712.1" y="551.617981915"/>
      <point x="712.1" y="607.178770222"/>
      <point x="712.1" y="662.737891738" type="curve"/>
      <point x="551.5" y="662.737891738"/>
      <point x="712.1" y="662.737891738"/>
      <point x="551.5" y="662.737891738" type="curve"/>
      <point x="551.5" y="601.338828622"/>
      <point x="551.5" y="539.937923515"/>
      <point x="551.5" y="478.538860399" type="curve"/>
      <point x="551.5" y="395.963353541"/>
      <point x="483.69512863" y="361.295148876"/>
      <point x="404.3" y="328.211282051" type="curve"/>
    </contour>
    <contour>
      <point x="782.6" y="722"/>
      <point x="782.6" y="605.2"/>
      <point x="782.6" y="722" type="curve"/>
      <point x="516.102665" y="722"/>
      <point x="249.597335" y="722"/>
      <point x="-16.9" y="722" type="curve"/>
      <point x="-16.9" y="605.2"/>
      <point x="-16.9" y="722"/>
      <point x="-16.9" y="605.2" type="curve"/>
      <point x="249.597335" y="605.2"/>
      <point x="516.102665" y="605.2"/>
      <point x="782.6" y="605.2" type="curve"/>
    </contour>
    <contour>
      <point x="593" y="106.454700855"/>
      <point x="541.9" y="-10.3452991453"/>
      <point x="593" y="106.454700855" type="curve"/>
      <point x="391.066677836" y="162.443787264"/>
      <point x="220.7" y="237.227749862"/>
      <point x="220.7" y="433.88968661" type="curve"/>
      <point x="220.7" y="510.171658825"/>
      <point x="220.7" y="586.455919523"/>
      <point x="220.7" y="662.737891738" type="curve"/>
      <point x="60.1" y="662.737891738"/>
      <point x="220.7" y="662.737891738"/>
      <point x="60.1" y="662.737891738" type="curve"/>
      <point x="60.1" y="578.669330723"/>
      <point x="60.1" y="494.598247625"/>
      <point x="60.1" y="410.52968661" type="curve"/>
      <point x="60.1" y="156.701458499"/>
      <point x="279.250883763" y="57.6598933102"/>
      <point x="541.9" y="-10.3452991453" type="curve"/>
    </contour>
  </outline>
</glyph>
<glyph name="dvO" format="1">
  <advance width="1420"/>
  <unicode hex="0913"/>
  <outline>
    <contour>
      <point x="842" y="449"/>
      <point x="893" y="362"/>
      <point x="842" y="449" type="curve"/>
      <point x="666" y="395"/>
      <point x="531" y="397"/>
      <point x="348" y="417" type="curve"/>
      <point x="311" y="347"/>
      <point x="348" y="417"/>
      <point x="311" y="347" type="curve"/>
      <point x="528" y="320"/>
      <point x="690" y="285"/>
      <point x="893" y="362" type="curve"/>
    </contour>
    <contour>
      <point x="27" y="117"/>
      <point x="136" y="192"/>
      <point x="27" y="117" type="curve"/>
      <point x="109" y="54"/>
      <point x="209" y="26"/>
      <point x="313" y="26" type="curve"/>
      <point x="510" y="21"/>
      <point x="678" y="58"/>
      <point x="673" y="227" type="curve"/>
      <point x="669" y="417"/>
      <point x="466" y="413"/>
      <point x="247" y="413" type="curve"/>
      <point x="247" y="313"/>
      <point x="247" y="413"/>
      <point x="247" y="313" type="curve"/>
      <point x="381" y="313"/>
      <point x="513" y="313"/>
      <point x="513" y="221" type="curve"/>
      <point x="513" y="145"/>
      <point x="425" y="141"/>
      <point x="327" y="143" type="curve"/>
      <point x="258" y="143"/>
      <point x="192" y="153"/>
      <point x="136" y="192" type="curve"/>
    </contour>
    <contour>
      <point x="150" y="117"/>
      <point x="27" y="117"/>
      <point x="150" y="117" type="curve"/>
      <point x="150" y="237"/>
      <point x="150" y="143"/>
      <point x="150" y="263" type="curve"/>
      <point x="27" y="263"/>
      <point x="150" y="263"/>
      <point x="27" y="263" type="curve"/>
      <point x="27" y="143"/>
      <point x="27" y="237"/>
      <point x="27" y="117" type="curve"/>
    </contour>
    <contour>
      <point x="1435" y="722"/>
      <point x="1435" y="605"/>
      <point x="1435" y="722" type="curve"/>
      <point x="1251" y="722"/>
      <point x="1041" y="722"/>
      <point x="857" y="722" type="curve"/>
      <point x="857" y="605"/>
      <point x="857" y="722"/>
      <point x="857" y="605" type="curve"/>
      <point x="1041" y="605"/>
      <point x="1251" y="605"/>
      <point x="1435" y="605" type="curve"/>
    </contour>
    <contour>
      <point x="872" y="117"/>
      <point x="872" y="0"/>
      <point x="872" y="117" type="curve"/>
      <point x="704" y="117"/>
      <point x="872" y="117"/>
      <point x="704" y="117" type="curve"/>
      <point x="704" y="0"/>
      <point x="704" y="117"/>
      <point x="704" y="0" type="curve"/>
      <point x="760" y="0"/>
      <point x="816" y="0"/>
      <point x="872" y="0" type="curve"/>
    </contour>
    <contour>
      <point x="139" y="558"/>
      <point x="69" y="660"/>
      <point x="139" y="558" type="curve"/>
      <point x="196" y="589"/>
      <point x="262" y="605"/>
      <point x="324" y="605" type="curve"/>
      <point x="404" y="605"/>
      <point x="473" y="589"/>
      <point x="472" y="520" type="curve"/>
      <point x="471" y="420"/>
      <point x="361" y="438"/>
      <point x="247" y="438" type="curve"/>
      <point x="247" y="333"/>
      <point x="247" y="438"/>
      <point x="247" y="333" type="curve"/>
      <point x="453" y="333"/>
      <point x="632" y="355"/>
      <point x="633" y="532" type="curve"/>
      <point x="633" y="673"/>
      <point x="504" y="722"/>
      <point x="346" y="722" type="curve"/>
      <point x="239" y="722"/>
      <point x="164" y="707"/>
      <point x="69" y="660" type="curve"/>
    </contour>
    <contour>
      <point x="872" y="0"/>
      <point x="872" y="117"/>
      <point x="872" y="0" type="curve"/>
      <point x="924" y="0"/>
      <point x="872" y="0"/>
      <point x="1027" y="0" type="curve"/>
      <point x="1027" y="117"/>
      <point x="1027" y="0"/>
      <point x="1027" y="117" type="curve"/>
      <point x="872" y="117"/>
      <point x="1027" y="117"/>
      <point x="872" y="117" type="curve"/>
    </contour>
    <contour>
      <point x="1144" y="722"/>
      <point x="1305" y="722"/>
      <point x="1144" y="722" type="curve"/>
      <point x="1144" y="481"/>
      <point x="1144" y="241"/>
      <point x="1144" y="0" type="curve"/>
      <point x="1305" y="0"/>
      <point x="1144" y="0"/>
      <point x="1305" y="0" type="curve"/>
      <point x="1305" y="241"/>
      <point x="1305" y="481"/>
      <point x="1305" y="722" type="curve"/>
    </contour>
    <contour>
      <point x="791" y="722"/>
      <point x="951" y="722"/>
      <point x="791" y="722" type="curve"/>
      <point x="791" y="481"/>
      <point x="791" y="241"/>
      <point x="791" y="0" type="curve"/>
      <point x="951" y="0"/>
      <point x="791" y="0"/>
      <point x="951" y="0" type="curve"/>
      <point x="951" y="241"/>
      <point x="951" y="481"/>
      <point x="951" y="722" type="curve"/>
    </contour>
    <contour>
      <point x="1227" y="117"/>
      <point x="1227" y="0"/>
      <point x="1227" y="117" type="curve"/>
      <point x="1059" y="117"/>
      <point x="1227" y="117"/>
      <point x="1059" y="117" type="curve"/>
      <point x="1059" y="0"/>
      <point x="1059" y="117"/>
      <point x="1059" y="0" type="curve"/>
      <point x="1115" y="0"/>
      <point x="1171" y="0"/>
      <point x="1227" y="0" type="curve"/>
    </contour>
    <contour>
      <point x="1227" y="0"/>
      <point x="1227" y="117"/>
      <point x="1227" y="0" type="curve"/>
      <point x="1287" y="0"/>
      <point x="1348" y="0"/>
      <point x="1408" y="0" type="curve"/>
      <point x="1408" y="117"/>
      <point x="1408" y="0"/>
      <point x="1408" y="117" type="curve"/>
      <point x="1227" y="117"/>
      <point x="1408" y="117"/>
      <point x="1227" y="117" type="curve"/>
    </contour>
    <contour>
      <point x="697" y="847"/>
      <point x="640" y="980"/>
      <point x="697" y="847" type="curve"/>
      <point x="756" y="864"/>
      <point x="789" y="879"/>
      <point x="835" y="879" type="curve"/>
      <point x="986" y="879"/>
      <point x="1069" y="772"/>
      <point x="1156" y="645" type="curve"/>
      <point x="1302" y="674"/>
      <point x="1156" y="645"/>
      <point x="1302" y="674" type="curve"/>
      <point x="1182" y="856"/>
      <point x="1070" y="1013"/>
      <point x="857" y="1013" type="curve"/>
      <point x="778" y="1013"/>
      <point x="715" y="1002"/>
      <point x="640" y="980" type="curve"/>
    </contour>
  </outline>
</glyph>
<glyph name="dvKHA" format="1">
  <advance width="1206"/>
  <unicode hex="0916"/>
  <outline>
    <contour>
      <point x="1008" y="0"/>
      <point x="1008" y="117"/>
      <point x="1008" y="0" type="curve"/>
      <point x="1068" y="0"/>
      <point x="1129" y="0"/>
      <point x="1189" y="0" type="curve"/>
      <point x="1189" y="117"/>
      <point x="1189" y="0"/>
      <point x="1189" y="117" type="curve"/>
      <point x="1008" y="117"/>
      <point x="1189" y="117"/>
      <point x="1008" y="117" type="curve"/>
    </contour>
    <contour>
      <point x="928" y="710"/>
      <point x="1088" y="710"/>
      <point x="928" y="710" type="curve"/>
      <point x="928" y="473"/>
      <point x="928" y="237"/>
      <point x="928" y="0" type="curve"/>
      <point x="1088" y="0"/>
      <point x="928" y="0"/>
      <point x="1088" y="0" type="curve"/>
      <point x="1088" y="237"/>
      <point x="1088" y="473"/>
      <point x="1088" y="710" type="curve"/>
    </contour>
    <contour>
      <point x="-16" y="605"/>
      <point x="-16" y="722"/>
      <point x="-16" y="605" type="curve"/>
      <point x="399" y="605"/>
      <point x="814" y="605"/>
      <point x="1229" y="605" type="curve"/>
      <point x="1229" y="722"/>
      <point x="1229" y="605"/>
      <point x="1229" y="722" type="curve"/>
      <point x="814" y="722"/>
      <point x="399" y="722"/>
      <point x="-16" y="722" type="curve"/>
    </contour>
    <contour>
      <point x="1058" y="474"/>
      <point x="956" y="398"/>
      <point x="1058" y="474" type="curve"/>
      <point x="991" y="533"/>
      <point x="911" y="549"/>
      <point x="822" y="549" type="curve"/>
      <point x="680" y="549"/>
      <point x="572" y="505"/>
      <point x="572" y="376" type="curve"/>
      <point x="572" y="249"/>
      <point x="686" y="204"/>
      <point x="824" y="204" type="curve"/>
      <point x="914" y="204"/>
      <point x="995" y="223"/>
      <point x="1062" y="288" type="curve"/>
      <point x="953" y="358"/>
      <point x="1062" y="288"/>
      <point x="953" y="358" type="curve"/>
      <point x="915" y="326"/>
      <point x="871" y="321"/>
      <point x="824" y="321" type="curve"/>
      <point x="776" y="321"/>
      <point x="732" y="333"/>
      <point x="732" y="376" type="curve"/>
      <point x="732" y="419"/>
      <point x="774" y="432"/>
      <point x="822" y="432" type="curve"/>
      <point x="872" y="432"/>
      <point x="916" y="430"/>
      <point x="956" y="398" type="curve"/>
    </contour>
    <contour>
      <point x="728" y="291"/>
      <point x="859" y="261"/>
      <point x="728" y="291" type="curve"/>
      <point x="678" y="199"/>
      <point x="571" y="179"/>
      <point x="447" y="179" type="curve"/>
      <point x="277" y="179"/>
      <point x="160" y="294"/>
      <point x="160" y="462" type="curve"/>
      <point x="28" y="433"/>
      <point x="160" y="462"/>
      <point x="28" y="433" type="curve"/>
      <point x="28" y="208"/>
      <point x="190" y="62"/>
      <point x="440" y="62" type="curve"/>
      <point x="629" y="62"/>
      <point x="783" y="118"/>
      <point x="859" y="261" type="curve"/>
    </contour>
    <contour>
      <point x="248" y="629"/>
      <point x="343" y="700"/>
      <point x="248" y="629" type="curve"/>
      <point x="302" y="593"/>
      <point x="343" y="554"/>
      <point x="343" y="490" type="curve"/>
      <point x="343" y="452"/>
      <point x="314" y="430"/>
      <point x="275" y="430" type="curve"/>
      <point x="227" y="430"/>
      <point x="190" y="428"/>
      <point x="160" y="462" type="curve"/>
      <point x="28" y="433"/>
      <point x="160" y="462"/>
      <point x="28" y="433" type="curve"/>
      <point x="93" y="354"/>
      <point x="161" y="313"/>
      <point x="268" y="313" type="curve"/>
      <point x="399" y="313"/>
      <point x="503" y="375"/>
      <point x="503" y="495" type="curve"/>
      <point x="503" y="595"/>
      <point x="427" y="644"/>
      <point x="343" y="700" type="curve"/>
    </contour>
  </outline>
</glyph>
<glyph name="dvGA" format="1">
  <advance width="857"/>
  <unicode hex="0917"/>
  <outline>
    <contour>
      <point x="28.2" y="285.83042735"/>
      <point x="130.4" y="379.27042735"/>
      <point x="28.2" y="285.83042735" type="curve"/>
      <point x="50.3311156039" y="273.152375837"/>
      <point x="75.1688843961" y="265.928820744"/>
      <point x="97.3" y="253.250769231" type="curve"/>
      <point x="243.3" y="305.810769231"/>
      <point x="97.3" y="253.250769231"/>
      <point x="243.3" y="305.810769231" type="curve"/>
      <point x="204.639782103" y="328.680841933"/>
      <point x="169.060217897" y="356.400354649"/>
      <point x="130.4" y="379.27042735" type="curve"/>
    </contour>
    <contour>
      <point x="125.8" y="630.186837607"/>
      <point x="249.9" y="694.426837607"/>
      <point x="125.8" y="630.186837607" type="curve"/>
      <point x="226.301499471" y="593.753431784"/>
      <point x="305.963343763" y="539.066004605"/>
      <point x="306.2" y="435.628205128" type="curve"/>
      <point x="306.2" y="375.267467787"/>
      <point x="256.723347961" y="341.712877493"/>
      <point x="192.7" y="341.712877493" type="curve"/>
      <point x="159.599377425" y="341.712877493"/>
      <point x="130.4" y="350.717755962"/>
      <point x="130.4" y="379.27042735" type="curve"/>
      <point x="28.2" y="285.83042735"/>
      <point x="130.4" y="379.27042735"/>
      <point x="28.2" y="285.83042735" type="curve"/>
      <point x="28" y="234"/>
      <point x="94" y="212"/>
      <point x="163" y="212" type="curve"/>
      <point x="330" y="212"/>
      <point x="459.5" y="302.960217784"/>
      <point x="459.5" y="464.828205128" type="curve"/>
      <point x="458.147469746" y="585.409939759"/>
      <point x="366.166128114" y="648.713319628"/>
      <point x="249.9" y="694.426837607" type="curve"/>
    </contour>
    <contour>
      <point x="865" y="722"/>
      <point x="865" y="605"/>
      <point x="865" y="722" type="curve"/>
      <point x="572.343419062" y="722.0"/>
      <point x="278.797069" y="722.0"/>
      <point x="-14.3" y="722" type="curve"/>
      <point x="-14.3" y="605.2"/>
      <point x="-14.3" y="722"/>
      <point x="-14.3" y="605.2" type="curve"/>
      <point x="278.797069" y="605.2"/>
      <point x="572.343419062" y="605.0"/>
      <point x="865" y="605" type="curve"/>
    </contour>
    <contour>
      <point x="569.7" y="710"/>
      <point x="730.3" y="710"/>
      <point x="569.7" y="710" type="curve"/>
      <point x="569.7" y="473.3357"/>
      <point x="569.7" y="236.6643"/>
      <point x="569.7" y="7.86687121695e-15" type="curve"/>
      <point x="730.3" y="-1.57337424339e-14"/>
      <point x="569.7" y="7.86687121695e-15"/>
      <point x="730.3" y="-1.57337424339e-14" type="curve"/>
      <point x="730.3" y="236.6643"/>
      <point x="730.3" y="473.3357"/>
      <point x="730.3" y="710" type="curve"/>
    </contour>
  </outline>
</glyph>
<glyph name="dvNGA" format="1">
  <advance width="936"/>
  <unicode hex="0919"/>
  <outline>
    <contour>
      <point x="896" y="403"/>
      <point x="686" y="403"/>
      <point x="896" y="403" type="curve"/>
      <point x="896" y="457"/>
      <point x="850" y="485"/>
      <point x="792" y="485" type="curve"/>
      <point x="730" y="485"/>
      <point x="686" y="452"/>
      <point x="686" y="403" type="curve"/>
      <point x="896" y="403"/>
      <point x="686" y="403"/>
      <point x="896" y="403" type="curve"/>
      <point x="896" y="344"/>
      <point x="850" y="321"/>
      <point x="792" y="321" type="curve"/>
      <point x="730" y="321"/>
      <point x="686" y="349"/>
      <point x="686" y="403" type="curve"/>
    </contour>
    <contour>
      <point x="636" y="451"/>
      <point x="476" y="568"/>
      <point x="636" y="451" type="curve"/>
      <point x="636" y="522"/>
      <point x="636" y="592"/>
      <point x="636" y="663" type="curve"/>
      <point x="476" y="663"/>
      <point x="636" y="663"/>
      <point x="476" y="663" type="curve"/>
      <point x="476" y="631"/>
      <point x="476" y="599"/>
      <point x="476" y="568" type="curve"/>
    </contour>
    <contour>
      <point x="476" y="568"/>
      <point x="636" y="451"/>
      <point x="476" y="568" type="curve"/>
      <point x="416" y="568"/>
      <point x="357" y="568"/>
      <point x="298" y="568" type="curve"/>
      <point x="146" y="568"/>
      <point x="23" y="546"/>
      <point x="23" y="409" type="curve"/>
      <point x="23" y="299"/>
      <point x="106" y="260"/>
      <point x="208" y="218" type="curve"/>
      <point x="227" y="347"/>
      <point x="208" y="218"/>
      <point x="227" y="347" type="curve"/>
      <point x="208" y="357"/>
      <point x="184" y="369"/>
      <point x="184" y="405" type="curve"/>
      <point x="184" y="459"/>
      <point x="239" y="451"/>
      <point x="298" y="451" type="curve"/>
      <point x="411" y="451"/>
      <point x="524" y="451"/>
      <point x="636" y="451" type="curve"/>
    </contour>
    <contour>
      <point x="208" y="218"/>
      <point x="227" y="347"/>
      <point x="208" y="218" type="curve"/>
      <point x="298" y="246"/>
      <point x="353" y="267"/>
      <point x="448" y="267" type="curve"/>
      <point x="506" y="267"/>
      <point x="556" y="262"/>
      <point x="556" y="220" type="curve"/>
      <point x="556" y="144"/>
      <point x="464" y="145"/>
      <point x="361" y="145" type="curve"/>
      <point x="261" y="145"/>
      <point x="199" y="166"/>
      <point x="127" y="203" type="curve"/>
      <point x="58" y="101"/>
      <point x="127" y="203"/>
      <point x="58" y="101" type="curve"/>
      <point x="120" y="65"/>
      <point x="202" y="23"/>
      <point x="361" y="23" type="curve"/>
      <point x="559" y="23"/>
      <point x="717" y="49"/>
      <point x="717" y="220" type="curve"/>
      <point x="715" y="346"/>
      <point x="607" y="384"/>
      <point x="463" y="384" type="curve"/>
      <point x="373" y="385"/>
      <point x="312" y="385"/>
      <point x="227" y="347" type="curve"/>
    </contour>
    <contour>
      <point x="-11" y="605"/>
      <point x="-11" y="722"/>
      <point x="-11" y="605" type="curve"/>
      <point x="302" y="605"/>
      <point x="635" y="605"/>
      <point x="948" y="605" type="curve"/>
      <point x="948" y="722"/>
      <point x="948" y="605"/>
      <point x="948" y="722" type="curve"/>
      <point x="635" y="722"/>
      <point x="302" y="722"/>
      <point x="-11" y="722" type="curve"/>
    </contour>
  </outline>
</glyph>
<glyph name="dvJA" format="1">
  <advance width="1075"/>
  <unicode hex="091C"/>
  <outline>
    <contour>
      <point x="868" y="0"/>
      <point x="868" y="117"/>
      <point x="868" y="0" type="curve"/>
      <point x="933" y="0"/>
      <point x="997" y="0"/>
      <point x="1062" y="0" type="curve"/>
      <point x="1062" y="117"/>
      <point x="1062" y="0"/>
      <point x="1062" y="117" type="curve"/>
      <point x="868" y="117"/>
      <point x="1062" y="117"/>
      <point x="868" y="117" type="curve"/>
    </contour>
    <contour>
      <point x="868" y="117"/>
      <point x="868" y="0"/>
      <point x="868" y="117" type="curve"/>
      <point x="687" y="117"/>
      <point x="868" y="117"/>
      <point x="687" y="117" type="curve"/>
      <point x="687" y="0"/>
      <point x="687" y="117"/>
      <point x="687" y="0" type="curve"/>
      <point x="747" y="0"/>
      <point x="808" y="0"/>
      <point x="868" y="0" type="curve"/>
    </contour>
    <contour>
      <point x="788" y="710"/>
      <point x="948" y="710"/>
      <point x="788" y="710" type="curve"/>
      <point x="788" y="473"/>
      <point x="788" y="237"/>
      <point x="788" y="0" type="curve"/>
      <point x="948" y="0"/>
      <point x="788" y="0"/>
      <point x="948" y="0" type="curve"/>
      <point x="948" y="237"/>
      <point x="948" y="473"/>
      <point x="948" y="710" type="curve"/>
    </contour>
    <contour>
      <point x="-7" y="605"/>
      <point x="-7" y="722"/>
      <point x="-7" y="605" type="curve"/>
      <point x="342" y="605"/>
      <point x="741" y="605"/>
      <point x="1090" y="605" type="curve"/>
      <point x="1090" y="722"/>
      <point x="1090" y="605"/>
      <point x="1090" y="722" type="curve"/>
      <point x="741" y="722"/>
      <point x="342" y="722"/>
      <point x="-7" y="722" type="curve"/>
    </contour>
    <contour>
      <point x="868" y="517"/>
      <point x="868" y="400"/>
      <point x="868" y="517" type="curve"/>
      <point x="676" y="517"/>
      <point x="483" y="517"/>
      <point x="291" y="517" type="curve"/>
      <point x="291" y="400"/>
      <point x="291" y="517"/>
      <point x="291" y="400" type="curve"/>
      <point x="483" y="400"/>
      <point x="676" y="400"/>
      <point x="868" y="400" type="curve"/>
    </contour>
    <contour>
      <point x="291" y="400"/>
      <point x="291" y="517"/>
      <point x="291" y="400" type="curve"/>
      <point x="405" y="400"/>
      <point x="512" y="387"/>
      <point x="512" y="289" type="curve"/>
      <point x="512" y="215"/>
      <point x="435" y="202"/>
      <point x="350" y="202" type="curve"/>
      <point x="260" y="202"/>
      <point x="179" y="224"/>
      <point x="142" y="303" type="curve"/>
      <point x="17" y="262"/>
      <point x="142" y="303"/>
      <point x="17" y="262" type="curve"/>
      <point x="73" y="132"/>
      <point x="198" y="85"/>
      <point x="342" y="85" type="curve"/>
      <point x="520" y="85"/>
      <point x="673" y="142"/>
      <point x="673" y="300" type="curve"/>
      <point x="673" y="473"/>
      <point x="490" y="517"/>
      <point x="291" y="517" type="curve"/>
    </contour>
  </outline>
</glyph>
<glyph name="dvJHA" format="1">
  <advance width="1179"/>
  <unicode hex="091D"/>
  <outline>
    <contour>
      <point x="978" y="0"/>
      <point x="978" y="117"/>
      <point x="978" y="0" type="curve"/>
      <point x="1038" y="0"/>
      <point x="1098" y="0"/>
      <point x="1159" y="0" type="curve"/>
      <point x="1159" y="117"/>
      <point x="1159" y="0"/>
      <point x="1159" y="117" type="curve"/>
      <point x="978" y="117"/>
      <point x="1159" y="117"/>
      <point x="978" y="117" type="curve"/>
    </contour>
    <contour>
      <point x="978" y="117"/>
      <point x="978" y="0"/>
      <point x="978" y="117" type="curve"/>
      <point x="784" y="117"/>
      <point x="978" y="117"/>
      <point x="784" y="117" type="curve"/>
      <point x="784" y="0"/>
      <point x="784" y="117"/>
      <point x="784" y="0" type="curve"/>
      <point x="848" y="0"/>
      <point x="913" y="0"/>
      <point x="978" y="0" type="curve"/>
    </contour>
    <contour>
      <point x="1193" y="722"/>
      <point x="1193" y="605"/>
      <point x="1193" y="722" type="curve"/>
      <point x="812" y="722"/>
      <point x="371" y="722"/>
      <point x="-10" y="722" type="curve"/>
      <point x="-10" y="605"/>
      <point x="-10" y="722"/>
      <point x="-10" y="605" type="curve"/>
      <point x="371" y="605"/>
      <point x="812" y="605"/>
      <point x="1193" y="605" type="curve"/>
    </contour>
    <contour>
      <point x="634" y="451"/>
      <point x="474" y="568"/>
      <point x="634" y="451" type="curve"/>
      <point x="634" y="522"/>
      <point x="634" y="592"/>
      <point x="634" y="663" type="curve"/>
      <point x="474" y="663"/>
      <point x="634" y="663"/>
      <point x="474" y="663" type="curve"/>
      <point x="474" y="631"/>
      <point x="474" y="599"/>
      <point x="474" y="568" type="curve"/>
    </contour>
    <contour>
      <point x="474" y="568"/>
      <point x="634" y="451"/>
      <point x="474" y="568" type="curve"/>
      <point x="414" y="568"/>
      <point x="355" y="568"/>
      <point x="296" y="568" type="curve"/>
      <point x="144" y="568"/>
      <point x="21" y="546"/>
      <point x="21" y="409" type="curve"/>
      <point x="21" y="299"/>
      <point x="104" y="260"/>
      <point x="208" y="238" type="curve"/>
      <point x="227" y="364"/>
      <point x="208" y="238"/>
      <point x="227" y="364" type="curve"/>
      <point x="204" y="375"/>
      <point x="182" y="383"/>
      <point x="182" y="409" type="curve"/>
      <point x="182" y="463"/>
      <point x="237" y="451"/>
      <point x="296" y="451" type="curve"/>
      <point x="409" y="451"/>
      <point x="522" y="451"/>
      <point x="634" y="451" type="curve"/>
    </contour>
    <contour>
      <point x="208" y="238"/>
      <point x="227" y="364"/>
      <point x="208" y="238" type="curve"/>
      <point x="289" y="248"/>
      <point x="351" y="267"/>
      <point x="446" y="267" type="curve"/>
      <point x="504" y="267"/>
      <point x="554" y="265"/>
      <point x="554" y="215" type="curve"/>
      <point x="554" y="133"/>
      <point x="462" y="141"/>
      <point x="359" y="141" type="curve"/>
      <point x="287" y="141"/>
      <point x="234" y="149"/>
      <point x="209" y="213" type="curve"/>
      <point x="77" y="131"/>
      <point x="209" y="213"/>
      <point x="77" y="131" type="curve"/>
      <point x="119" y="12"/>
      <point x="226" y="24"/>
      <point x="359" y="24" type="curve"/>
      <point x="556" y="24"/>
      <point x="715" y="49"/>
      <point x="715" y="220" type="curve"/>
      <point x="713" y="346"/>
      <point x="605" y="384"/>
      <point x="461" y="384" type="curve"/>
      <point x="371" y="385"/>
      <point x="311" y="387"/>
      <point x="227" y="364" type="curve"/>
    </contour>
    <contour>
      <point x="77" y="131"/>
      <point x="209" y="213"/>
      <point x="77" y="131" type="curve"/>
      <point x="177" y="53"/>
      <point x="272" y="-30"/>
      <point x="372" y="-109" type="curve"/>
      <point x="518" y="-22"/>
      <point x="372" y="-109"/>
      <point x="518" y="-22" type="curve"/>
      <point x="416" y="58"/>
      <point x="311" y="133"/>
      <point x="209" y="213" type="curve"/>
    </contour>
    <contour>
      <point x="451" y="281"/>
      <point x="458" y="374"/>
      <point x="451" y="281" type="curve"/>
      <point x="513" y="275"/>
      <point x="621" y="246"/>
      <point x="731" y="246" type="curve"/>
      <point x="835" y="245"/>
      <point x="958" y="267"/>
      <point x="1012" y="299" type="curve"/>
      <point x="939" y="392"/>
      <point x="1012" y="299"/>
      <point x="939" y="392" type="curve"/>
      <point x="894" y="371"/>
      <point x="819" y="363"/>
      <point x="746" y="363" type="curve"/>
      <point x="638" y="363"/>
      <point x="534" y="374"/>
      <point x="458" y="374" type="curve"/>
    </contour>
    <contour>
      <point x="896" y="662"/>
      <point x="1057" y="662"/>
      <point x="896" y="662" type="curve"/>
      <point x="896" y="458"/>
      <point x="896" y="254"/>
      <point x="896" y="50" type="curve"/>
      <point x="1057" y="50"/>
      <point x="896" y="50"/>
      <point x="1057" y="50" type="curve"/>
      <point x="1057" y="254"/>
      <point x="1057" y="458"/>
      <point x="1057" y="662" type="curve"/>
    </contour>
  </outline>
</glyph>
<glyph name="dvNYA" format="1">
  <advance width="1021"/>
  <unicode hex="091E"/>
  <outline>
    <contour>
      <point x="821.6" y="116.8"/>
      <point x="821.6" y="0"/>
      <point x="821.6" y="116.8" type="curve"/>
      <point x="627.7" y="116.8"/>
      <point x="821.6" y="116.8"/>
      <point x="627.7" y="116.8" type="curve"/>
      <point x="627.7" y="0"/>
      <point x="627.7" y="116.8"/>
      <point x="627.7" y="0" type="curve"/>
      <point x="692.332687" y="-7.91495991648e-15"/>
      <point x="756.967313" y="7.91495991648e-15"/>
      <point x="821.6" y="0" type="curve"/>
    </contour>
    <contour>
      <point x="821.6" y="0"/>
      <point x="821.6" y="116.8"/>
      <point x="821.6" y="0" type="curve"/>
      <point x="881.899397" y="0"/>
      <point x="942.200603" y="0"/>
      <point x="1002.5" y="0" type="curve"/>
      <point x="1002.5" y="116.8"/>
      <point x="1002.5" y="0"/>
      <point x="1002.5" y="116.8" type="curve"/>
      <point x="821.6" y="116.8"/>
      <point x="1002.5" y="116.8"/>
      <point x="821.6" y="116.8" type="curve"/>
    </contour>
    <contour>
      <point x="741.3" y="710"/>
      <point x="901.9" y="710"/>
      <point x="741.3" y="710" type="curve"/>
      <point x="741.3" y="473.3357"/>
      <point x="741.3" y="236.6643"/>
      <point x="741.3" y="7.86687121695e-15" type="curve"/>
      <point x="901.9" y="-1.57337424339e-14"/>
      <point x="741.3" y="7.86687121695e-15"/>
      <point x="901.9" y="-1.57337424339e-14" type="curve"/>
      <point x="901.9" y="236.6643"/>
      <point x="901.9" y="473.3357"/>
      <point x="901.9" y="710" type="curve"/>
    </contour>
    <contour>
      <point x="548.6" y="272.620968661"/>
      <point x="548.6" y="401.100968661"/>
      <point x="548.6" y="272.620968661" type="curve"/>
      <point x="664.170457023" y="247.316466814"/>
      <point x="734.782145894" y="248.836836724"/>
      <point x="847.8" y="284.398347578" type="curve"/>
      <point x="796.7" y="395.358347578"/>
      <point x="847.8" y="284.398347578"/>
      <point x="796.7" y="395.358347578" type="curve"/>
      <point x="702.152175372" y="365.665743972"/>
      <point x="645.190020259" y="380.34223669"/>
      <point x="548.6" y="401.100968661" type="curve"/>
    </contour>
    <contour>
      <point x="182.1" y="422.043532764"/>
      <point x="109.1" y="515.483532764"/>
      <point x="182.1" y="422.043532764" type="curve"/>
      <point x="225.637158717" y="444.842946068"/>
      <point x="262.43048051" y="452.606837607"/>
      <point x="312" y="452.606837607" type="curve"/>
      <point x="398.847806775" y="452.606837607"/>
      <point x="466.126445728" y="416.598785053"/>
      <point x="467.0" y="337.723076923" type="curve"/>
      <point x="467.922590463" y="251.473738056"/>
      <point x="385.720365361" y="223.701424501"/>
      <point x="286.4" y="223.701424501" type="curve"/>
      <point x="217.00291315" y="223.701424501"/>
      <point x="163" y="239"/>
      <point x="116.5" y="287.609116809" type="curve"/>
      <point x="28" y="207"/>
      <point x="117" y="288"/>
      <point x="28" y="207" type="curve"/>
      <point x="83" y="147"/>
      <point x="164.853074633" y="106.901424501"/>
      <point x="279.1" y="106.901424501" type="curve"/>
      <point x="470.060829454" y="106.901424501"/>
      <point x="627.951280931" y="168.50461541"/>
      <point x="627.6" y="337.723076923" type="curve"/>
      <point x="627.256587488" y="497.725930085"/>
      <point x="487.918708396" y="569.406837607"/>
      <point x="312" y="569.406837607" type="curve"/>
      <point x="233.556535395" y="569.406837607"/>
      <point x="177.140568595" y="554.207983912"/>
      <point x="109.1" y="515.483532764" type="curve"/>
    </contour>
    <contour>
      <point x="1038" y="722"/>
      <point x="1038" y="605"/>
      <point x="1038" y="722" type="curve"/>
      <point x="694" y="722"/>
      <point x="329.763226" y="722"/>
      <point x="-14.3" y="722" type="curve"/>
      <point x="-14.3" y="605.2"/>
      <point x="-14.3" y="722"/>
      <point x="-14.3" y="605.2" type="curve"/>
      <point x="329.763226" y="605.2"/>
      <point x="694" y="605"/>
      <point x="1038" y="605" type="curve"/>
    </contour>
  </outline>
</glyph>
<glyph name="dvPA" format="1">
  <advance width="808.0"/>
  <unicode hex="092A"/>
  <outline>
    <contour>
      <point x="614" y="0"/>
      <point x="614" y="117"/>
      <point x="614" y="0" type="curve"/>
      <point x="674" y="0"/>
      <point x="735" y="0"/>
      <point x="795" y="0" type="curve"/>
      <point x="795" y="117"/>
      <point x="795" y="0"/>
      <point x="795" y="117" type="curve"/>
      <point x="614" y="117"/>
      <point x="795" y="117"/>
      <point x="614" y="117" type="curve"/>
    </contour>
    <contour>
      <point x="614" y="117"/>
      <point x="614" y="0"/>
      <point x="614" y="117" type="curve"/>
      <point x="420" y="117"/>
      <point x="614" y="117"/>
      <point x="420" y="117" type="curve"/>
      <point x="420" y="0"/>
      <point x="420" y="117"/>
      <point x="420" y="0" type="curve"/>
      <point x="485" y="0"/>
      <point x="549" y="0"/>
      <point x="614" y="0" type="curve"/>
    </contour>
    <contour>
      <point x="564" y="388"/>
      <point x="673" y="341"/>
      <point x="564" y="388" type="curve"/>
      <point x="522" y="325"/>
      <point x="460" y="325"/>
      <point x="386" y="325" type="curve"/>
      <point x="316" y="325"/>
      <point x="259" y="346"/>
      <point x="259" y="408" type="curve"/>
      <point x="259" y="493"/>
      <point x="259" y="577"/>
      <point x="259" y="662" type="curve"/>
      <point x="98" y="662"/>
      <point x="259" y="662"/>
      <point x="98" y="662" type="curve"/>
      <point x="98" y="583"/>
      <point x="98" y="504"/>
      <point x="98" y="425" type="curve"/>
      <point x="98" y="275"/>
      <point x="220" y="203"/>
      <point x="378" y="203" type="curve"/>
      <point x="506" y="203"/>
      <point x="605" y="232"/>
      <point x="673" y="341" type="curve"/>
    </contour>
    <contour>
      <point x="-22" y="605"/>
      <point x="-22" y="722"/>
      <point x="-22" y="605" type="curve"/>
      <point x="237" y="605"/>
      <point x="584" y="605"/>
      <point x="842" y="605" type="curve"/>
      <point x="842" y="722"/>
      <point x="842" y="605"/>
      <point x="842" y="722" type="curve"/>
      <point x="584" y="722"/>
      <point x="237" y="722"/>
      <point x="-22" y="722" type="curve"/>
    </contour>
    <contour>
      <point x="534" y="662"/>
      <point x="694" y="662"/>
      <point x="534" y="662" type="curve"/>
      <point x="534" y="458"/>
      <point x="534" y="254"/>
      <point x="534" y="50" type="curve"/>
      <point x="694" y="50"/>
      <point x="534" y="50"/>
      <point x="694" y="50" type="curve"/>
      <point x="694" y="254"/>
      <point x="694" y="458"/>
      <point x="694" y="662" type="curve"/>
    </contour>
  </outline>
</glyph>
<glyph name="dvPHA" format="1">
  <advance width="1155"/>
  <unicode hex="092B"/>
  <outline>
    <contour>
      <point x="574.6" y="116.8"/>
      <point x="574.6" y="0"/>
      <point x="574.6" y="116.8" type="curve"/>
      <point x="380.7" y="116.8"/>
      <point x="574.6" y="116.8"/>
      <point x="380.7" y="116.8" type="curve"/>
      <point x="380.7" y="0"/>
      <point x="380.7" y="116.8"/>
      <point x="380.7" y="0" type="curve"/>
      <point x="445.332687" y="-7.91495991648e-15"/>
      <point x="509.967313" y="7.91495991648e-15"/>
      <point x="574.6" y="0" type="curve"/>
    </contour>
    <contour>
      <point x="574.6" y="0"/>
      <point x="574.6" y="116.8"/>
      <point x="574.6" y="0" type="curve"/>
      <point x="634.899397" y="0"/>
      <point x="695.200603" y="0"/>
      <point x="755.5" y="0" type="curve"/>
      <point x="755.5" y="116.8"/>
      <point x="755.5" y="0"/>
      <point x="755.5" y="116.8" type="curve"/>
      <point x="574.6" y="116.8"/>
      <point x="755.5" y="116.8"/>
      <point x="574.6" y="116.8" type="curve"/>
    </contour>
    <contour>
      <point x="1181" y="722"/>
      <point x="1181" y="605"/>
      <point x="1181" y="722" type="curve"/>
      <point x="789" y="722"/>
      <point x="376.562745" y="722"/>
      <point x="-15.6" y="722" type="curve"/>
      <point x="-15.6" y="605.2"/>
      <point x="-15.6" y="722"/>
      <point x="-15.6" y="605.2" type="curve"/>
      <point x="376.562745" y="605.2"/>
      <point x="789" y="605"/>
      <point x="1181" y="605" type="curve"/>
    </contour>
    <contour>
      <point x="44.5" y="661.875783476"/>
      <point x="205.1" y="661.875783476"/>
      <point x="44.5" y="661.875783476" type="curve"/>
      <point x="44.5" y="583.039971652"/>
      <point x="44.5" y="504.20179473"/>
      <point x="44.5" y="425.365982906" type="curve"/>
      <point x="44.5" y="269.525360071"/>
      <point x="163.510408991" y="185.645413105"/>
      <point x="324.7" y="185.645413105" type="curve"/>
      <point x="451.019929478" y="185.645413105"/>
      <point x="557.513745465" y="212.861947437"/>
      <point x="623.6" y="319.063133903" type="curve"/>
      <point x="536.0" y="389.143133903"/>
      <point x="623.6" y="319.063133903"/>
      <point x="536.0" y="389.143133903" type="curve"/>
      <point x="495.132913739" y="327.086102336"/>
      <point x="429.16829998" y="319.965413105"/>
      <point x="353.9" y="319.965413105" type="curve"/>
      <point x="273.781142144" y="319.965413105"/>
      <point x="205.1" y="337.010612525"/>
      <point x="205.1" y="407.845982906" type="curve"/>
      <point x="205.1" y="492.52173633"/>
      <point x="205.1" y="577.200030052"/>
      <point x="205.1" y="661.875783476" type="curve"/>
    </contour>
    <contour>
      <point x="493.0" y="710"/>
      <point x="653.6" y="710"/>
      <point x="493.0" y="710" type="curve"/>
      <point x="493.0" y="473.3357"/>
      <point x="493.0" y="236.6643"/>
      <point x="493.0" y="7.86687121695e-15" type="curve"/>
      <point x="653.6" y="-1.57337424339e-14"/>
      <point x="493.0" y="7.86687121695e-15"/>
      <point x="653.6" y="-1.57337424339e-14" type="curve"/>
      <point x="653.6" y="236.6643"/>
      <point x="653.6" y="473.3357"/>
      <point x="653.6" y="710" type="curve"/>
    </contour>
    <contour>
      <point x="637.3" y="329.964102564"/>
      <point x="510" y="311"/>
      <point x="634" y="311" type="curve"/>
      <point x="662" y="381"/>
      <point x="745.623811414" y="399.156125356"/>
      <point x="824.2" y="399.156125356" type="curve"/>
      <point x="896.062933897" y="399.156125356"/>
      <point x="966.2" y="383.626597087"/>
      <point x="966.2" y="321.343019943" type="curve"/>
      <point x="966.2" y="263.612874989"/>
      <point x="908.329752149" y="236.633048433"/>
      <point x="843.7" y="236.633048433" type="curve"/>
      <point x="825.37649522" y="236.633048433"/>
      <point x="810.031311088" y="239.157119098"/>
      <point x="791.5" y="241.805698006" type="curve"/>
      <point x="769" y="134"/>
      <point x="792" y="242"/>
      <point x="769" y="134" type="curve"/>
      <point x="789" y="128"/>
      <point x="821" y="122"/>
      <point x="855" y="122" type="curve"/>
      <point x="1004" y="122"/>
      <point x="1126.8" y="186.136280914"/>
      <point x="1126.8" y="321.343019943" type="curve"/>
      <point x="1126.8" y="460.441691387"/>
      <point x="982.324635536" y="515.956125356"/>
      <point x="824.2" y="515.956125356" type="curve"/>
      <point x="683.098837105" y="515.956125356"/>
      <point x="561.878222573" y="459.034396725"/>
      <point x="513.2" y="329.964102564" type="curve"/>
    </contour>
  </outline>
</glyph>
<glyph name="dvMA" format="1">
  <advance width="983"/>
  <unicode hex="092E"/>
  <outline>
    <contour>
      <point x="785.2" y="116.8"/>
      <point x="785.2" y="0"/>
      <point x="785.2" y="116.8" type="curve"/>
      <point x="591.3" y="116.8"/>
      <point x="785.2" y="116.8"/>
      <point x="591.3" y="116.8" type="curve"/>
      <point x="591.3" y="0"/>
      <point x="591.3" y="116.8"/>
      <point x="591.3" y="0" type="curve"/>
      <point x="655.932687" y="-7.91495991648e-15"/>
      <point x="720.567313" y="7.91495991648e-15"/>
      <point x="785.2" y="0" type="curve"/>
    </contour>
    <contour>
      <point x="785.2" y="0"/>
      <point x="785.2" y="116.8"/>
      <point x="785.2" y="0" type="curve"/>
      <point x="845.499397" y="0"/>
      <point x="905.800603" y="0"/>
      <point x="966.1" y="0" type="curve"/>
      <point x="966.1" y="116.8"/>
      <point x="966.1" y="0"/>
      <point x="966.1" y="116.8" type="curve"/>
      <point x="785.2" y="116.8"/>
      <point x="966.1" y="116.8"/>
      <point x="785.2" y="116.8" type="curve"/>
    </contour>
    <contour>
      <point x="862.9" y="0"/>
      <point x="702.3" y="7.86687121695e-15"/>
      <point x="862.9" y="0" type="curve"/>
      <point x="862.9" y="240.66426"/>
      <point x="862.9" y="481.33574"/>
      <point x="862.9" y="722" type="curve"/>
      <point x="702.3" y="722"/>
      <point x="862.9" y="722"/>
      <point x="702.3" y="722" type="curve"/>
      <point x="702.3" y="481.33574"/>
      <point x="702.3" y="240.66426"/>
      <point x="702.3" y="7.86687121695e-15" type="curve"/>
    </contour>
    <contour>
      <point x="-13.0" y="605.2"/>
      <point x="-13.0" y="722"/>
      <point x="-13.0" y="605.2" type="curve"/>
      <point x="318.930014" y="605.2"/>
      <point x="671" y="605"/>
      <point x="1003" y="605" type="curve"/>
      <point x="1003" y="722"/>
      <point x="1003" y="605"/>
      <point x="1003" y="722" type="curve"/>
      <point x="671" y="722"/>
      <point x="318.930014" y="722"/>
      <point x="-13.0" y="722" type="curve"/>
    </contour>
    <contour>
      <point x="778.7" y="395.260968661"/>
      <point x="778.7" y="278.460968661"/>
      <point x="778.7" y="395.260968661" type="curve"/>
      <point x="613.301654" y="395.260968661"/>
      <point x="447.898346" y="395.260968661"/>
      <point x="282.5" y="395.260968661" type="curve"/>
      <point x="165.945491818" y="395.260968661"/>
      <point x="62.3" y="357.214268936"/>
      <point x="62.3" y="254.195954416" type="curve"/>
      <point x="62.3" y="159.970596143"/>
      <point x="152.312636541" y="118.108831909"/>
      <point x="257.0" y="118.108831909" type="curve"/>
      <point x="372.157286087" y="118.108831909"/>
      <point x="470.3" y="167.049949445"/>
      <point x="470.3" y="271.340740741" type="curve"/>
      <point x="470.3" y="402.09251963"/>
      <point x="470.3" y="532.848221111"/>
      <point x="470.3" y="663.6" type="curve"/>
      <point x="309.7" y="663.6"/>
      <point x="470.3" y="663.6"/>
      <point x="309.7" y="663.6" type="curve"/>
      <point x="309.7" y="532.848221111"/>
      <point x="309.7" y="402.09251963"/>
      <point x="309.7" y="271.340740741" type="curve"/>
      <point x="309.7" y="247.799850562"/>
      <point x="296" y="235"/>
      <point x="271" y="235" type="curve"/>
      <point x="253" y="235"/>
      <point x="239" y="240"/>
      <point x="239" y="257" type="curve"/>
      <point x="239" y="276"/>
      <point x="254" y="278"/>
      <point x="276" y="278" type="curve"/>
      <point x="444" y="278"/>
      <point x="610.868345" y="278.460968661"/>
      <point x="778.7" y="278.460968661" type="curve"/>
    </contour>
  </outline>
</glyph>
<glyph name="dvSHA" format="1">
  <advance width="765"/>
  <unicode hex="0936"/>
  <outline>
    <contour>
      <point x="519.4" y="97.1662678063"/>
      <point x="388" y="-7.95373219373"/>
      <point x="519.4" y="97.1662678063" type="curve"/>
      <point x="388.603288853" y="181.327856718"/>
      <point x="251.896711147" y="255.938752969"/>
      <point x="121.1" y="340.10034188" type="curve"/>
      <point x="-24.9" y="275.86034188"/>
      <point x="121.1" y="340.10034188"/>
      <point x="-24.9" y="275.86034188" type="curve"/>
      <point x="114.814179249" y="184.322157503"/>
      <point x="248.285820751" y="83.584452184"/>
      <point x="388" y="-7.95373219373" type="curve"/>
    </contour>
    <contour>
      <point x="745.2" y="722"/>
      <point x="905.8" y="722"/>
      <point x="745.2" y="722" type="curve"/>
      <point x="745.2" y="481.33574"/>
      <point x="745.2" y="240.66426"/>
      <point x="745.2" y="7.86687121695e-15" type="curve"/>
      <point x="905.8" y="-1.57337424339e-14"/>
      <point x="745.2" y="7.86687121695e-15"/>
      <point x="905.8" y="-1.57337424339e-14" type="curve"/>
      <point x="905.8" y="240.66426"/>
      <point x="905.8" y="481.33574"/>
      <point x="905.8" y="722" type="curve"/>
    </contour>
    <contour>
      <point x="1010.1" y="722"/>
      <point x="1010.1" y="605.2"/>
      <point x="1010.1" y="722" type="curve"/>
      <point x="943.800663" y="722"/>
      <point x="877.499337" y="722"/>
      <point x="811.2" y="722" type="curve"/>
      <point x="811.2" y="605.2"/>
      <point x="811.2" y="722"/>
      <point x="811.2" y="605.2" type="curve"/>
      <point x="877.499337" y="605.2"/>
      <point x="943.800663" y="605.2"/>
      <point x="1010.1" y="605.2" type="curve"/>
    </contour>
    <contour>
      <point x="239.5" y="516.345641026"/>
      <point x="115.4" y="422.905641026"/>
      <point x="239.5" y="516.345641026" type="curve"/>
      <point x="223.008539127" y="526.433773806"/>
      <point x="207.7" y="535.321174499"/>
      <point x="207.7" y="554.014871795" type="curve"/>
      <point x="208.712578191" y="607.213218468"/>
      <point x="268.155502889" y="610.2"/>
      <point x="329.8" y="610.2" type="curve"/>
      <point x="408.295703478" y="610.2"/>
      <point x="468.3" y="566.947797313"/>
      <point x="468.3" y="492.235213675" type="curve"/>
      <point x="468.3" y="353.145638923"/>
      <point x="330.470690301" y="301.291168091"/>
      <point x="171.6" y="301.291168091" type="curve"/>
      <point x="144.331828532" y="301.203697111"/>
      <point x="122.500582328" y="315.066367191"/>
      <point x="121.1" y="340.10034188" type="curve"/>
      <point x="-24.9" y="275.86034188"/>
      <point x="121.1" y="340.10034188"/>
      <point x="-24.9" y="275.86034188" type="curve"/>
      <point x="-23.9989080961" y="189.764098641"/>
      <point x="72.0944295746" y="185.887509668"/>
      <point x="171.6" y="184.491168091" type="curve"/>
      <point x="420.000323949" y="184.491168091"/>
      <point x="628.9" y="281.375303947"/>
      <point x="628.9" y="503.915213675" type="curve"/>
      <point x="628.9" y="653.576626927"/>
      <point x="500.258271623" y="727"/>
      <point x="337.1" y="727" type="curve"/>
      <point x="183.103142841" y="727"/>
      <point x="49.4224517885" y="684.503781102"/>
      <point x="47.1" y="548.174871795" type="curve"/>
      <point x="47.1" y="493.739076065"/>
      <point x="69.0726037229" y="451.596916406"/>
      <point x="115.4" y="422.905641026" type="curve"/>
    </contour>
    <contour>
      <point x="830.7" y="0"/>
      <point x="830.7" y="116.8"/>
      <point x="830.7" y="0" type="curve"/>
      <point x="890.999397" y="0"/>
      <point x="951.300603" y="0"/>
      <point x="1011.6" y="0" type="curve"/>
      <point x="1011.6" y="116.8"/>
      <point x="1011.6" y="0"/>
      <point x="1011.6" y="116.8" type="curve"/>
      <point x="830.7" y="116.8"/>
      <point x="1011.6" y="116.8"/>
      <point x="830.7" y="116.8" type="curve"/>
    </contour>
    <contour>
      <point x="830.7" y="116.8"/>
      <point x="830.7" y="0"/>
      <point x="830.7" y="116.8" type="curve"/>
      <point x="636.8" y="116.8"/>
      <point x="830.7" y="116.8"/>
      <point x="636.8" y="116.8" type="curve"/>
      <point x="636.8" y="0"/>
      <point x="636.8" y="116.8"/>
      <point x="636.8" y="0" type="curve"/>
      <point x="701.432687" y="-7.91495991648e-15"/>
      <point x="766.067313" y="7.91495991648e-15"/>
      <point x="830.7" y="0" type="curve"/>
    </contour>
  </outline>
</glyph>
<glyph name="dvSSA" format="1">
  <advance width="571"/>
  <unicode hex="0937"/>
  <outline>
    <contour>
      <point x="-15.6" y="605.2"/>
      <point x="-15.6" y="722"/>
      <point x="-15.6" y="605.2" type="curve"/>
      <point x="242.664084" y="605.2"/>
      <point x="500.935916" y="605.2"/>
      <point x="759.2" y="605.2" type="curve"/>
      <point x="759.2" y="722"/>
      <point x="759.2" y="605.2"/>
      <point x="759.2" y="722" type="curve"/>
      <point x="500.935916" y="722"/>
      <point x="242.664084" y="722"/>
      <point x="-15.6" y="722" type="curve"/>
    </contour>
    <contour>
      <point x="565.5" y="116.8"/>
      <point x="565.5" y="0"/>
      <point x="565.5" y="116.8" type="curve"/>
      <point x="371.6" y="116.8"/>
      <point x="565.5" y="116.8"/>
      <point x="371.6" y="116.8" type="curve"/>
      <point x="371.6" y="0"/>
      <point x="371.6" y="116.8"/>
      <point x="371.6" y="0" type="curve"/>
      <point x="436.232687" y="-7.91495991648e-15"/>
      <point x="500.867313" y="7.91495991648e-15"/>
      <point x="565.5" y="0" type="curve"/>
    </contour>
    <contour>
      <point x="565.5" y="0"/>
      <point x="565.5" y="116.8"/>
      <point x="565.5" y="0" type="curve"/>
      <point x="625.799397" y="0"/>
      <point x="686.100603" y="0"/>
      <point x="746.4" y="0" type="curve"/>
      <point x="746.4" y="116.8"/>
      <point x="746.4" y="0"/>
      <point x="746.4" y="116.8" type="curve"/>
      <point x="565.5" y="116.8"/>
      <point x="746.4" y="116.8"/>
      <point x="565.5" y="116.8" type="curve"/>
    </contour>
    <contour>
      <point x="61.6" y="621.760512821"/>
      <point x="171.1" y="697.680512821"/>
      <point x="61.6" y="621.760512821" type="curve"/>
      <point x="212.937583314" y="516.144861534"/>
      <point x="361.762416686" y="406.964027355"/>
      <point x="513.1" y="301.348376068" type="curve"/>
      <point x="615.3" y="394.788376068"/>
      <point x="513.1" y="301.348376068"/>
      <point x="615.3" y="394.788376068" type="curve"/>
      <point x="468.059611859" y="496.955725884"/>
      <point x="318.340388141" y="595.513163005"/>
      <point x="171.1" y="697.680512821" type="curve"/>
    </contour>
    <contour>
      <point x="512.7" y="387.808433048"/>
      <point x="622.2" y="341.088433048"/>
      <point x="512.7" y="387.808433048" type="curve"/>
      <point x="470.640801765" y="324.179846407"/>
      <point x="407.573326453" y="322.843874644"/>
      <point x="330.6" y="322.843874644" type="curve"/>
      <point x="255.36737085" y="322.843874644"/>
      <point x="194.7" y="342.838057116"/>
      <point x="194.7" y="407.845982906" type="curve"/>
      <point x="194.7" y="492.52173633"/>
      <point x="194.7" y="577.200030052"/>
      <point x="194.7" y="661.875783476" type="curve"/>
      <point x="34.1" y="661.875783476"/>
      <point x="194.7" y="661.875783476"/>
      <point x="34.1" y="661.875783476" type="curve"/>
      <point x="34.1" y="583.039971652"/>
      <point x="34.1" y="504.20179473"/>
      <point x="34.1" y="425.365982906" type="curve"/>
      <point x="34.1" y="275.165981436"/>
      <point x="159.427087395" y="206.043874644"/>
      <point x="323.3" y="206.043874644" type="curve"/>
      <point x="452.856871857" y="206.043874644"/>
      <point x="553.892285819" y="231.862419631"/>
      <point x="622.2" y="341.088433048" type="curve"/>
    </contour>
    <contour>
      <point x="643.2" y="0"/>
      <point x="482.6" y="7.86687121695e-15"/>
      <point x="643.2" y="0" type="curve"/>
      <point x="643.2" y="236.6643"/>
      <point x="643.2" y="473.3357"/>
      <point x="643.2" y="710" type="curve"/>
      <point x="482.6" y="710"/>
      <point x="643.2" y="710"/>
      <point x="482.6" y="710" type="curve"/>
      <point x="482.6" y="473.3357"/>
      <point x="482.6" y="236.6643"/>
      <point x="482.6" y="7.86687121695e-15" type="curve"/>
    </contour>
  </outline>
</glyph>
<glyph name="dvmAA" format="1">
  <advance width="444"/>
  <unicode hex="093E"/>
  <outline>
    <contour>
      <point x="222" y="117"/>
      <point x="222" y="0"/>
      <point x="222" y="117" type="curve"/>
      <point x="28" y="117"/>
      <point x="222" y="117"/>
      <point x="28" y="117" type="curve"/>
      <point x="28" y="0"/>
      <point x="28" y="117"/>
      <point x="28" y="0" type="curve"/>
      <point x="92" y="0"/>
      <point x="157" y="0"/>
      <point x="222" y="0" type="curve"/>
    </contour>
    <contour>
      <point x="222" y="0"/>
      <point x="222" y="117"/>
      <point x="222" y="0" type="curve"/>
      <point x="286" y="0"/>
      <point x="351" y="0"/>
      <point x="415" y="0" type="curve"/>
      <point x="415" y="117"/>
      <point x="415" y="0"/>
      <point x="415" y="117" type="curve"/>
      <point x="222" y="117"/>
      <point x="415" y="117"/>
      <point x="222" y="117" type="curve"/>
    </contour>
    <contour>
      <point x="445" y="722"/>
      <point x="445" y="605"/>
      <point x="445" y="722" type="curve"/>
      <point x="318" y="722"/>
      <point x="122" y="722"/>
      <point x="-5" y="722" type="curve"/>
      <point x="-5" y="605"/>
      <point x="-5" y="722"/>
      <point x="-5" y="605" type="curve"/>
      <point x="122" y="605"/>
      <point x="318" y="605"/>
      <point x="445" y="605" type="curve"/>
    </contour>
    <contour>
      <point x="141" y="722"/>
      <point x="302" y="722"/>
      <point x="141" y="722" type="curve"/>
      <point x="141" y="481"/>
      <point x="141" y="241"/>
      <point x="141" y="0" type="curve"/>
      <point x="302" y="0"/>
      <point x="141" y="0"/>
      <point x="302" y="0" type="curve"/>
      <point x="302" y="241"/>
      <point x="302" y="481"/>
      <point x="302" y="722" type="curve"/>
    </contour>
  </outline>
</glyph>
<glyph name="dvvRR" format="1">
  <advance width="1265"/>
  <unicode hex="0960"/>
  <outline>
    <contour>
      <point x="204" y="142"/>
      <point x="136" y="256"/>
      <point x="204" y="142" type="curve"/>
      <point x="354" y="210"/>
      <point x="488.833368352" y="275.122270521"/>
      <point x="626.2" y="334.873219373" type="curve"/>
      <point x="538.6" y="422.473219373"/>
      <point x="626.2" y="334.873219373"/>
      <point x="538.6" y="422.473219373" type="curve"/>
      <point x="405.100412856" y="365.240352036"/>
      <point x="269.499587144" y="313.027055372"/>
      <point x="136" y="255.794188034" type="curve"/>
    </contour>
    <contour>
      <point x="1280" y="722"/>
      <point x="1280" y="605"/>
      <point x="1280" y="722" type="curve"/>
      <point x="879" y="722"/>
      <point x="385.229325" y="722"/>
      <point x="-15.6" y="722" type="curve"/>
      <point x="-15.6" y="605.2"/>
      <point x="-15.6" y="722"/>
      <point x="-15.6" y="605.2" type="curve"/>
      <point x="385.229325" y="605.2"/>
      <point x="879" y="605"/>
      <point x="1280" y="605" type="curve"/>
    </contour>
    <contour>
      <point x="551.8" y="316.393732194"/>
      <point x="588.3" y="433.193732194"/>
      <point x="551.8" y="316.393732194" type="curve"/>
      <point x="611.217314643" y="301.396778588"/>
      <point x="652.685907308" y="294.841025641"/>
      <point x="713.3" y="294.841025641" type="curve"/>
      <point x="856.35779228" y="294.841025641"/>
      <point x="954.4" y="357.604514012"/>
      <point x="954.4" y="483.794586895" type="curve"/>
      <point x="954.4" y="541.221222547"/>
      <point x="909.782292384" y="570.342576365"/>
      <point x="848" y="563.094245014" type="curve"/>
      <point x="745.8" y="481.334245014"/>
      <point x="848" y="563.094245014"/>
      <point x="745.8" y="481.334245014" type="curve"/>
      <point x="772.550394069" y="471.859498834"/>
      <point x="808.4" y="472.048723593"/>
      <point x="808.4" y="454.594586895" type="curve"/>
      <point x="808.4" y="416.609420845"/>
      <point x="766.253478156" y="411.641025641"/>
      <point x="720.6" y="411.641025641" type="curve"/>
      <point x="670.163782108" y="411.641025641"/>
      <point x="637.4951076" y="421.425460862"/>
      <point x="588.3" y="433.193732194" type="curve"/>
    </contour>
    <contour>
      <point x="117" y="401"/>
      <point x="40" y="503"/>
      <point x="117" y="401" type="curve"/>
      <point x="180" y="437"/>
      <point x="214.346724197" y="451.744729345"/>
      <point x="264.4" y="451.744729345" type="curve"/>
      <point x="376.501241241" y="451.744729345"/>
      <point x="481.550055252" y="356.741739439"/>
      <point x="551.5" y="314.572136752" type="curve"/>
      <point x="617.2" y="425.532136752"/>
      <point x="551.5" y="314.572136752"/>
      <point x="617.2" y="425.532136752" type="curve"/>
      <point x="541.096820442" y="476.215653221"/>
      <point x="415.812378229" y="568.544729345"/>
      <point x="279" y="568.544729345" type="curve"/>
      <point x="185.177913479" y="568.544729345"/>
      <point x="122.490557011" y="547.230367381"/>
      <point x="40.3" y="502.649287749" type="curve"/>
    </contour>
    <contour>
      <point x="500.8" y="711"/>
      <point x="661.4" y="711"/>
      <point x="500.8" y="711" type="curve"/>
      <point x="500.8" y="474.00237"/>
      <point x="500.8" y="236.99763"/>
      <point x="500.8" y="7.86687121695e-15" type="curve"/>
      <point x="661.4" y="-1.57337424339e-14"/>
      <point x="500.8" y="7.86687121695e-15"/>
      <point x="661.4" y="-1.57337424339e-14" type="curve"/>
      <point x="661.4" y="236.99763"/>
      <point x="661.4" y="474.00237"/>
      <point x="661.4" y="711" type="curve"/>
    </contour>
    <contour>
      <point x="1148" y="188"/>
      <point x="1220" y="90"/>
      <point x="1148" y="188" type="curve"/>
      <point x="1111" y="167"/>
      <point x="1084.55628101" y="153.008547009"/>
      <point x="1044.3" y="153.008547009" type="curve"/>
      <point x="1005.65125942" y="153.008547009"/>
      <point x="968.813614785" y="167.051586128"/>
      <point x="969.5" y="206.487863248" type="curve"/>
      <point x="970.633092694" y="235.909168573"/>
      <point x="1005.22213075" y="249.939667707"/>
      <point x="1030.7" y="253.557207977" type="curve"/>
      <point x="1081.8" y="376.197207977"/>
      <point x="1030.7" y="253.557207977"/>
      <point x="1081.8" y="376.197207977" type="curve"/>
      <point x="945.974181723" y="358.106915844"/>
      <point x="809.782758516" y="316.501716304"/>
      <point x="808.9" y="194.807863248" type="curve"/>
      <point x="808.510194294" y="77.3822993921"/>
      <point x="920.229321363" y="36.2085470085"/>
      <point x="1037" y="36.2085470085" type="curve"/>
      <point x="1118.11976039" y="36.2085470085"/>
      <point x="1179" y="63"/>
      <point x="1220" y="90" type="curve"/>
    </contour>
    <contour>
      <point x="745.8" y="481.334245014"/>
      <point x="848" y="563.094245014"/>
      <point x="745.8" y="481.334245014" type="curve"/>
      <point x="840.87780746" y="405.549632467"/>
      <point x="935.62219254" y="329.341820524"/>
      <point x="1030.7" y="253.557207977" type="curve"/>
      <point x="1081.8" y="376.197207977"/>
      <point x="1030.7" y="253.557207977"/>
      <point x="1081.8" y="376.197207977" type="curve"/>
      <point x="1003.9628069" y="438.614796129"/>
      <point x="925.837193099" y="500.676656862"/>
      <point x="848" y="563.094245014" type="curve"/>
    </contour>
  </outline>
</glyph>
<glyph name="dvvLL" format="1">
  <advance width="1109"/>
  <unicode hex="0961"/>
  <outline>
    <contour>
      <point x="1022" y="-110"/>
      <point x="1094" y="-212"/>
      <point x="1022" y="-110" type="curve"/>
      <point x="967" y="-139"/>
      <point x="922" y="-150"/>
      <point x="874" y="-150" type="curve"/>
      <point x="825" y="-150"/>
      <point x="780" y="-143"/>
      <point x="780" y="-106" type="curve"/>
      <point x="781" y="-84"/>
      <point x="802" y="-78"/>
      <point x="820" y="-66" type="curve"/>
      <point x="718" y="4"/>
      <point x="820" y="-66"/>
      <point x="718" y="4" type="curve"/>
      <point x="663" y="-27"/>
      <point x="627" y="-68"/>
      <point x="627" y="-129" type="curve"/>
      <point x="626" y="-238"/>
      <point x="740" y="-267"/>
      <point x="866" y="-267" type="curve"/>
      <point x="952" y="-267"/>
      <point x="1019" y="-253"/>
      <point x="1094" y="-212" type="curve"/>
    </contour>
    <contour>
      <point x="429" y="123"/>
      <point x="334" y="24"/>
      <point x="429" y="123" type="curve"/>
      <point x="313" y="171"/>
      <point x="205" y="209"/>
      <point x="205" y="326" type="curve"/>
      <point x="205" y="391"/>
      <point x="253" y="432"/>
      <point x="320" y="432" type="curve"/>
      <point x="397" y="432"/>
      <point x="458" y="418"/>
      <point x="520" y="374" type="curve"/>
      <point x="593" y="467"/>
      <point x="520" y="374"/>
      <point x="593" y="467" type="curve"/>
      <point x="512" y="526"/>
      <point x="434" y="549"/>
      <point x="335" y="549" type="curve"/>
      <point x="173" y="549"/>
      <point x="44" y="469"/>
      <point x="44" y="320" type="curve"/>
      <point x="44" y="161"/>
      <point x="175" y="88"/>
      <point x="334" y="24" type="curve"/>
    </contour>
    <contour>
      <point x="1129" y="722"/>
      <point x="1129" y="605"/>
      <point x="1129" y="722" type="curve"/>
      <point x="744" y="722"/>
      <point x="357.30179754" y="722.0"/>
      <point x="-28" y="722" type="curve"/>
      <point x="-28" y="605"/>
      <point x="-28" y="722"/>
      <point x="-28" y="605" type="curve"/>
      <point x="357.30179754" y="605.0"/>
      <point x="744" y="605"/>
      <point x="1129" y="605" type="curve"/>
    </contour>
    <contour>
      <point x="645" y="663"/>
      <point x="805" y="663"/>
      <point x="645" y="663" type="curve"/>
      <point x="645" y="605"/>
      <point x="645" y="548"/>
      <point x="645" y="490" type="curve"/>
      <point x="805" y="490"/>
      <point x="645" y="490"/>
      <point x="805" y="490" type="curve"/>
      <point x="805" y="548"/>
      <point x="805" y="605"/>
      <point x="805" y="663" type="curve"/>
    </contour>
    <contour>
      <point x="604" y="308"/>
      <point x="472" y="285"/>
      <point x="604" y="308" type="curve"/>
      <point x="582" y="377"/>
      <point x="632" y="429"/>
      <point x="712" y="429" type="curve"/>
      <point x="800" y="429"/>
      <point x="877" y="415"/>
      <point x="877" y="354" type="curve"/>
      <point x="877" y="315"/>
      <point x="830" y="289"/>
      <point x="786" y="258" type="curve"/>
      <point x="696" y="194"/>
      <point x="602" y="161"/>
      <point x="601" y="52" type="curve"/>
      <point x="601" y="-58"/>
      <point x="698" y="-97"/>
      <point x="822" y="-97" type="curve"/>
      <point x="898" y="-97"/>
      <point x="952" y="-84"/>
      <point x="1021" y="-49" type="curve"/>
      <point x="952" y="51"/>
      <point x="1021" y="-49"/>
      <point x="952" y="51" type="curve"/>
      <point x="910" y="30"/>
      <point x="877" y="20"/>
      <point x="836" y="20" type="curve"/>
      <point x="793.0" y="20.0"/>
      <point x="754" y="22"/>
      <point x="754" y="59" type="curve"/>
      <point x="754.0" y="104.428571429"/>
      <point x="818" y="130"/>
      <point x="867" y="165" type="curve"/>
      <point x="958" y="229"/>
      <point x="1038" y="271"/>
      <point x="1038" y="366" type="curve"/>
      <point x="1038" y="509"/>
      <point x="899" y="546"/>
      <point x="734" y="546" type="curve"/>
      <point x="546" y="546"/>
      <point x="423" y="437"/>
      <point x="472" y="285" type="curve"/>
    </contour>
  </outline>
</glyph>
<glyph name="danda" format="1">
  <advance width="434"/>
  <unicode hex="0964"/>
  <outline>
    <contour>
      <point x="201.8" y="722"/>
      <point x="362.4" y="722"/>
      <point x="201.8" y="722" type="curve"/>
      <point x="201.8" y="481.33574"/>
      <point x="201.8" y="240.66426"/>
      <point x="201.8" y="7.86687121695e-15" type="curve"/>
      <point x="362.4" y="-1.57337424339e-14"/>
      <point x="201.8" y="7.86687121695e-15"/>
      <point x="362.4" y="-1.57337424339e-14" type="curve"/>
      <point x="362.4" y="240.66426"/>
      <point x="362.4" y="481.33574"/>
      <point x="362.4" y="722" type="curve"/>
    </contour>
  </outline>
</glyph>
<glyph name="dvZero" format="1">
  <advance width="777"/>
  <unicode hex="0966"/>
  <outline>
    <contour>
      <point x="190.8" y="351.516809117"/>
      <point x="30.2" y="351.516809117"/>
      <point x="190.8" y="351.516809117" type="curve"/>
      <point x="190.8" y="453.350577237"/>
      <point x="273.438389394" y="505.195441595"/>
      <point x="382.7" y="505.195441595" type="curve"/>
      <point x="500.483138931" y="505.195441595"/>
      <point x="595.0426468" y="460.364291127"/>
      <point x="593.1" y="353.338404558" type="curve"/>
      <point x="593.1" y="250.797334756"/>
      <point x="506.352601042" y="205.597150997"/>
      <point x="394.3" y="205.597150997" type="curve"/>
      <point x="279.092126504" y="205.597150997"/>
      <point x="190.8" y="247.224008606"/>
      <point x="190.8" y="351.516809117" type="curve"/>
      <point x="30.2" y="351.516809117"/>
      <point x="190.8" y="351.516809117"/>
      <point x="30.2" y="351.516809117" type="curve"/>
      <point x="30.2" y="167.114244247"/>
      <point x="182.083724139" y="88.7971509972"/>
      <point x="387.0" y="88.7971509972" type="curve"/>
      <point x="594.035340286" y="88.7971509972"/>
      <point x="753.7" y="170.963297892"/>
      <point x="753.7" y="359.178404558" type="curve"/>
      <point x="754.351763693" y="542.685677652"/>
      <point x="598.91857037" y="621.995441595"/>
      <point x="397.3" y="621.995441595" type="curve"/>
      <point x="189.939423667" y="621.995441595"/>
      <point x="30.2" y="541.212947748"/>
      <point x="30.2" y="351.516809117" type="curve"/>
    </contour>
  </outline>
</glyph>
<glyph name="dvOne" format="1">
  <advance width="693"/>
  <unicode hex="0967"/>
  <outline>
    <contour>
      <point x="501.1" y="-13.1406837607"/>
      <point x="347.8" y="39.4193162393"/>
      <point x="501.1" y="-13.1406837607" type="curve"/>
      <point x="518.954267265" y="5.1578681621"/>
      <point x="534.4" y="48.6168204626"/>
      <point x="534.4" y="89.1437606838" type="curve"/>
      <point x="534.4" y="276.143922691"/>
      <point x="316.603148643" y="288.755081014"/>
      <point x="123.5" y="322.649116809" type="curve"/>
      <point x="123.5" y="194.169116809"/>
      <point x="123.5" y="322.649116809"/>
      <point x="123.5" y="194.169116809" type="curve"/>
      <point x="226" y="192"/>
      <point x="363" y="179"/>
      <point x="363" y="81" type="curve"/>
      <point x="363" y="63"/>
      <point x="355.643724183" y="47.4582232463"/>
      <point x="347.8" y="39.4193162393" type="curve"/>
    </contour>
    <contour>
      <point x="509" y="415"/>
      <point x="455.349376067" y="321.954597785"/>
      <point x="502" y="418" type="curve"/>
      <point x="361" y="429"/>
      <point x="231.0" y="431.203879656"/>
      <point x="231" y="524" type="curve"/>
      <point x="232.025799581" y="583.496375687"/>
      <point x="284.751481273" y="603.497891738"/>
      <point x="350.6" y="603.497891738" type="curve"/>
      <point x="427.409303312" y="603.497891738"/>
      <point x="489.530631044" y="581.636995933"/>
      <point x="490.4" y="512.828433048" type="curve"/>
      <point x="491.614953875" y="341.065894577"/>
      <point x="304.970475851" y="357.981537179"/>
      <point x="123.5" y="322.649116809" type="curve"/>
      <point x="123.5" y="194.169116809"/>
      <point x="123.5" y="322.649116809"/>
      <point x="123.5" y="194.169116809" type="curve"/>
      <point x="397.641267146" y="240.408076376"/>
      <point x="651.349766282" y="267.323128623"/>
      <point x="651" y="518.668433048" type="curve"/>
      <point x="650.632628711" y="669.837017579"/>
      <point x="522.83862016" y="731.977891738"/>
      <point x="357.9" y="731.977891738" type="curve"/>
      <point x="195.866147884" y="731.977891738"/>
      <point x="73.018866509" y="668.405554923"/>
      <point x="71" y="518" type="curve"/>
      <point x="71.0" y="369.392603966"/>
      <point x="249" y="327"/>
      <point x="462" y="319" type="curve"/>
    </contour>
  </outline>
</glyph>
<glyph name="dvTwo" format="1">
  <advance width="745.0"/>
  <unicode hex="0968"/>
  <outline>
    <contour>
      <point x="41" y="272"/>
      <point x="149" y="348"/>
      <point x="41" y="272" type="curve"/>
      <point x="175" y="169"/>
      <point x="301" y="58"/>
      <point x="466" y="-60" type="curve"/>
      <point x="573" y="42"/>
      <point x="466" y="-60"/>
      <point x="573" y="42" type="curve"/>
      <point x="439" y="144"/>
      <point x="299" y="235"/>
      <point x="149" y="348" type="curve"/>
    </contour>
    <contour>
      <point x="140" y="577"/>
      <point x="88" y="668"/>
      <point x="140" y="577" type="curve"/>
      <point x="216" y="602"/>
      <point x="265" y="611"/>
      <point x="327" y="611" type="curve"/>
      <point x="446" y="612"/>
      <point x="553" y="578"/>
      <point x="553" y="474" type="curve"/>
      <point x="553" y="343"/>
      <point x="417" y="301"/>
      <point x="264" y="301" type="curve"/>
      <point x="216" y="301"/>
      <point x="165" y="295"/>
      <point x="149" y="348" type="curve"/>
      <point x="41" y="272"/>
      <point x="149" y="348"/>
      <point x="41" y="272" type="curve"/>
      <point x="41" y="176"/>
      <point x="153" y="184"/>
      <point x="264" y="184" type="curve"/>
      <point x="509" y="184"/>
      <point x="713" y="264"/>
      <point x="713" y="480" type="curve"/>
      <point x="713" y="662"/>
      <point x="537" y="728"/>
      <point x="335" y="728" type="curve"/>
      <point x="241" y="728"/>
      <point x="152" y="704"/>
      <point x="88" y="668" type="curve"/>
    </contour>
  </outline>
</glyph>
